<svg width="179" height="133" viewBox="0 0 179 133" fill="none" xmlns="http://www.w3.org/2000/svg">
<rect width="179" height="133" fill="white"/>
<path d="M39.3004 37.2492C41.4346 37.2492 43.1647 35.5191 43.1647 33.3848C43.1647 31.2506 41.4346 29.5205 39.3004 29.5205C37.1662 29.5205 35.436 31.2506 35.436 33.3848C35.436 35.5191 37.1662 37.2492 39.3004 37.2492Z" fill="white"/>
<path fill-rule="evenodd" clip-rule="evenodd" d="M21.9972 52.6969C20.8771 52.5902 20.001 51.6468 20.001 50.4988L20 50.0309V50.4987C20 51.647 20.8766 52.5907 21.9972 52.6969ZM20 39.7629V26.2086C20 24.989 20.9886 24.0004 22.2082 24.0004H46.4983C47.7179 24.0004 48.7065 24.989 48.7065 26.2086V50.2484L48.6854 44.7795C46.9069 44.1789 45.0421 43.8731 43.1649 43.8742C40.7888 43.869 38.4367 44.35 36.2533 45.2874L36.1713 45.3343C35.4925 44.5154 34.7309 43.7602 33.8943 43.0819C30.9013 40.6551 27.1434 39.3707 23.2912 39.4578C22.1869 39.4548 21.0849 39.557 20 39.7629ZM39.3006 37.2495C41.4348 37.2495 43.1649 35.5194 43.1649 33.3851C43.1649 31.2509 41.4348 29.5208 39.3006 29.5208C37.1664 29.5208 35.4362 31.2509 35.4362 33.3851C35.4362 35.5194 37.1664 37.2495 39.3006 37.2495Z" fill="#B8EEFF"/>
<path fill-rule="evenodd" clip-rule="evenodd" d="M20.0011 50.498C20.0011 51.5993 20.8072 52.5122 21.8616 52.679C20.8069 52.5126 20.0004 51.5994 20.0004 50.4979V50.1409L20.0011 50.498ZM20.0004 26.2078V39.7621C21.0852 39.5563 22.1871 39.4541 23.2913 39.4571C27.1436 39.3699 30.9015 40.6544 33.8945 43.0811C34.7311 43.7594 35.4927 44.5147 36.1714 45.3335L36.2534 45.2867C38.4368 44.3492 40.7889 43.8683 43.1651 43.8734C45.0423 43.8724 46.907 44.1782 48.6856 44.7788L48.7065 50.2116V50.498C48.7065 51.7175 47.7179 52.7062 46.4983 52.7062H22.2082C20.9886 52.7062 20 51.7175 20 50.498V26.2079C20 25.0895 20.8314 24.1653 21.9099 24.0197C20.8316 24.1655 20.0004 25.0896 20.0004 26.2078Z" fill="white"/>
<path d="M22.2082 52.7065H46.4983C47.7179 52.7065 48.7065 51.7179 48.7065 50.4984V26.2082C48.7065 24.9887 47.7179 24.0001 46.4983 24.0001L22.2082 24.0001C20.9886 24.0001 20 24.9887 20 26.2082L20 50.4984C20 51.7179 20.9886 52.7065 22.2082 52.7065Z" stroke="#1C3C68" stroke-width="2.20819" stroke-linecap="round" stroke-linejoin="round"/>
<path d="M39.3004 37.2492C41.4346 37.2492 43.1647 35.5191 43.1647 33.3848C43.1647 31.2506 41.4346 29.5205 39.3004 29.5205C37.1662 29.5205 35.436 31.2506 35.436 33.3848C35.436 35.5191 37.1662 37.2492 39.3004 37.2492Z" stroke="#1C3C68" stroke-width="2.20819" stroke-linecap="round" stroke-linejoin="round"/>
<path d="M39.6306 52.7063C38.9196 48.9193 36.8861 45.508 33.8931 43.0812C30.9001 40.6545 27.1422 39.37 23.2899 39.4572C22.1876 39.4542 21.0875 39.556 20.0044 39.7612" stroke="#1C3C68" stroke-width="2.20819" stroke-linecap="round" stroke-linejoin="round"/>
<path d="M48.6856 44.7791C46.907 44.1785 45.0423 43.8726 43.1651 43.8737C40.7889 43.8685 38.4368 44.3495 36.2534 45.2869" stroke="#1C3C68" stroke-width="2.20819" stroke-linecap="round" stroke-linejoin="round"/>
<path d="M75.7568 29.5989C75.7568 28.3893 76.7374 27.4087 77.9471 27.4087H98.7542C99.9638 27.4087 100.944 28.3893 100.944 29.5989V50.406C100.944 51.6156 99.9638 52.5962 98.7542 52.5962H77.9471C76.7374 52.5962 75.7568 51.6156 75.7568 50.406V29.5989Z" fill="#B8EEFF"/>
<path d="M91.0892 42.74L84.5186 43.9227L85.6137 37.2645L98.1636 24.7583C98.3672 24.5531 98.6095 24.3901 98.8764 24.2789C99.1433 24.1677 99.4296 24.1105 99.7187 24.1105C100.008 24.1105 100.294 24.1677 100.561 24.2789C100.828 24.3901 101.07 24.5531 101.274 24.7583L103.595 27.08C103.801 27.2836 103.964 27.5258 104.075 27.7927C104.186 28.0596 104.243 28.3459 104.243 28.635C104.243 28.9242 104.186 29.2104 104.075 29.4773C103.964 29.7442 103.801 29.9865 103.595 30.1901L91.0892 42.74Z" fill="white"/>
<path d="M91.0892 42.74L84.5186 43.9227L85.6137 37.2645L98.1636 24.7583C98.3672 24.5531 98.6095 24.3901 98.8764 24.2789C99.1433 24.1677 99.4296 24.1105 99.7187 24.1105C100.008 24.1105 100.294 24.1677 100.561 24.2789C100.828 24.3901 101.07 24.5531 101.274 24.7583L103.595 27.08C103.801 27.2836 103.964 27.5258 104.075 27.7927C104.186 28.0596 104.243 28.3459 104.243 28.635C104.243 28.9242 104.186 29.2104 104.075 29.4773C103.964 29.7442 103.801 29.9865 103.595 30.1901L91.0892 42.74Z" fill="white"/>
<path d="M91.0892 42.74L84.5186 43.9227L85.6137 37.2645L98.1636 24.7583C98.3672 24.5531 98.6095 24.3901 98.8764 24.2789C99.1433 24.1677 99.4296 24.1105 99.7187 24.1105C100.008 24.1105 100.294 24.1677 100.561 24.2789C100.828 24.3901 101.07 24.5531 101.274 24.7583L103.595 27.08C103.801 27.2836 103.964 27.5258 104.075 27.7927C104.186 28.0596 104.243 28.3459 104.243 28.635C104.243 28.9242 104.186 29.2104 104.075 29.4773C103.964 29.7442 103.801 29.9865 103.595 30.1901L91.0892 42.74Z" stroke="#1C3C68" stroke-width="2.20819" stroke-linecap="round" stroke-linejoin="round"/>
<path d="M100.944 43.8353V50.406C100.944 50.9869 100.714 51.544 100.303 51.9547C99.8921 52.3654 99.335 52.5962 98.7542 52.5962H77.9471C77.3662 52.5962 76.8091 52.3654 76.3983 51.9547C75.9876 51.544 75.7568 50.9869 75.7568 50.406V29.5989C75.7568 29.018 75.9876 28.4609 76.3983 28.0502C76.8091 27.6394 77.3662 27.4087 77.9471 27.4087H84.5177" stroke="#1C3C68" stroke-width="2.20819" stroke-linecap="round" stroke-linejoin="round"/>
<path d="M137.919 39.4576H131.294V50.4986C131.294 51.0842 131.527 51.6459 131.941 52.06C132.355 52.4741 132.916 52.7068 133.502 52.7068H137.919C138.504 52.7068 139.066 52.4741 139.48 52.06C139.894 51.6459 140.127 51.0842 140.127 50.4986V41.6658C140.127 41.0802 139.894 40.5185 139.48 40.1044C139.066 39.6903 138.504 39.4576 137.919 39.4576Z" fill="#B8EEFF"/>
<path d="M160 50.4986V39.4576H153.375C152.79 39.4576 152.228 39.6903 151.814 40.1044C151.4 40.5185 151.167 41.0802 151.167 41.6658V50.4986C151.167 51.0842 151.4 51.6459 151.814 52.06C152.228 52.4741 152.79 52.7068 153.375 52.7068H157.792C158.377 52.7068 158.939 52.4741 159.353 52.06C159.767 51.6459 160 51.0842 160 50.4986Z" fill="#B8EEFF"/>
<path d="M135.71 39.4576H137.919C138.504 39.4576 139.066 39.6902 139.48 40.1043C139.894 40.5185 140.127 41.0801 140.127 41.6658V50.4985C140.127 51.0842 139.894 51.6458 139.48 52.06C139.066 52.4741 138.504 52.7067 137.919 52.7067H133.502C132.916 52.7067 132.355 52.4741 131.941 52.06C131.527 51.6458 131.294 51.0842 131.294 50.4985V38.3535C131.294 34.5468 132.806 30.896 135.498 28.2042C138.19 25.5125 141.84 24.0002 145.647 24.0002C149.454 24.0002 153.105 25.5125 155.797 28.2042C158.488 30.896 160 34.5468 160 38.3535V50.4985C160 51.0842 159.768 51.6458 159.354 52.06C158.94 52.4741 158.378 52.7067 157.792 52.7067H153.376C152.79 52.7067 152.229 52.4741 151.814 52.06C151.4 51.6458 151.168 51.0842 151.168 50.4985V41.6658C151.168 41.0801 151.4 40.5185 151.814 40.1043C152.229 39.6902 152.79 39.4576 153.376 39.4576H155.584" stroke="#1C3C68" stroke-width="2.20819" stroke-linecap="round" stroke-linejoin="round"/>
<path d="M28.0837 100.099C27.6779 99.7539 27.4104 99.274 27.3306 98.7474L26.1823 87.3753H46.3873C46.7561 87.3588 47.1232 87.435 47.455 87.597C47.7867 87.7591 48.0726 88.0017 48.2863 88.3027C48.4915 88.5858 48.6266 88.9136 48.6803 89.2591C48.734 89.6046 48.705 89.958 48.5955 90.2901L45.6586 99.1228C45.5049 99.5799 45.2059 99.9741 44.8072 100.245C44.4084 100.516 43.9319 100.65 43.4504 100.624H29.5387C29.0062 100.63 28.4894 100.444 28.0837 100.099Z" fill="#B8EEFF"/>
<path d="M20.0166 79.6466L25.4094 79.6466L27.3306 98.7475C27.4104 99.274 27.6779 99.754 28.0837 100.099C28.4894 100.444 29.0062 100.63 29.5387 100.624H43.4504C43.9319 100.65 44.4084 100.516 44.8072 100.245C45.2059 99.9741 45.5049 99.5799 45.6586 99.1229L48.5955 90.2901C48.705 89.958 48.734 89.6047 48.6803 89.2592C48.6266 88.9137 48.4915 88.5858 48.2863 88.3027C48.0726 88.0017 47.7867 87.7591 47.455 87.5971C47.1232 87.435 46.7561 87.3588 46.3873 87.3753H26.1823" stroke="#1C3C68" stroke-width="2.20819" stroke-linecap="round" stroke-linejoin="round"/>
<path d="M43.0741 108.353C42.4643 108.353 41.97 107.859 41.97 107.249C41.97 106.64 42.4643 106.145 43.0741 106.145C43.6839 106.145 44.1782 106.64 44.1782 107.249C44.1782 107.859 43.6839 108.353 43.0741 108.353Z" stroke="#1C3C68" stroke-width="2.20819" stroke-linecap="round" stroke-linejoin="round"/>
<path d="M28.7211 108.353C28.1113 108.353 27.617 107.859 27.617 107.249C27.617 106.64 28.1113 106.145 28.7211 106.145C29.3309 106.145 29.8252 106.64 29.8252 107.249C29.8252 107.859 29.3309 108.353 28.7211 108.353Z" stroke="#1C3C68" stroke-width="2.20819" stroke-linecap="round" stroke-linejoin="round"/>
<path d="M76.8522 91.3809H82.0443V105.204H76.8522C76.5617 105.204 76.2831 105.089 76.0777 104.884C75.8722 104.678 75.7568 104.4 75.7568 104.109V92.4762C75.7568 92.1857 75.8722 91.9071 76.0777 91.7017C76.2831 91.4963 76.5617 91.3809 76.8522 91.3809Z" fill="white"/>
<path d="M76.8522 91.3809H82.0443V105.204H76.8522C76.5617 105.204 76.2831 105.089 76.0777 104.884C75.8722 104.678 75.7568 104.4 75.7568 104.109V92.4762C75.7568 92.1857 75.8722 91.9071 76.0777 91.7017C76.2831 91.4963 76.5617 91.3809 76.8522 91.3809V91.3809Z" stroke="#1C3C68" stroke-width="2.20819" stroke-linecap="round" stroke-linejoin="round"/>
<path d="M82.0454 91.3808L87.6099 82.4864C87.8256 82.1348 88.1286 81.8451 88.4895 81.6455C88.8504 81.4458 89.2568 81.343 89.6692 81.3472C89.994 81.3354 90.3179 81.3889 90.6216 81.5045C90.9254 81.6201 91.2029 81.7954 91.4378 82.02C91.6727 82.2447 91.8601 82.5142 91.9891 82.8125C92.118 83.1108 92.1859 83.432 92.1886 83.757V90.1321H101.806C102.161 90.1436 102.51 90.2302 102.83 90.3862C103.149 90.5422 103.432 90.7641 103.66 91.0372C103.887 91.3104 104.055 91.6286 104.15 91.971C104.246 92.3134 104.269 92.6722 104.216 93.0238L102.463 104.328C102.388 104.932 102.096 105.488 101.64 105.892C101.184 106.295 100.596 106.518 99.9877 106.519H85.6163C84.9322 106.522 84.257 106.364 83.6447 106.059L82.0673 105.27" fill="#B8EEFF"/>
<path d="M82.0454 91.3801L87.6099 82.4856C87.8256 82.1341 88.1286 81.8444 88.4895 81.6447C88.8504 81.4451 89.2568 81.3423 89.6692 81.3464C89.994 81.3347 90.3179 81.3882 90.6216 81.5038C90.9254 81.6194 91.2029 81.7947 91.4378 82.0193C91.6727 82.244 91.8601 82.5134 91.9891 82.8118C92.118 83.1101 92.1859 83.4313 92.1886 83.7563V90.1313H101.806C102.161 90.1429 102.51 90.2295 102.83 90.3855C103.149 90.5415 103.432 90.7634 103.66 91.0365C103.887 91.3097 104.055 91.6279 104.15 91.9703C104.246 92.3127 104.269 92.6715 104.216 93.0231L102.463 104.327C102.388 104.931 102.096 105.488 101.64 105.891C101.184 106.294 100.596 106.517 99.9877 106.518H85.6163C84.9322 106.521 84.257 106.363 83.6447 106.058L82.0673 105.269" stroke="#1C3C68" stroke-width="2.20819" stroke-linecap="round" stroke-linejoin="round"/>
<path d="M82.0454 91.3809V105.204" stroke="#1C3C68" stroke-width="2.20819" stroke-linecap="round" stroke-linejoin="round"/>
<path d="M145.647 96.2079C148.696 96.2079 151.167 93.7363 151.167 90.6875C151.167 87.6386 148.696 85.167 145.647 85.167C142.598 85.167 140.126 87.6386 140.126 90.6875C140.126 93.7363 142.598 96.2079 145.647 96.2079Z" fill="white"/>
<path d="M155.079 104.819C152.557 107.02 149.258 108.353 145.647 108.353C142.036 108.353 138.737 107.02 136.215 104.819C138.153 101.641 141.652 99.52 145.647 99.52C149.642 99.52 153.141 101.641 155.079 104.819Z" fill="white"/>
<path fill-rule="evenodd" clip-rule="evenodd" d="M160 94C160 101.927 153.574 108.353 145.647 108.353C145.399 108.353 145.153 108.347 144.909 108.335C145.153 108.347 145.399 108.353 145.647 108.353C149.258 108.353 152.557 107.02 155.079 104.819C153.141 101.642 149.642 99.5204 145.647 99.5204C141.653 99.5204 138.154 101.642 136.215 104.819C133.199 102.188 131.294 98.3165 131.294 94C131.294 86.0729 137.72 79.6467 145.647 79.6467C153.574 79.6467 160 86.0729 160 94ZM145.647 96.2081C148.696 96.2081 151.168 93.7365 151.168 90.6877C151.168 87.6388 148.696 85.1672 145.647 85.1672C142.598 85.1672 140.127 87.6388 140.127 90.6877C140.127 93.7365 142.598 96.2081 145.647 96.2081Z" fill="#B8EEFF"/>
<path d="M145.647 96.2079C148.696 96.2079 151.167 93.7363 151.167 90.6875C151.167 87.6386 148.696 85.167 145.647 85.167C142.598 85.167 140.126 87.6386 140.126 90.6875C140.126 93.7363 142.598 96.2079 145.647 96.2079Z" stroke="#1C3C68" stroke-width="2.20819" stroke-linecap="round" stroke-linejoin="round"/>
<path d="M136.219 104.82C137.205 103.202 138.59 101.865 140.241 100.938C141.892 100.01 143.754 99.5231 145.648 99.5231C147.542 99.5231 149.404 100.01 151.056 100.938C152.707 101.865 154.092 103.202 155.077 104.82" stroke="#1C3C68" stroke-width="2.20819" stroke-linecap="round" stroke-linejoin="round"/>
<path d="M145.647 108.353C153.574 108.353 160 101.927 160 94C160 86.0729 153.574 79.6467 145.647 79.6467C137.72 79.6467 131.294 86.0729 131.294 94C131.294 101.927 137.72 108.353 145.647 108.353Z" stroke="#1C3C68" stroke-width="2.20819" stroke-linecap="round" stroke-linejoin="round"/>
</svg>
