<svg width="179" height="133" viewBox="0 0 179 133" fill="none" xmlns="http://www.w3.org/2000/svg">
<rect width="179" height="133" fill="white"/>
<path fill-rule="evenodd" clip-rule="evenodd" d="M98.9679 24.0713C98.6147 24.0713 98.265 24.1409 97.9388 24.2762C97.6133 24.4113 97.3163 24.6105 97.0675 24.8599L85.8693 35.9562C85.7892 36.0355 85.7362 36.1381 85.7179 36.2494L84.6469 42.734C84.6186 42.9057 84.6754 43.0805 84.7993 43.2027C84.9232 43.3249 85.0987 43.3793 85.27 43.3486L91.6957 42.1967C91.8033 42.1774 91.9024 42.1257 91.9797 42.0485L103.137 30.908C103.387 30.6602 103.586 30.3655 103.722 30.0406C103.858 29.7152 103.928 29.3662 103.928 29.0135C103.928 28.6609 103.858 28.3118 103.722 27.9864C103.586 27.6614 103.386 27.3657 103.135 27.1179L100.867 24.8591C100.619 24.6094 100.323 24.4114 99.9969 24.2762C99.6708 24.1409 99.321 24.0713 98.9679 24.0713ZM93.8704 43.9498C93.4063 44.4132 92.8117 44.7236 92.1662 44.8393L85.736 45.9919C84.7081 46.1762 83.6547 45.8497 82.9113 45.1163C82.1678 44.383 81.8269 43.3342 81.9971 42.3039L83.0688 35.8148C83.179 35.1472 83.4971 34.5314 83.9778 34.0551L91.891 26.214H79.2856C77.5104 26.214 76.0713 27.6531 76.0713 29.4283V48.714C76.0713 50.4892 77.5104 51.9283 79.2856 51.9283H98.5713C100.346 51.9283 101.786 50.4892 101.786 48.714V36.0463L93.8704 43.9498Z" fill="url(#paint0_linear_1348_3)"/>
<path fill-rule="evenodd" clip-rule="evenodd" d="M138.357 37.9999C138.357 32.6743 142.674 28.357 148 28.357C153.326 28.357 157.643 32.6743 157.643 37.9999V39.0715H155.5C153.725 39.0715 152.286 40.5106 152.286 42.2858V48.7143C152.286 50.4895 153.725 51.9286 155.5 51.9286H158.714C160.49 51.9286 161.929 50.4895 161.929 48.7143V40.1429C161.929 40.1384 161.929 40.134 161.929 40.1295V37.9999C161.929 30.3073 155.692 24.0713 148 24.0713C140.307 24.0713 134.071 30.3073 134.071 37.9999V40.1272C134.071 40.1324 134.071 40.1376 134.071 40.1429V48.7143C134.071 50.4895 135.51 51.9286 137.286 51.9286H140.5C142.275 51.9286 143.714 50.4895 143.714 48.7143V42.2858C143.714 40.5106 142.275 39.0715 140.5 39.0715H138.357V37.9999Z" fill="url(#paint1_linear_1348_3)"/>
<path fill-rule="evenodd" clip-rule="evenodd" d="M84.5526 106.335C85.2726 106.679 86.06 106.857 86.8575 106.857L98.3134 106.857C100.953 106.857 103.199 104.934 103.606 102.327L104.947 93.7485C105.354 91.1492 103.344 88.8008 100.713 88.8008L93.6765 88.8008L93.6765 83.7488C93.6765 81.8254 92.1173 80.2661 90.1939 80.2661C88.9332 80.2661 87.771 80.9474 87.1551 82.0473L82.7037 89.9975C82.435 90.4773 82.294 91.0179 82.294 91.5678L82.2939 103.23C82.2939 104.47 83.0065 105.598 84.1253 106.132L84.5526 106.335ZM77.1346 90.3898C76.5685 90.39 76.0256 90.6149 75.6253 91.0152C75.2249 91.4156 75 91.9586 75 92.5249L75 103.481C75 104.047 75.2249 104.59 75.6253 104.99C76.0257 105.391 76.5688 105.616 77.135 105.616L77.1355 105.616L78.1991 105.615C78.7907 105.615 79.2701 105.135 79.2701 104.544L79.2701 91.4608C79.2701 91.1766 79.1571 90.904 78.9561 90.703C78.7551 90.5021 78.4824 90.3893 78.1982 90.3894L77.135 90.3898L77.1346 90.3898Z" fill="url(#paint2_linear_1348_3)"/>
<path fill-rule="evenodd" clip-rule="evenodd" d="M148 109C156.284 109 163 102.284 163 94C163 85.7157 156.284 79 148 79C139.716 79 133 85.7157 133 94C133 102.284 139.716 109 148 109ZM153.357 89.714C153.357 92.6726 150.958 95.0711 148 95.0711C145.041 95.0711 142.643 92.6726 142.643 89.714C142.643 86.7553 145.041 84.3568 148 84.3568C150.958 84.3568 153.357 86.7553 153.357 89.714ZM148 98.2854C151.403 98.2854 154.47 99.7281 156.621 102.035C154.47 104.343 151.403 105.785 148 105.785C144.596 105.785 141.53 104.343 139.378 102.035C141.53 99.7281 144.596 98.2854 148 98.2854Z" fill="url(#paint3_linear_1348_3)"/>
<path fill-rule="evenodd" clip-rule="evenodd" d="M18.6071 78.9995C17.7195 78.9995 17 79.7191 17 80.6067C17 81.4943 17.7195 82.2138 18.6071 82.2138H22.5471L22.9447 85.606L24.324 98.6782C24.3315 98.7498 24.3437 98.8197 24.3601 98.8879C24.6463 100.392 25.9673 101.5 27.5224 101.5H41.0946C42.5701 101.5 43.8588 100.497 44.2177 99.0654L46.9025 88.3511C47.4117 86.3191 45.8708 84.3567 43.7795 84.3567H26.387C26.2685 84.3567 26.1517 84.363 26.0368 84.3754L25.573 80.4195C25.4781 79.6099 24.792 78.9995 23.9768 78.9995H18.6071ZM42.5986 106.857C42.5986 105.673 41.6392 104.714 40.4558 104.714C39.2723 104.714 38.3129 105.673 38.3129 106.857C38.3129 108.04 39.2723 109 40.4558 109C41.6392 109 42.5986 108.04 42.5986 106.857ZM26.5272 104.714C27.7107 104.714 28.67 105.673 28.67 106.857C28.67 108.04 27.7107 109 26.5272 109C25.3437 109 24.3843 108.04 24.3843 106.857C24.3843 105.673 25.3437 104.714 26.5272 104.714Z" fill="url(#paint4_linear_1348_3)"/>
<path fill-rule="evenodd" clip-rule="evenodd" d="M42.8792 51.9284C44.5634 51.9284 45.9287 50.5631 45.9287 48.879V27.1207C45.9287 25.4366 44.5634 24.0713 42.8792 24.0713H21.121C19.4368 24.0713 18.0715 25.4366 18.0715 27.1207V48.879C18.0715 50.5631 19.4368 51.9284 21.121 51.9284H42.8792ZM36.8 29.3614C34.6919 29.3614 32.983 31.0703 32.983 33.1784C32.983 35.2864 34.6919 36.9953 36.8 36.9953C38.908 36.9953 40.6169 35.2864 40.6169 33.1784C40.6169 31.0703 38.908 29.3614 36.8 29.3614ZM42.8792 49.2498C43.084 49.2498 43.25 49.0837 43.25 48.8789V43.3126C42.149 43.0677 41.0228 42.9439 39.8915 42.9445C39.0807 42.9428 38.273 43.0042 37.4756 43.1273C38.7517 44.9721 39.685 47.0459 40.2165 49.2498H42.8792ZM22.0794 37.9168C21.6355 37.9159 21.1921 37.9329 20.75 37.9674V48.8789C20.75 49.0837 20.9161 49.2498 21.1209 49.2498H37.4477C36.5694 46.1749 34.7647 43.4309 32.2627 41.4023C29.3879 39.0714 25.7793 37.8363 22.0794 37.9168Z" fill="url(#paint5_linear_1348_3)"/>
<defs>
<linearGradient id="paint0_linear_1348_3" x1="103.834" y1="51.9342" x2="70.8451" y2="33.3774" gradientUnits="userSpaceOnUse">
<stop stop-color="#FF51E3"/>
<stop offset="1" stop-color="#1B4DFF"/>
</linearGradient>
<linearGradient id="paint1_linear_1348_3" x1="164.343" y1="57.8288" x2="126.767" y2="31.1374" gradientUnits="userSpaceOnUse">
<stop stop-color="#FFD600"/>
<stop offset="1" stop-color="#FF007A"/>
</linearGradient>
<linearGradient id="paint2_linear_1348_3" x1="107.6" y1="112.489" x2="70.5269" y2="82.7779" gradientUnits="userSpaceOnUse">
<stop stop-color="#FFD600"/>
<stop offset="1" stop-color="#FF007A"/>
</linearGradient>
<linearGradient id="paint3_linear_1348_3" x1="134.153" y1="81.4243" x2="168.345" y2="100.696" gradientUnits="userSpaceOnUse">
<stop stop-color="#00D078"/>
<stop offset="1" stop-color="#007DF0"/>
</linearGradient>
<linearGradient id="paint4_linear_1348_3" x1="18.1527" y1="81.4238" x2="52.3451" y2="100.696" gradientUnits="userSpaceOnUse">
<stop stop-color="#00D078"/>
<stop offset="1" stop-color="#007DF0"/>
</linearGradient>
<linearGradient id="paint5_linear_1348_3" x1="22.6251" y1="29.4284" x2="45.1246" y2="41.8946" gradientUnits="userSpaceOnUse">
<stop stop-color="#FFC700"/>
<stop offset="1" stop-color="#02BE6F"/>
</linearGradient>
</defs>
</svg>
