<svg width="179" height="133" viewBox="0 0 179 133" fill="none" xmlns="http://www.w3.org/2000/svg">
<rect width="179" height="133" fill="white"/>
<path d="M48.4133 25.2915H20V53.7048H48.4133V25.2915Z" fill="white"/>
<path d="M27.8785 48.5386L32.3988 43.5017L36.79 46.8597L42.4726 38.9814L46.4763 48.5386H27.8785Z" fill="#BBD8FF"/>
<path d="M25.8119 33.6863L24.3912 35.4944L25.8119 36.9151H36.144L38.0813 34.3321L37.823 33.6863H33.561L32.2695 31.1033H30.978L29.0407 33.6863H25.8119Z" fill="#BBD8FF"/>
<path d="M48.4133 25.2915H20V53.7048H48.4133V25.2915Z" stroke="#092F63" stroke-width="1.2992" stroke-miterlimit="10" stroke-linejoin="round"/>
<path d="M20 48.5386H48.4133" stroke="#092F63" stroke-width="1.2992" stroke-miterlimit="10" stroke-linejoin="round"/>
<path d="M46.476 48.5387L41.3099 36.2693L36.1439 44.0184L32.2693 40.7896L25.166 48.5387" stroke="#092F63" stroke-width="1.2992" stroke-miterlimit="10" stroke-linejoin="round"/>
<path d="M36.7899 31.749H34.8526L33.5611 29.166H30.3323L28.3951 31.749H25.1663L23.229 34.3321L25.812 36.9151H36.1441L38.0814 34.3321L36.7899 31.749Z" stroke="#092F63" stroke-width="1.2992" stroke-miterlimit="10" stroke-linejoin="round"/>
<path d="M105.498 28.5203L100.978 24L95.8121 29.1661H75.7937V53.7048H100.332V33.6863L105.498 28.5203Z" fill="white"/>
<path d="M91.2914 42.7269L105.498 28.5203L103.302 26.3247L84.8339 44.6642L91.2914 42.7269Z" fill="#BBD8FF"/>
<path d="M100.332 38.2066V53.7048H75.7937V29.166H90.0003" stroke="#092F63" stroke-width="1.2992" stroke-miterlimit="10" stroke-linecap="round" stroke-linejoin="round"/>
<path d="M91.2913 42.7268L86.771 38.2065" stroke="#092F63" stroke-width="1.2992" stroke-miterlimit="10" stroke-linecap="round" stroke-linejoin="round"/>
<path d="M103.561 30.4576L99.0406 25.9373" stroke="#092F63" stroke-width="1.2992" stroke-miterlimit="10" stroke-linecap="round" stroke-linejoin="round"/>
<path d="M86.7711 38.2066L100.978 24L105.498 28.5203L91.2914 42.7269L84.8339 44.6642L86.7711 38.2066Z" stroke="#092F63" stroke-width="1.2992" stroke-miterlimit="10" stroke-linecap="round" stroke-linejoin="round"/>
<path d="M78.3765 51.1218H97.7492" stroke="#BBD8FF" stroke-width="1.2992" stroke-miterlimit="10" stroke-linecap="round" stroke-linejoin="round"/>
<path d="M135.461 44.6641H132.878V48.5386H135.461L139.336 53.7047H141.919V39.498H139.336L135.461 44.6641Z" fill="white"/>
<path d="M156.126 44.6641L152.251 39.498H149.668V53.7047H152.251L156.126 48.5386H158.709V44.6641H156.126Z" fill="white"/>
<path d="M155.48 29.8118L145.794 25.2915L136.107 29.8118L137.399 33.0406L145.794 29.166L154.188 33.0406L155.48 29.8118Z" fill="white"/>
<path d="M132.878 46.6013V48.5386H135.461L139.336 53.7046H141.919V46.6013H132.878Z" fill="#BBD8FF"/>
<path d="M158.709 46.6013V48.5386H156.126L152.251 53.7046H149.668V46.6013H158.709Z" fill="#BBD8FF"/>
<path d="M136.761 31.4443L137.399 33.0406L145.793 29.166L154.188 33.0406L154.826 31.4443L145.793 27.2288L136.761 31.4443Z" fill="#BBD8FF"/>
<path d="M139.336 39.498V53.7047L135.461 48.5386V44.6641L139.336 39.498Z" stroke="#092F63" stroke-width="1.2992" stroke-linejoin="round"/>
<path d="M136.758 31.4377L131.587 33.6863L135.461 40.0676V44.6641" stroke="#092F63" stroke-width="1.2992" stroke-linejoin="round"/>
<path d="M135.461 44.6641H132.878V48.5386H135.461" stroke="#092F63" stroke-width="1.2992" stroke-linejoin="round"/>
<path d="M139.336 39.498H141.919V53.7047H139.336" stroke="#092F63" stroke-width="1.2992" stroke-linejoin="round"/>
<path d="M152.251 39.498V53.7047L156.126 48.5386V44.6641L152.251 39.498Z" stroke="#092F63" stroke-width="1.2992" stroke-linejoin="round"/>
<path d="M154.829 31.4377L160 33.6863L156.126 40.0676V44.6641" stroke="#092F63" stroke-width="1.2992" stroke-linejoin="round"/>
<path d="M156.125 44.6641H158.708V48.5386H156.125" stroke="#092F63" stroke-width="1.2992" stroke-linejoin="round"/>
<path d="M152.251 39.498H149.668V53.7047H152.251" stroke="#092F63" stroke-width="1.2992" stroke-linejoin="round"/>
<path d="M145.794 29.166L154.188 33.0406L155.48 29.8118L145.794 25.2915L136.107 29.8118L137.399 33.0406L145.794 29.166Z" stroke="#092F63" stroke-width="1.2992" stroke-linejoin="round"/>
<path d="M43.729 86.2507H20L22.583 95.9371L40.2677 98.5576L43.729 86.2507Z" fill="white"/>
<path d="M25.1659 104.332L22.5833 106.915L25.1659 109.497L27.7485 106.915L25.1659 104.332Z" fill="white"/>
<path d="M36.7894 104.332L34.2068 106.915L36.7894 109.497L39.3721 106.915L36.7894 104.332Z" fill="white"/>
<path d="M25.166 109.498L27.749 106.915L25.166 104.332V109.498Z" fill="#BBD8FF"/>
<path d="M36.7896 109.498L39.3726 106.915L36.7896 104.332V109.498Z" fill="#BBD8FF"/>
<path d="M21.8663 93.2483L22.5831 95.9372L40.2678 98.5577L40.9652 96.078L21.8663 93.2483Z" fill="#BBD8FF"/>
<path d="M23.8746 101.749H39.3728L45.1846 81.0847L49.7049 79.7932" stroke="#092F63" stroke-width="1.2992" stroke-linecap="round" stroke-linejoin="round"/>
<path d="M43.729 86.2507H20L22.583 95.9371L40.2677 98.5576" stroke="#092F63" stroke-width="1.2992" stroke-linecap="round" stroke-linejoin="round"/>
<path d="M25.1659 104.332L22.5833 106.915L25.1659 109.497L27.7485 106.915L25.1659 104.332Z" stroke="#092F63" stroke-width="1.2992" stroke-linecap="round" stroke-linejoin="round"/>
<path d="M36.7894 104.332L34.2068 106.915L36.7894 109.497L39.3721 106.915L36.7894 104.332Z" stroke="#092F63" stroke-width="1.2992" stroke-linecap="round" stroke-linejoin="round"/>
<path d="M101.624 93.9998L104.207 91.4168L101.624 88.8338H93.2291L94.5206 83.6677L92.5834 81.0847H90.6461L83.5428 94.6456H82.2513V92.7083H75.7937V109.498H82.2513V106.915H84.8343L88.7088 108.206H99.6867L102.27 106.269L100.332 103.686L102.915 101.749L100.978 99.1659L103.561 96.9057L101.624 93.9998Z" fill="white"/>
<path d="M82.2513 95.2915H75.7937V109.498H82.2513V95.2915Z" fill="#BBD8FF"/>
<path d="M82.2511 94.6456H83.5426L90.6459 81.0847H92.5832L94.5205 83.6677L93.229 88.8338H101.624L104.207 91.4168L101.624 93.9998L103.561 96.9057L100.978 99.1659L102.915 101.749L100.332 103.686L102.27 106.269L99.6865 108.206H88.7087L84.8341 106.915H82.2511" stroke="#092F63" stroke-width="1.2992" stroke-linecap="round" stroke-linejoin="round"/>
<path d="M82.2513 92.7085H75.7937V109.498H82.2513V92.7085Z" stroke="#092F63" stroke-width="1.2992" stroke-linecap="round" stroke-linejoin="round"/>
<path d="M78.3765 106.915V105.624" stroke="#092F63" stroke-width="1.2992" stroke-linecap="round" stroke-linejoin="round"/>
<path d="M158.708 102.395L145.793 109.498L132.878 102.395V88.188L145.793 81.0847L158.708 88.188V102.395Z" fill="white"/>
<path d="M155.977 100.668L145.793 106.269L135.61 100.668L132.878 102.395L145.793 109.498L158.708 102.605L155.977 100.668Z" fill="#BBD8FF"/>
<path d="M158.708 102.395L145.793 109.498L132.878 102.395V88.188L145.793 81.0847L158.708 88.188V102.395Z" stroke="#092F63" stroke-width="1.2992" stroke-linecap="round" stroke-linejoin="round"/>
<path d="M149.669 93.354L145.794 95.2913L141.919 93.354V88.8338L145.794 86.8965L149.669 88.8338V93.354Z" stroke="#092F63" stroke-width="1.2992" stroke-linecap="round" stroke-linejoin="round"/>
<path d="M152.251 101.749V98.5203L145.794 96.583L139.336 98.5203V101.749" stroke="#092F63" stroke-width="1.2992" stroke-linecap="round" stroke-linejoin="round"/>
<path d="M145.794 99.166V101.749" stroke="#092F63" stroke-width="1.2992" stroke-linecap="round" stroke-linejoin="round"/>
<path d="M149.669 90.1253H145.148L141.919 88.8338L145.794 86.8965L149.669 88.8338V90.1253Z" fill="#BBD8FF"/>
<path d="M149.669 90.1253H145.148L141.919 88.8338L145.794 86.8965L149.669 88.8338V90.1253Z" stroke="#092F63" stroke-width="1.2992" stroke-linejoin="round"/>
</svg>
