<svg width="179" height="133" viewBox="0 0 179 133" fill="none" xmlns="http://www.w3.org/2000/svg">
<rect width="179" height="133" fill="white"/>
<g clip-path="url(#clip0_1529_38)">
<path fill-rule="evenodd" clip-rule="evenodd" d="M130.741 83.3101H161.224V106.172H130.741V83.3101Z" fill="#F7FCFF"/>
<path fill-rule="evenodd" clip-rule="evenodd" d="M130.741 97.2812V99.1864H161.224V97.2812H130.741Z" fill="#E31D1C"/>
<path fill-rule="evenodd" clip-rule="evenodd" d="M130.741 100.774V102.68H161.224V100.774H130.741Z" fill="#E31D1C"/>
<path fill-rule="evenodd" clip-rule="evenodd" d="M130.741 90.2959V92.2011H161.224V90.2959H130.741Z" fill="#E31D1C"/>
<path fill-rule="evenodd" clip-rule="evenodd" d="M130.741 104.267V106.172H161.224V104.267H130.741Z" fill="#E31D1C"/>
<path fill-rule="evenodd" clip-rule="evenodd" d="M130.741 93.7886V95.6937H161.224V93.7886H130.741Z" fill="#E31D1C"/>
<path fill-rule="evenodd" clip-rule="evenodd" d="M130.741 83.3101V85.2152H161.224V83.3101H130.741Z" fill="#E31D1C"/>
<path fill-rule="evenodd" clip-rule="evenodd" d="M130.741 86.8027V88.7079H161.224V86.8027H130.741Z" fill="#E31D1C"/>
<rect x="130.741" y="83.3101" width="19.0516" height="12.3836" fill="#2E42A5"/>
<path fill-rule="evenodd" clip-rule="evenodd" d="M136.192 86.1096L135.501 86.5943L135.734 85.7317L135.12 85.185H135.922L136.191 84.481L136.506 85.185H137.19L136.653 85.7317L136.861 86.5943L136.192 86.1096ZM132.382 86.1097L131.69 86.5944L131.924 85.7318L131.309 85.1851H132.112L132.381 84.4811L132.696 85.1851H133.38L132.843 85.7318L133.051 86.5944L132.382 86.1097ZM139.311 86.5943L140.002 86.1096L140.671 86.5943L140.463 85.7317L141.001 85.185H140.317L140.001 84.481L139.732 85.185H138.93L139.544 85.7317L139.311 86.5943ZM143.813 86.1096L143.121 86.5943L143.355 85.7317L142.74 85.185H143.543L143.812 84.481L144.127 85.185H144.811L144.274 85.7317L144.482 86.5943L143.813 86.1096ZM131.69 90.4047L132.382 89.9199L133.051 90.4047L132.843 89.542L133.38 88.9953H132.696L132.381 88.2913L132.112 88.9953H131.309L131.924 89.542L131.69 90.4047ZM136.192 89.9199L135.501 90.4047L135.734 89.542L135.12 88.9953H135.922L136.191 88.2913L136.506 88.9953H137.19L136.653 89.542L136.861 90.4047L136.192 89.9199ZM139.311 90.4047L140.002 89.9199L140.671 90.4047L140.463 89.542L141.001 88.9953H140.317L140.001 88.2913L139.732 88.9953H138.93L139.544 89.542L139.311 90.4047ZM143.813 89.9199L143.121 90.4047L143.355 89.542L142.74 88.9953H143.543L143.812 88.2913L144.127 88.9953H144.811L144.274 89.542L144.482 90.4047L143.813 89.9199ZM131.69 94.215L132.382 93.7302L133.051 94.215L132.843 93.3523L133.38 92.8056H132.696L132.381 92.1016L132.112 92.8056H131.309L131.924 93.3523L131.69 94.215ZM136.192 93.7302L135.501 94.215L135.734 93.3523L135.12 92.8056H135.922L136.191 92.1016L136.506 92.8056H137.19L136.653 93.3523L136.861 94.215L136.192 93.7302ZM139.311 94.215L140.002 93.7302L140.671 94.215L140.463 93.3523L141.001 92.8056H140.317L140.001 92.1016L139.732 92.8056H138.93L139.544 93.3523L139.311 94.215ZM143.813 93.7302L143.121 94.215L143.355 93.3523L142.74 92.8056H143.543L143.812 92.1016L144.127 92.8056H144.811L144.274 93.3523L144.482 94.215L143.813 93.7302ZM146.931 86.5943L147.623 86.1096L148.292 86.5943L148.084 85.7317L148.621 85.185H147.937L147.622 84.481L147.353 85.185H146.551L147.165 85.7317L146.931 86.5943ZM147.623 89.9199L146.931 90.4047L147.165 89.542L146.551 88.9953H147.353L147.622 88.2913L147.937 88.9953H148.621L148.084 89.542L148.292 90.4047L147.623 89.9199ZM146.931 94.215L147.623 93.7302L148.292 94.215L148.084 93.3523L148.621 92.8056H147.937L147.622 92.1016L147.353 92.8056H146.551L147.165 93.3523L146.931 94.215ZM134.287 88.0148L133.595 88.4995L133.829 87.6368L133.215 87.0901H134.017L134.286 86.3861L134.601 87.0901H135.285L134.748 87.6368L134.956 88.4995L134.287 88.0148ZM137.406 88.4995L138.097 88.0148L138.766 88.4995L138.558 87.6368L139.095 87.0901H138.412L138.096 86.3861L137.827 87.0901H137.025L137.639 87.6368L137.406 88.4995ZM141.907 88.0148L141.216 88.4995L141.449 87.6368L140.835 87.0901H141.637L141.906 86.3861L142.222 87.0901H142.906L142.368 87.6368L142.576 88.4995L141.907 88.0148ZM133.595 92.3098L134.287 91.8251L134.956 92.3098L134.748 91.4472L135.285 90.9005H134.601L134.286 90.1964L134.017 90.9005H133.215L133.829 91.4472L133.595 92.3098ZM138.097 91.8251L137.406 92.3098L137.639 91.4472L137.025 90.9005H137.827L138.096 90.1964L138.412 90.9005H139.095L138.558 91.4472L138.766 92.3098L138.097 91.8251ZM141.216 92.3098L141.907 91.8251L142.576 92.3098L142.368 91.4472L142.906 90.9005H142.222L141.906 90.1964L141.637 90.9005H140.835L141.449 91.4472L141.216 92.3098ZM145.718 88.0148L145.026 88.4995L145.26 87.6368L144.646 87.0901H145.448L145.717 86.3861L146.032 87.0901H146.716L146.179 87.6368L146.387 88.4995L145.718 88.0148ZM145.026 92.3098L145.718 91.8251L146.387 92.3098L146.179 91.4472L146.716 90.9005H146.032L145.717 90.1964L145.448 90.9005H144.646L145.26 91.4472L145.026 92.3098Z" fill="#F7FCFF"/>
</g>
<g clip-path="url(#clip1_1529_38)">
<rect x="17.776" y="83.3101" width="30.4826" height="22.862" fill="#B61C49"/>
<path fill-rule="evenodd" clip-rule="evenodd" d="M17.776 83.3101H24.2535L29.207 85.2152L24.2535 87.1204L29.207 89.0255L24.2535 90.9307L29.207 92.8359L24.2535 94.741L29.207 96.6462L24.2535 98.5514L29.207 100.457L24.2535 102.362L29.207 104.267L24.2535 106.172H17.776V83.3101Z" fill="#F7FCFF"/>
</g>
<g clip-path="url(#clip2_1529_38)">
<path fill-rule="evenodd" clip-rule="evenodd" d="M130.741 26.8281H161.224V49.6901H130.741V26.8281Z" fill="#F7FCFF"/>
<path fill-rule="evenodd" clip-rule="evenodd" d="M150.746 26.8281H161.224V49.6901H150.746V26.8281Z" fill="#009933"/>
<path fill-rule="evenodd" clip-rule="evenodd" d="M130.741 26.8281H141.22V49.6901H130.741V26.8281Z" fill="#009933"/>
</g>
<g clip-path="url(#clip3_1529_38)">
<path fill-rule="evenodd" clip-rule="evenodd" d="M95.2152 83.3101H104.741V106.172H95.2152V83.3101Z" fill="#C51918"/>
<path fill-rule="evenodd" clip-rule="evenodd" d="M74.2585 83.3101H85.6895V106.172H74.2585V83.3101Z" fill="#5EAA22"/>
<path fill-rule="evenodd" clip-rule="evenodd" d="M83.7843 83.3101H95.2153V106.172H83.7843V83.3101Z" fill="white"/>
</g>
<g clip-path="url(#clip4_1529_38)">
<path fill-rule="evenodd" clip-rule="evenodd" d="M17.776 26.8281V49.6901H48.2586V26.8281H17.776Z" fill="#2E42A5"/>
<mask id="mask0_1529_38" style="mask-type:luminance" maskUnits="userSpaceOnUse" x="17" y="26" width="32" height="24">
<path fill-rule="evenodd" clip-rule="evenodd" d="M17.776 26.8281V49.6901H48.2586V26.8281H17.776Z" fill="white"/>
</mask>
<g mask="url(#mask0_1529_38)">
<path d="M14.3817 48.0557L21.0895 50.8926L48.4107 29.9114L51.9489 25.6957L44.7759 24.7476L33.6322 33.789L24.6627 39.8808L14.3817 48.0557Z" fill="white"/>
<path d="M15.3 50.0437L18.7174 51.6899L50.6784 25.3044H45.8801L15.3 50.0437Z" fill="#F50100"/>
<path d="M51.6528 48.0557L44.945 50.8926L17.6238 29.9114L14.0856 25.6957L21.2586 24.7476L32.4023 33.789L41.3718 39.8808L51.6528 48.0557Z" fill="white"/>
<path d="M51.424 49.4822L48.0066 51.1284L34.3973 39.8314L30.3624 38.5692L13.7452 25.7101H18.5435L35.1514 38.264L39.5628 39.7775L51.424 49.4822Z" fill="#F50100"/>
<mask id="path-25-inside-1_1529_38" fill="white">
<path fill-rule="evenodd" clip-rule="evenodd" d="M36.6159 24.9224H29.4186V34.4482H15.897V42.0688H29.4186V51.5946H36.6159V42.0688H50.1899V34.4482H36.6159V24.9224Z"/>
</mask>
<path fill-rule="evenodd" clip-rule="evenodd" d="M36.6159 24.9224H29.4186V34.4482H15.897V42.0688H29.4186V51.5946H36.6159V42.0688H50.1899V34.4482H36.6159V24.9224Z" fill="#F50100"/>
<path d="M29.4186 24.9224V23.0172H27.5134V24.9224H29.4186ZM36.6159 24.9224H38.521V23.0172H36.6159V24.9224ZM29.4186 34.4482V36.3533H31.3237V34.4482H29.4186ZM15.897 34.4482V32.543H13.9918V34.4482H15.897ZM15.897 42.0688H13.9918V43.974H15.897V42.0688ZM29.4186 42.0688H31.3237V40.1637H29.4186V42.0688ZM29.4186 51.5946H27.5134V53.4998H29.4186V51.5946ZM36.6159 51.5946V53.4998H38.521V51.5946H36.6159ZM36.6159 42.0688V40.1637H34.7107V42.0688H36.6159ZM50.1899 42.0688V43.974H52.0951V42.0688H50.1899ZM50.1899 34.4482H52.0951V32.543H50.1899V34.4482ZM36.6159 34.4482H34.7107V36.3533H36.6159V34.4482ZM29.4186 26.8275H36.6159V23.0172H29.4186V26.8275ZM31.3237 34.4482V24.9224H27.5134V34.4482H31.3237ZM15.897 36.3533H29.4186V32.543H15.897V36.3533ZM17.8021 42.0688V34.4482H13.9918V42.0688H17.8021ZM29.4186 40.1637H15.897V43.974H29.4186V40.1637ZM31.3237 51.5946V42.0688H27.5134V51.5946H31.3237ZM36.6159 49.6895H29.4186V53.4998H36.6159V49.6895ZM34.7107 42.0688V51.5946H38.521V42.0688H34.7107ZM50.1899 40.1637H36.6159V43.974H50.1899V40.1637ZM48.2847 34.4482V42.0688H52.0951V34.4482H48.2847ZM36.6159 36.3533H50.1899V32.543H36.6159V36.3533ZM34.7107 24.9224V34.4482H38.521V24.9224H34.7107Z" fill="white" mask="url(#path-25-inside-1_1529_38)"/>
</g>
</g>
<g clip-path="url(#clip5_1529_38)">
<path fill-rule="evenodd" clip-rule="evenodd" d="M83.7843 26.8281H94.2627V49.6901H83.7843V26.8281Z" fill="#FECA00"/>
<path fill-rule="evenodd" clip-rule="evenodd" d="M94.2627 26.8281H104.741V49.6901H94.2627V26.8281Z" fill="#E31D1C"/>
<path fill-rule="evenodd" clip-rule="evenodd" d="M74.2585 26.8281H84.7369V49.6901H74.2585V26.8281Z" fill="#1D1D1D"/>
</g>
<defs>
<clipPath id="clip0_1529_38">
<rect width="30.4826" height="30.4826" fill="white" transform="translate(130.741 79.5)"/>
</clipPath>
<clipPath id="clip1_1529_38">
<rect width="30.4826" height="30.4826" fill="white" transform="translate(17.776 79.5)"/>
</clipPath>
<clipPath id="clip2_1529_38">
<rect width="30.4826" height="30.4826" fill="white" transform="translate(130.741 23.0176)"/>
</clipPath>
<clipPath id="clip3_1529_38">
<rect width="30.4826" height="30.4826" fill="white" transform="translate(74.2587 79.5)"/>
</clipPath>
<clipPath id="clip4_1529_38">
<rect width="30.4826" height="30.4826" fill="white" transform="translate(17.776 23.0176)"/>
</clipPath>
<clipPath id="clip5_1529_38">
<rect width="30.4826" height="30.4826" fill="white" transform="translate(74.2587 23.0176)"/>
</clipPath>
</defs>
</svg>
