<svg width="179" height="133" viewBox="0 0 179 133" fill="none" xmlns="http://www.w3.org/2000/svg">
<rect width="179" height="133" fill="white"/>
<path fill-rule="evenodd" clip-rule="evenodd" d="M33.4974 23.7651C31.0366 23.7651 28.6351 23.9901 26.3339 24.2466C22.7508 24.646 19.8719 27.5225 19.4878 31.112C19.2429 33.4015 19.032 35.7868 19.032 38.2306C19.032 40.6744 19.2429 43.0597 19.4878 45.3491C19.7758 48.0413 21.4673 50.3323 23.8066 51.4781C23.904 51.5258 24.0026 51.5716 24.1023 51.6153C24.3319 51.716 24.5672 51.8059 24.8075 51.8842C25.2974 52.044 25.8081 52.156 26.334 52.2146C28.6353 52.4711 31.0367 52.6961 33.4976 52.6961C35.9585 52.6961 38.3599 52.4711 40.6611 52.2146C44.2442 51.8152 47.1232 48.9387 47.5072 45.3492C47.7521 43.0598 47.963 40.6745 47.963 38.2306C47.963 35.7868 47.7521 33.4015 47.5072 31.1121C47.2201 28.4287 45.5387 26.1437 43.2111 24.9943L43.1883 24.9831C42.8959 24.8399 42.5933 24.7145 42.2822 24.6086C41.7635 24.4319 41.2209 24.309 40.661 24.2466C38.3597 23.9901 35.9583 23.7651 33.4974 23.7651ZM38.1814 28.7212C37.0245 28.7212 35.9694 29.0499 35.2045 29.8148C34.4396 30.5796 34.1109 31.6348 34.1109 32.7917C34.1109 33.9486 34.4396 35.0037 35.2045 35.7686C35.9694 36.5335 37.0245 36.8622 38.1814 36.8622C39.3383 36.8622 40.3934 36.5335 41.1583 35.7686C41.9232 35.0037 42.2519 33.9486 42.2519 32.7917C42.2519 31.6348 41.9232 30.5796 41.1583 29.8148C40.3934 29.0499 39.3383 28.7212 38.1814 28.7212ZM26.6989 38.2305C31.1167 38.2305 34.8166 44.7039 36.8547 49.3491C35.7376 49.4308 34.62 49.4814 33.4978 49.4814C31.2213 49.4814 28.9639 49.2731 26.6903 49.0197C24.5986 48.7865 22.9073 47.0899 22.6845 45.0071C22.517 43.442 22.3715 41.8814 22.2979 40.3155C23.6457 39.0502 25.1268 38.2305 26.6989 38.2305ZM38.9856 41.7799C40.9387 41.7799 42.7515 42.9821 44.3424 44.7124L44.3111 45.0071C44.0883 47.0899 42.397 48.7865 40.3053 49.0197C40.0895 49.0437 39.8739 49.0674 39.6585 49.0905C38.8513 47.1618 37.7306 44.8106 36.3549 42.6386L36.287 42.5319C37.1484 42.0552 38.0509 41.7799 38.9856 41.7799Z" fill="url(#paint0_linear_1343_3)"/>
<path fill-rule="evenodd" clip-rule="evenodd" d="M102.615 24.9093C104.823 26.8602 105.141 30.067 103.317 31.9844L94.8108 40.9248C94.6979 41.0434 94.5557 41.1313 94.3953 41.1817L89.1149 42.8399C87.4475 43.3635 85.668 41.7491 86.0309 40.0439L87.1591 34.7436C87.1944 34.5776 87.27 34.4264 87.3795 34.3022L95.6146 24.9684C97.3243 23.0306 100.458 23.0042 102.615 24.9093ZM85.2857 32.4555L89.9885 27.1252C89.2437 27.085 88.4913 27.0615 87.7329 27.0615C85.0985 27.0615 82.5352 27.3455 80.116 27.625C77.4571 27.9323 75.3327 30.0507 75.035 32.7128C74.7658 35.1205 74.4988 37.6655 74.4988 40.2811C74.4988 42.8967 74.7658 45.4416 75.035 47.8493C75.3327 50.5114 77.4571 52.6299 80.116 52.9371C82.5352 53.2166 85.0985 53.5006 87.7329 53.5006C90.3673 53.5006 92.9306 53.2166 95.3498 52.9371C98.0087 52.6299 100.133 50.5114 100.431 47.8493C100.7 45.4416 100.967 42.8967 100.967 40.2811C100.967 39.6982 100.954 39.1189 100.93 38.5438L96.8376 42.8454C96.3895 43.3163 95.8353 43.6535 95.235 43.842L89.9546 45.5002C88.0087 46.1113 86.1405 45.4346 84.9358 44.3421C83.7312 43.2498 82.8759 41.4566 83.3004 39.4619L84.4286 34.1616C84.5612 33.5386 84.8504 32.9489 85.2857 32.4555Z" fill="url(#paint1_linear_1343_3)"/>
<path fill-rule="evenodd" clip-rule="evenodd" d="M131.557 44.0768C131.559 44.1049 131.562 44.1328 131.566 44.1604C131.599 44.6283 131.639 45.1029 131.688 45.5822C131.808 46.7459 131.979 47.8708 132.152 48.9356L132.152 48.9384C132.37 50.2663 132.89 51.4589 133.945 52.2136C134.971 52.9483 136.191 53.0396 137.307 52.918C138.424 52.7963 139.598 52.4444 140.452 51.5049C141.33 50.5398 141.595 49.2615 141.537 47.9159L141.537 47.9114C141.488 46.8344 141.426 45.6982 141.306 44.5344C141.186 43.3707 141.015 42.2457 140.842 41.181L140.842 41.1782C140.624 39.8502 140.104 38.6576 139.05 37.9029C138.023 37.1682 136.804 37.0769 135.687 37.1986C135.209 37.2506 134.721 37.3449 134.252 37.5093C134.272 32.3329 138.35 27.2487 145.502 27.2487C152.653 27.2487 156.731 32.3323 156.752 37.5085C156.283 37.3444 155.795 37.2503 155.318 37.1983C154.201 37.0767 152.981 37.168 151.955 37.9027C150.901 38.6574 150.38 39.85 150.163 41.178L150.162 41.1807C149.99 42.2455 149.819 43.3704 149.699 44.5341C149.579 45.6979 149.517 46.8342 149.468 47.9111L149.468 47.9157C149.41 49.2612 149.675 50.5396 150.553 51.5047C151.406 52.4441 152.581 52.7961 153.697 52.9177C154.814 53.0394 156.034 52.9481 157.06 52.2134C158.115 51.4587 158.635 50.2661 158.852 48.9381L158.853 48.9353C159.025 47.8706 159.197 46.7456 159.317 45.582C159.367 45.0946 159.407 44.6121 159.44 44.1366C159.443 44.1168 159.445 44.0969 159.446 44.0768L159.923 38.6131L159.923 38.6131L159.924 38.6031C160.514 31.3033 154.937 24.0342 145.502 24.0342C136.067 24.0342 130.489 31.3032 131.08 38.6031L131.08 38.6031L131.08 38.6131L131.557 44.0768Z" fill="url(#paint2_linear_1343_3)"/>
<path fill-rule="evenodd" clip-rule="evenodd" d="M21.8709 79.5C24.6055 79.5 26.9808 81.3811 27.6074 84.0429L27.7992 84.8576H45.3665C47.1158 84.8576 48.6555 86.2928 48.4866 88.1657C48.3299 89.9017 48.0097 92.1157 47.6303 94.1277C47.2572 96.1064 46.8061 98.0047 46.3633 99.0434C45.8898 100.154 44.9672 101.048 43.7222 101.37C42.5064 101.684 40.4899 102.002 37.2949 102.002C34.0999 102.002 32.0834 101.684 30.8676 101.37C29.6188 101.047 28.6936 100.144 28.2404 99.01C27.5985 97.4043 26.6037 93.8677 25.8269 90.4981C25.819 90.4711 25.8118 90.4437 25.8053 90.416L24.4784 84.7795C24.1936 83.5696 23.1139 82.7145 21.8709 82.7145H20.1036C19.2159 82.7145 18.4963 81.9949 18.4963 81.1073C18.4963 80.2196 19.2159 79.5 20.1036 79.5H21.8709ZM27.6168 106.568C27.6168 104.948 28.9304 103.634 30.5509 103.634C32.1713 103.634 33.485 104.948 33.485 106.568C33.485 108.189 32.1713 109.502 30.5509 109.502C28.9304 109.502 27.6168 108.189 27.6168 106.568ZM41.0109 106.568C41.0109 104.948 42.3245 103.634 43.945 103.634C45.5655 103.634 46.8791 104.948 46.8791 106.568C46.8791 108.189 45.5655 109.502 43.945 109.502C42.3245 109.502 41.0109 108.189 41.0109 106.568Z" fill="url(#paint3_linear_1343_3)"/>
<path fill-rule="evenodd" clip-rule="evenodd" d="M88.694 81.3847L83.0842 90.0538C83.1218 90.3174 83.1413 90.5869 83.1413 90.8609V105.554C86.0499 106.415 91.2017 107.895 96.314 107.895C100.821 107.895 104.501 98.2028 104.501 93.9653C104.501 89.7279 100.264 87.6092 98.145 87.6092H93.8793L94.4333 83.6486C94.7003 81.7398 93.218 80.0356 91.2906 80.0356C90.257 80.0356 89.2882 80.539 88.694 81.3847ZM80.4624 90.8611V105.985C80.4624 107.632 79.1274 108.967 77.4806 108.967C75.8338 108.967 74.4988 107.632 74.4988 105.985V90.8611C74.4988 89.2143 75.8338 87.8793 77.4806 87.8793C79.1274 87.8793 80.4624 89.2143 80.4624 90.8611Z" fill="url(#paint4_linear_1343_3)"/>
<path fill-rule="evenodd" clip-rule="evenodd" d="M136.953 107.533V107.534C132.76 105.163 130.501 100.71 130.501 94.5012C130.501 84.9004 135.902 79.5 145.502 79.5C155.103 79.5 160.504 84.9004 160.504 94.5012C160.504 101.102 157.951 105.717 153.236 107.957C152.358 108.374 151.406 108.708 150.381 108.958C148.903 109.318 147.274 109.502 145.503 109.502C142.111 109.502 139.244 108.828 136.953 107.533ZM153.295 104.207C152.75 103.19 152.006 102.283 151.1 101.542C149.52 100.251 147.543 99.5456 145.502 99.5456C143.462 99.5456 141.484 100.251 139.904 101.542C138.998 102.283 138.255 103.19 137.709 104.206C139.493 105.489 142.03 106.288 145.503 106.288C148.975 106.288 151.512 105.489 153.295 104.207ZM150.549 90.7911C150.549 94.0222 148.732 95.8396 145.501 95.8396C142.27 95.8396 140.452 94.0222 140.452 90.7911C140.452 87.5601 142.27 85.7426 145.501 85.7426C148.732 85.7426 150.549 87.5601 150.549 90.7911Z" fill="url(#paint5_linear_1343_3)"/>
<defs>
<linearGradient id="paint0_linear_1343_3" x1="23.7611" y1="29.3288" x2="47.1278" y2="42.2754" gradientUnits="userSpaceOnUse">
<stop stop-color="#FFC700"/>
<stop offset="1" stop-color="#02BE6F"/>
</linearGradient>
<linearGradient id="paint1_linear_1343_3" x1="104.4" y1="53.507" x2="68.87" y2="33.5206" gradientUnits="userSpaceOnUse">
<stop stop-color="#FF51E3"/>
<stop offset="1" stop-color="#1B4DFF"/>
</linearGradient>
<linearGradient id="paint2_linear_1343_3" x1="162.474" y1="59.09" x2="123.453" y2="31.3707" gradientUnits="userSpaceOnUse">
<stop stop-color="#FFD600"/>
<stop offset="1" stop-color="#FF007A"/>
</linearGradient>
<linearGradient id="paint3_linear_1343_3" x1="19.6492" y1="81.9245" x2="53.8443" y2="101.198" gradientUnits="userSpaceOnUse">
<stop stop-color="#00D078"/>
<stop offset="1" stop-color="#007DF0"/>
</linearGradient>
<linearGradient id="paint4_linear_1343_3" x1="107.101" y1="115.095" x2="67.631" y2="86.0187" gradientUnits="userSpaceOnUse">
<stop stop-color="#FFD600"/>
<stop offset="1" stop-color="#FF007A"/>
</linearGradient>
<linearGradient id="paint5_linear_1343_3" x1="131.654" y1="81.9245" x2="165.849" y2="101.197" gradientUnits="userSpaceOnUse">
<stop stop-color="#00D078"/>
<stop offset="1" stop-color="#007DF0"/>
</linearGradient>
</defs>
</svg>
