<svg width="180" height="133" viewBox="0 0 180 133" fill="none" xmlns="http://www.w3.org/2000/svg">
<rect width="179" height="133" transform="translate(0.5)" fill="white"/>
<g clip-path="url(#clip0_1545_3)">
<path d="M20.7158 45.1438C21.0487 48.2738 23.5675 50.7927 26.6958 51.1394C28.9388 51.3881 31.2405 51.5993 33.5865 51.5993C35.9325 51.5993 38.2342 51.3881 40.4772 51.1394C43.6054 50.7927 46.1243 48.2738 46.4571 45.1438C46.6944 42.9138 46.8925 40.6255 46.8925 38.2933C46.8925 35.9611 46.6944 33.6728 46.4571 31.4428C46.1243 28.3129 43.6054 25.7939 40.4772 25.4471C38.2342 25.1985 35.9325 24.9873 33.5865 24.9873C31.2405 24.9873 28.9388 25.1985 26.6958 25.4471C23.5675 25.7939 21.0487 28.3129 20.7158 31.4428C20.4786 33.6728 20.2805 35.9611 20.2805 38.2933C20.2805 40.6255 20.4786 42.9138 20.7158 45.1438Z" fill="#FFD646"/>
<path fill-rule="evenodd" clip-rule="evenodd" d="M26.8453 26.7964C29.0755 26.5492 31.3172 26.3449 33.5863 26.3449C35.8555 26.3449 38.0972 26.5492 40.3273 26.7964C42.8252 27.0733 44.8418 29.0933 45.1068 31.5862C45.3425 33.8023 45.5346 36.0338 45.5346 38.2931C45.5346 40.1063 45.411 41.9016 45.2402 43.6854C44.7401 43.1525 44.2125 42.6608 43.6589 42.2306C42.3316 41.1992 40.7742 40.4614 39.0381 40.4614C38.3395 40.4614 37.6698 40.5805 37.0317 40.7908L37.1404 40.9453C39.1863 43.8723 40.7149 47.2189 41.5984 49.4871C41.1943 49.6377 40.7683 49.7411 40.3273 49.7899C39.8382 49.844 39.3484 49.8962 38.8579 49.9446C38.0012 47.832 36.6464 44.9787 34.9146 42.501C33.9074 41.0602 32.7372 39.6946 31.4191 38.6782C30.0995 37.6608 28.5536 36.9354 26.8322 36.9354C24.8729 36.9354 23.1328 37.8671 21.6475 39.1716C21.6414 38.8792 21.6381 38.5864 21.6381 38.2931C21.6381 36.0338 21.8301 33.8023 22.0658 31.5862C22.3309 29.0933 24.3476 27.0733 26.8453 26.7964ZM19.3724 45.3502C19.37 45.3293 19.3677 45.3083 19.3655 45.2872C19.1268 43.0432 18.9226 40.6982 18.9226 38.2931C18.9226 35.8881 19.1268 33.5431 19.3655 31.299C19.7661 27.5321 22.7871 24.5142 26.5461 24.0975C28.8018 23.8474 31.1635 23.6294 33.5863 23.6294C36.0092 23.6294 38.3709 23.8474 40.6267 24.0975C44.3856 24.5142 47.4065 27.5321 47.8071 31.299C48.0459 33.5431 48.2501 35.8881 48.2501 38.2931C48.2501 40.6982 48.0459 43.0432 47.8071 45.2872C47.7402 45.9178 47.5997 46.5274 47.3946 47.1072C47.3798 47.1922 47.357 47.2765 47.3257 47.3586C46.425 49.7248 44.4212 51.5672 41.9486 52.2445C41.9497 52.2389 41.951 52.2332 41.9521 52.2276C41.5232 52.3503 41.0803 52.4385 40.6267 52.4887C39.7934 52.5813 38.9457 52.6692 38.0858 52.7433C38.0846 52.7435 38.0834 52.7435 38.0823 52.7438C37.9249 52.7572 37.7671 52.7705 37.6089 52.7831C36.6193 52.8619 35.6143 52.9204 34.5972 52.9447C34.4118 52.9491 34.2261 52.9523 34.0399 52.9543C33.8891 52.956 33.738 52.9569 33.5866 52.9569C33.5867 52.9569 33.5865 52.9569 33.5866 52.9569C32.678 52.9569 31.7778 52.9262 30.8888 52.8748C29.4071 52.7889 27.9559 52.6451 26.5461 52.4887C26.5392 52.4881 26.5323 52.4872 26.5254 52.4865C26.4961 52.4833 26.4668 52.48 26.4376 52.4768C22.742 52.0649 19.7736 49.0996 19.3774 45.396C19.3757 45.3808 19.3741 45.3656 19.3724 45.3502ZM35.6508 30.3009C36.2865 29.6652 37.1862 29.3672 38.2395 29.3672C39.2928 29.3672 40.1924 29.6652 40.8283 30.3009C41.4639 30.9367 41.762 31.8363 41.762 32.8896C41.762 33.943 41.4639 34.8426 40.8283 35.4783C40.1924 36.1141 39.2928 36.412 38.2395 36.412C37.1862 36.412 36.2865 36.1141 35.6508 35.4783C35.015 34.8426 34.7171 33.943 34.7171 32.8896C34.7171 31.8363 35.015 30.9367 35.6508 30.3009Z" fill="#120F99"/>
</g>
<g clip-path="url(#clip1_1545_3)">
<path fill-rule="evenodd" clip-rule="evenodd" d="M85.0693 44.5762C84.0439 43.6469 83.2567 42.0667 83.642 40.2574L84.8804 34.4419C84.9972 33.8935 85.2535 33.3845 85.6246 32.9641L89.9684 28.0432C89.3953 28.018 88.819 28.0039 88.2397 28.0039C85.6839 28.0039 83.186 28.2793 80.7686 28.5585C78.6292 28.8056 76.9183 30.5129 76.6792 32.6498C76.4105 35.0519 76.1511 37.5339 76.1511 40.0732C76.1511 42.6126 76.4105 45.0946 76.6792 47.4966C76.9183 49.6334 78.6292 51.3409 80.7686 51.5879C83.186 51.8671 85.6839 52.1425 88.2397 52.1425C90.7955 52.1425 93.2935 51.8671 95.7109 51.5879C97.8502 51.3409 99.5612 49.6334 99.8002 47.4966C100.069 45.0946 100.328 42.6126 100.328 40.0732C100.328 39.74 100.324 39.4078 100.315 39.0766L96.6786 42.8974C96.2977 43.2976 95.8213 43.5943 95.2941 43.7598L89.4976 45.5793C87.7401 46.1308 86.0951 45.5058 85.0693 44.5762Z" fill="#56E1FF"/>
<path fill-rule="evenodd" clip-rule="evenodd" d="M96.7008 24.5198C98.3881 22.6082 101.403 22.6419 103.419 24.422C105.482 26.2441 105.851 29.3224 104.049 31.2155L94.712 41.0249C94.6485 41.0916 94.5691 41.1411 94.4812 41.1687L88.6847 42.9881C88.0113 43.1994 87.343 42.9715 86.8932 42.5639C86.4434 42.1563 86.1512 41.5133 86.2982 40.8228L87.5367 35.0072C87.5562 34.9158 87.5989 34.831 87.6607 34.7609L96.7008 24.5198ZM88.7827 26.6458C86.148 26.6458 83.0456 26.9283 80.6127 27.2093C77.8494 27.5285 75.6396 29.7286 75.3297 32.4985C75.0611 34.8991 74.7932 37.4493 74.7932 40.0728C74.7932 42.6963 75.0611 45.2465 75.3297 47.6472C75.6396 50.417 77.8494 52.6172 80.6127 52.9364C83.0255 53.2151 85.5957 53.4999 88.2396 53.4999C90.8835 53.4999 93.4537 53.2151 95.8665 52.9364C98.6297 52.6172 100.839 50.417 101.149 47.6472C101.392 45.4778 101.629 42.6784 101.677 40.3621C101.693 39.6124 101.097 38.9921 100.348 38.9766C99.598 38.9612 98.9777 39.5564 98.9623 40.3061C98.9169 42.5088 98.6886 45.2189 98.4507 47.3452C98.2826 48.8492 97.0704 50.0638 95.5549 50.2387C93.1329 50.5185 90.7073 50.7844 88.2396 50.7844C85.7719 50.7844 83.3462 50.5185 80.9242 50.2387C79.4087 50.0638 78.1967 48.8492 78.0284 47.3452C77.7595 44.9417 77.5087 42.528 77.5087 40.0728C77.5087 37.6177 77.7595 35.204 78.0284 32.8004C78.1967 31.2964 79.4087 30.0819 80.9242 29.9069C83.3261 29.6295 86.3058 29.3613 88.7827 29.3613C89.5326 29.3613 90.1404 28.7534 90.1404 28.0035C90.1404 27.2536 89.5326 26.6458 88.7827 26.6458Z" fill="#120F99"/>
</g>
<g clip-path="url(#clip2_1545_3)">
<path d="M142.483 44.3358C142.354 43.0978 142.166 41.8993 141.975 40.759L141.975 40.7566C141.742 39.3783 141.182 38.2194 140.11 37.5067C139.075 36.818 137.823 36.7242 136.602 36.856C135.38 36.9877 134.175 37.3467 133.305 38.2408C132.404 39.1662 132.095 40.4189 132.151 41.8163L132.151 41.8188C132.2 42.9754 132.263 44.1863 132.391 45.4243C132.52 46.6623 132.708 47.8609 132.899 49.0012L132.899 49.0035C133.133 50.3819 133.692 51.5407 134.764 52.2535C135.799 52.9421 137.051 53.036 138.273 52.9043C139.494 52.7725 140.699 52.4136 141.57 51.5196C142.471 50.5942 142.779 49.3416 142.724 47.9438L142.724 47.9399C142.674 46.7851 142.612 45.574 142.483 44.3358Z" fill="#58E47F"/>
<path d="M150.344 44.3358C150.473 43.0978 150.661 41.8993 150.852 40.759L150.852 40.7566C151.085 39.3783 151.645 38.2194 152.716 37.5067C153.751 36.818 155.004 36.7242 156.225 36.856C157.446 36.9877 158.652 37.3467 159.522 38.2408C160.423 39.1662 160.731 40.4189 160.676 41.8163V41.8188C160.627 42.9754 160.564 44.1863 160.435 45.4243C160.306 46.6623 160.119 47.8609 159.928 49.0012L159.927 49.0035C159.694 50.3819 159.134 51.5407 158.063 52.2535C157.028 52.9421 155.775 53.036 154.554 52.9043C153.333 52.7725 152.127 52.4136 151.257 51.5196C150.356 50.5942 150.047 49.3416 150.103 47.9438L150.103 47.9399C150.153 46.7851 150.215 45.574 150.344 44.3358Z" fill="#58E47F"/>
<path fill-rule="evenodd" clip-rule="evenodd" d="M135.559 37.0329C135.9 36.95 136.25 36.8932 136.602 36.8553C137.823 36.7236 139.075 36.8174 140.11 37.5061C141.182 38.2187 141.741 39.3777 141.975 40.756L141.975 40.7584C142.166 41.8987 142.354 43.0971 142.483 44.3352C142.612 45.5733 142.674 46.7844 142.723 47.9393L142.724 47.9432C142.779 49.3409 142.471 50.5935 141.57 51.519C140.699 52.4129 139.494 52.7718 138.273 52.9037C137.051 53.0353 135.799 52.9415 134.764 52.2528C133.692 51.5401 133.133 50.3813 132.899 49.0029L132.899 49.0005C132.708 47.8602 132.52 46.6617 132.391 45.4237C132.3 44.5476 132.242 43.6851 132.199 42.8458L131.799 38.3087L131.798 38.2967C131.195 30.919 136.891 23.6338 146.414 23.6338C155.938 23.6338 161.632 30.9192 161.029 38.2967L161.029 38.3087L160.628 42.861C160.584 43.6955 160.526 44.5529 160.435 45.4237C160.306 46.6617 160.119 47.8602 159.928 49.0005L159.927 49.0029C159.694 50.3813 159.134 51.5401 158.063 52.2528C157.028 52.9415 155.775 53.0353 154.554 52.9037C153.333 52.7718 152.128 52.4129 151.257 51.519C150.356 50.5935 150.047 49.3409 150.103 47.9432L150.103 47.9393C150.153 46.7844 150.215 45.5733 150.344 44.3352C150.473 43.0971 150.661 41.8987 150.852 40.7584L150.852 40.756C151.085 39.3777 151.645 38.2187 152.716 37.5061C153.751 36.8174 155.004 36.7236 156.225 36.8553C156.577 36.8932 156.927 36.95 157.269 37.033C157.163 32.1925 153.279 27.4355 146.414 27.4355C139.549 27.4355 135.664 32.1925 135.559 37.0329ZM139.288 41.2195C139.129 40.2799 138.829 39.9333 138.596 39.7785C138.327 39.5996 137.832 39.4641 136.884 39.5664C135.936 39.6686 135.479 39.9069 135.253 40.1392C135.057 40.3402 134.836 40.743 134.873 41.6957C134.921 42.8372 134.981 43.9799 135.101 45.1315C135.221 46.2831 135.398 47.4142 135.586 48.5395C135.745 49.4791 136.045 49.8256 136.278 49.9803C136.547 50.1593 137.042 50.2948 137.99 50.1925C138.938 50.0902 139.395 49.8521 139.622 49.6197C139.817 49.4187 140.039 49.0162 140.001 48.0638C139.952 46.9209 139.893 45.7786 139.773 44.6275C139.653 43.476 139.476 42.3447 139.288 41.2195ZM153.539 41.2195C153.698 40.2799 153.998 39.9333 154.23 39.7785C154.499 39.5996 154.995 39.4641 155.943 39.5664C156.891 39.6686 157.348 39.9069 157.574 40.1392C157.769 40.3402 157.991 40.743 157.953 41.6957C157.906 42.8372 157.845 43.9799 157.725 45.1315C157.605 46.2831 157.429 47.4142 157.241 48.5395C157.081 49.4791 156.782 49.8256 156.549 49.9803C156.28 50.1593 155.785 50.2948 154.837 50.1925C153.888 50.0902 153.431 49.8521 153.205 49.6197C153.01 49.4187 152.788 49.0162 152.826 48.0638C152.875 46.9209 152.934 45.7786 153.054 44.6275C153.174 43.476 153.35 42.3447 153.539 41.2195Z" fill="#120F99"/>
</g>
<g clip-path="url(#clip3_1545_3)">
<path d="M47.4277 88.3115C47.1236 91.6823 46.1762 96.9785 45.3978 98.8042C45.0415 99.6397 44.3674 100.275 43.4852 100.503C42.3825 100.789 40.4704 101.098 37.3619 101.098C34.2533 101.098 32.3412 100.789 31.2386 100.503C30.3564 100.275 29.6861 99.6366 29.3489 98.7933C28.4508 96.5466 26.7763 90.1556 26.1294 86.1836H45.3867C46.5685 86.1836 47.5335 87.1395 47.4277 88.3115Z" fill="#56E1FF"/>
<path fill-rule="evenodd" clip-rule="evenodd" d="M18.3796 80.8578C18.3796 80.1079 18.9875 79.5 19.7374 79.5H21.4283C24.0743 79.5 26.3728 81.3202 26.9791 83.8958L27.1982 84.8265H45.3868C47.2789 84.8265 48.9652 86.3826 48.7801 88.4342C48.6234 90.1712 48.3034 92.3819 47.9248 94.3896C47.5542 96.355 47.1012 98.2717 46.6468 99.3373C46.1447 100.515 45.1606 101.473 43.8252 101.819C42.5874 102.139 40.5571 102.456 37.3619 102.456C34.1668 102.456 32.1365 102.139 30.8986 101.819C29.5584 101.472 28.57 100.503 28.0882 99.298C27.1525 96.9573 25.4849 90.5836 24.8123 86.5418L24.3359 84.5181C24.0183 83.169 22.8143 82.2155 21.4283 82.2155H19.7374C18.9875 82.2155 18.3796 81.6076 18.3796 80.8578ZM27.7546 87.542C28.5099 91.3931 29.8669 96.4319 30.6097 98.29C30.8022 98.7715 31.1544 99.0799 31.5788 99.1897C32.546 99.4399 34.34 99.7409 37.3619 99.7409C40.3837 99.7409 42.1779 99.4399 43.1451 99.1897C43.5743 99.0786 43.9386 98.7654 44.1489 98.2724C44.4728 97.5124 44.8828 95.8681 45.2564 93.8863C45.6223 91.9468 45.9281 89.824 46.0756 88.1902C46.1019 87.8978 45.8582 87.542 45.3868 87.542H27.7546ZM27.082 106.396C27.082 104.454 28.6568 102.879 30.5994 102.879C32.5421 102.879 34.1169 104.454 34.1169 106.396C34.1169 108.339 32.5421 109.914 30.5994 109.914C28.6568 109.914 27.082 108.339 27.082 106.396ZM40.6596 106.396C40.6596 104.454 42.2344 102.879 44.177 102.879C46.1195 102.879 47.6943 104.454 47.6943 106.396C47.6943 108.339 46.1195 109.914 44.177 109.914C42.2344 109.914 40.6596 108.339 40.6596 106.396Z" fill="#120F99"/>
</g>
<g clip-path="url(#clip4_1545_3)">
<path d="M83.1289 92.2317L89.342 82.638C89.8873 81.8625 90.7764 81.4009 91.7249 81.4009C93.4938 81.4009 94.8542 82.9636 94.6091 84.714L94.1007 88.3459H98.0156C99.9599 88.3459 103.849 90.2888 103.849 94.1746C103.849 98.0604 100.471 106.948 96.3351 106.948C91.4898 106.948 86.6058 105.501 83.9906 104.726C83.6672 104.63 83.3785 104.545 83.1289 104.473H81.4773V92.2317H83.1289Z" fill="#58E47F"/>
<path fill-rule="evenodd" clip-rule="evenodd" d="M88.2317 81.8569C89.0314 80.7195 90.335 80.043 91.7253 80.043C94.3177 80.043 96.3137 82.3337 95.9542 84.9021L95.6622 86.988H98.016C99.3453 86.988 101.095 87.6115 102.51 88.7424C103.967 89.9076 105.207 91.7264 105.207 94.1745C105.207 96.3921 104.28 99.7972 102.857 102.628C102.138 104.058 101.25 105.428 100.212 106.461C99.1859 107.483 97.8742 108.306 96.3355 108.306C91.2928 108.306 86.2566 106.813 83.6458 106.039L83.6052 106.028C83.3579 105.954 83.136 105.889 82.9376 105.831H82.8071C82.5692 107.825 80.8724 109.37 78.8145 109.37C76.5937 109.37 74.7935 107.57 74.7935 105.349V91.856C74.7935 89.6352 76.5937 87.835 78.8145 87.835C80.5714 87.835 82.065 88.9616 82.6124 90.5318L88.2028 81.8998C88.2121 81.8853 88.2218 81.871 88.2317 81.8569ZM82.8356 103.115V93.5893H83.1293C83.5897 93.5893 84.0187 93.356 84.2689 92.9696L90.4658 83.401C90.7576 82.998 91.2259 82.7585 91.7253 82.7585C92.6707 82.7585 93.3954 83.5932 93.2649 84.5256L92.7565 88.1575C92.702 88.5467 92.8188 88.9403 93.0767 89.2368C93.3345 89.5333 93.7082 89.7035 94.1011 89.7035H98.016C98.6311 89.7035 99.7981 90.0514 100.814 90.8635C101.787 91.6412 102.492 92.7367 102.492 94.1745C102.492 95.8426 101.73 98.8245 100.43 101.409C99.7879 102.687 99.0558 103.781 98.2967 104.536C97.5266 105.303 96.8649 105.59 96.3355 105.59C91.7138 105.59 87.0083 104.204 84.3768 103.424L84.3716 103.422C84.0522 103.328 83.7582 103.241 83.502 103.168C83.3808 103.133 83.2554 103.115 83.1293 103.115H82.8356Z" fill="#120F99"/>
</g>
<g clip-path="url(#clip5_1545_3)">
<path d="M146.414 108.556C155.277 108.556 160.263 103.57 160.263 94.7065C160.263 85.8431 155.277 80.8574 146.414 80.8574C137.55 80.8574 132.565 85.8431 132.565 94.7065C132.565 103.57 137.55 108.556 146.414 108.556Z" fill="#FF5858"/>
<path fill-rule="evenodd" clip-rule="evenodd" d="M133.922 94.7068C133.922 90.525 135.094 87.4497 137.125 85.4186C139.157 83.3874 142.232 82.2155 146.414 82.2155C150.595 82.2155 153.671 83.3874 155.702 85.4186C157.733 87.4497 158.905 90.525 158.905 94.7068C158.905 98.8886 157.733 101.964 155.702 103.995C155.546 104.151 155.384 104.302 155.216 104.447C154.634 102.911 153.656 101.544 152.37 100.493C150.689 99.1191 148.585 98.3685 146.413 98.3685C144.242 98.3685 142.138 99.1191 140.457 100.493C139.171 101.544 138.193 102.91 137.611 104.447C137.443 104.302 137.281 104.151 137.125 103.995C135.094 101.964 133.922 98.8886 133.922 94.7068ZM155.113 107.841C152.73 109.227 149.788 109.914 146.414 109.914C141.732 109.914 137.883 108.593 135.205 105.915C132.528 103.238 131.207 99.3885 131.207 94.7068C131.207 90.0252 132.528 86.176 135.205 83.4984C137.883 80.8209 141.732 79.5 146.414 79.5C151.095 79.5 154.944 80.8209 157.622 83.4984C160.3 86.176 161.62 90.0252 161.62 94.7068C161.62 99.3885 160.3 103.238 157.622 105.915C156.967 106.571 156.241 107.145 155.45 107.638C155.353 107.724 155.239 107.794 155.113 107.841ZM142.134 86.9353C143.22 85.8495 144.728 85.3712 146.414 85.3712C148.099 85.3712 149.608 85.8495 150.693 86.9353C151.779 88.0211 152.258 89.5295 152.258 91.215C152.258 92.9004 151.779 94.4089 150.693 95.4947C149.608 96.5805 148.099 97.0588 146.414 97.0588C144.728 97.0588 143.22 96.5805 142.134 95.4947C141.048 94.4089 140.57 92.9004 140.57 91.215C140.57 89.5295 141.048 88.0211 142.134 86.9353Z" fill="#120F99"/>
</g>
<defs>
<clipPath id="clip0_1545_3">
<rect width="30.4137" height="30.4137" fill="white" transform="translate(18.3796 23.0864)"/>
</clipPath>
<clipPath id="clip1_1545_3">
<rect width="30.4137" height="30.4137" fill="white" transform="translate(74.7932 23.0864)"/>
</clipPath>
<clipPath id="clip2_1545_3">
<rect width="30.4137" height="30.4137" fill="white" transform="translate(131.207 23.0864)"/>
</clipPath>
<clipPath id="clip3_1545_3">
<rect width="30.4137" height="30.4137" fill="white" transform="translate(18.3796 79.5)"/>
</clipPath>
<clipPath id="clip4_1545_3">
<rect width="30.4137" height="30.4137" fill="white" transform="translate(74.7932 79.5)"/>
</clipPath>
<clipPath id="clip5_1545_3">
<rect width="30.4137" height="30.4137" fill="white" transform="translate(131.207 79.5)"/>
</clipPath>
</defs>
</svg>
