<svg width="179" height="133" viewBox="0 0 179 133" fill="none" xmlns="http://www.w3.org/2000/svg">
<rect width="179" height="133" fill="white"/>
<path d="M39.5541 38.4007C39.4776 38.3293 39.3962 38.2632 39.3107 38.2029C38.9108 37.9399 38.4308 37.8267 37.9556 37.8833C37.4804 37.9399 37.0404 38.1627 36.7136 38.5123C36.5302 38.7091 36.3906 38.9424 36.3038 39.1969C36.217 39.4514 36.185 39.7214 36.2099 39.9892C36.2348 40.257 36.316 40.5165 36.4483 40.7506C36.5806 40.9848 36.7608 41.1883 36.9773 41.3478C37.3362 41.6226 37.7784 41.7658 38.2302 41.7536C38.7182 41.7493 39.1882 41.5692 39.5541 41.2464C39.7553 41.0679 39.9163 40.8488 40.0266 40.6036C40.1368 40.3583 40.1938 40.0925 40.1938 39.8236C40.1938 39.5547 40.1368 39.2888 40.0266 39.0436C39.9163 38.7983 39.7553 38.5792 39.5541 38.4007Z" fill="#343434"/>
<path d="M33.447 38.3348C33.0937 38.0076 32.6266 37.8314 32.1452 37.8437C31.6638 37.856 31.2063 38.0559 30.8702 38.4007C30.5798 38.6649 30.377 39.0114 30.2889 39.394C30.2008 39.7766 30.2316 40.1769 30.3772 40.5415C30.5228 40.9061 30.7763 41.2175 31.1037 41.4341C31.4311 41.6507 31.8168 41.7622 32.2093 41.7536C32.6701 41.709 33.1042 41.5168 33.447 41.2058C33.6524 41.0272 33.8171 40.8067 33.9299 40.5591C34.0428 40.3114 34.1012 40.0424 34.1012 39.7703C34.1012 39.4981 34.0428 39.2292 33.9299 38.9815C33.8171 38.7339 33.6524 38.5133 33.447 38.3348Z" fill="#343434"/>
<path d="M43.8406 24H26.5942C24.8453 24 23.1681 24.6947 21.9314 25.9314C20.6947 27.1681 20 28.8453 20 30.5942V47.8406C20 48.7065 20.1706 49.564 20.502 50.3641C20.8333 51.1641 21.3191 51.8911 21.9314 52.5034C23.1681 53.74 24.8453 54.4348 26.5942 54.4348H43.8406C44.7065 54.4348 45.564 54.2642 46.3641 53.9328C47.1641 53.6014 47.8911 53.1157 48.5034 52.5034C49.1157 51.8911 49.6014 51.1641 49.9328 50.3641C50.2642 49.564 50.4348 48.7065 50.4348 47.8406V30.5942C50.4348 29.7282 50.2642 28.8708 49.9328 28.0707C49.6014 27.2707 49.1157 26.5437 48.5034 25.9314C47.8911 25.3191 47.1641 24.8333 46.3641 24.502C45.564 24.1706 44.7065 24 43.8406 24V24ZM44.1145 43.5594C42.8556 44.9061 41.1615 45.7648 39.3312 45.9841H38.8239C38.7054 45.9888 38.5873 45.9676 38.4778 45.9221C38.3683 45.8765 38.2701 45.8077 38.1899 45.7203L37.4848 44.7971C37.4524 44.7494 37.407 44.712 37.3539 44.6895C37.3008 44.667 37.2423 44.6603 37.1855 44.6703C36.8964 44.6703 36.6072 44.7464 36.308 44.7717C35.6917 44.8174 35.0728 44.8174 34.4565 44.7717C34.0321 44.7579 33.6087 44.7207 33.1884 44.6601C33.1318 44.6536 33.0745 44.6619 33.0221 44.6841C32.9696 44.7063 32.9238 44.7418 32.8891 44.787L32.2399 45.6645C32.1221 45.794 31.9698 45.8872 31.8008 45.9331C31.6319 45.9789 31.4533 45.9755 31.2862 45.9232C30.2393 45.8325 29.2205 45.536 28.2884 45.0507C27.5152 44.663 26.8257 44.127 26.2594 43.4732C26.1429 43.3186 26.0821 43.1291 26.087 42.9355C26.1851 39.9182 27.0136 36.9696 28.5014 34.3428C28.5672 34.2433 28.6475 34.1544 28.7399 34.079C29.3663 33.6268 30.0482 33.2569 30.7688 32.9783C31.391 32.7288 32.042 32.5584 32.7065 32.471C32.8803 32.4327 33.0621 32.4583 33.2186 32.5431C33.3751 32.6278 33.4958 32.7661 33.5587 32.9326L33.6449 33.1101C33.6769 33.1639 33.7234 33.2076 33.779 33.2363C33.8346 33.2649 33.8971 33.2775 33.9594 33.2725H34.6087C35.1459 33.242 35.6845 33.242 36.2217 33.2725H36.5362C36.5999 33.2748 36.6631 33.2595 36.7186 33.2281C36.7741 33.1968 36.8198 33.1507 36.8507 33.0949L37.0232 32.8109C37.0902 32.6963 37.1879 32.6027 37.3054 32.5408C37.4228 32.479 37.5553 32.4513 37.6877 32.4609C38.0306 32.4858 38.3703 32.5435 38.7022 32.6333C39.7986 32.9169 40.8313 33.4058 41.7457 34.0739C41.8383 34.1463 41.9218 34.2298 41.9942 34.3225C43.4333 36.9422 44.2393 39.8623 44.3478 42.8493C44.364 42.9775 44.3514 43.1078 44.3111 43.2306C44.2707 43.3534 44.2036 43.4657 44.1145 43.5594Z" fill="#343434"/>
<path d="M98.6233 24H81.3769C79.628 24 77.9508 24.6947 76.7141 25.9314C75.4775 27.168 74.7827 28.8453 74.7827 30.5942V47.8406C74.7827 48.7066 74.9533 49.5641 75.2847 50.3641C75.6161 51.1641 76.1018 51.8911 76.7141 52.5034C77.9508 53.74 79.628 54.4348 81.3769 54.4348H98.6233C99.4893 54.4348 100.347 54.2642 101.147 53.9329C101.947 53.6014 102.674 53.1157 103.286 52.5034C103.898 51.8911 104.384 51.1641 104.716 50.3641C105.047 49.5641 105.217 48.7066 105.217 47.8406V30.5942C105.217 29.7282 105.047 28.8708 104.716 28.0707C104.384 27.2707 103.898 26.5437 103.286 25.9314C102.674 25.3191 101.947 24.8333 101.147 24.502C100.347 24.1706 99.4893 24 98.6233 24ZM90.0001 47.1101C89.924 47.1101 78.0291 42.4283 81.5088 34.013C81.8545 33.3209 82.3609 32.7216 82.9858 32.2654C83.6106 31.8091 84.3356 31.5091 85.1001 31.3906C85.8692 31.2596 86.6585 31.3142 87.4022 31.5497C88.146 31.7853 88.8228 32.1951 89.3762 32.7449L90.0001 33.313L90.624 32.7449C91.1777 32.1954 91.8545 31.7859 92.5982 31.5503C93.3418 31.3148 94.131 31.26 94.9001 31.3906C95.6647 31.5091 96.3896 31.8091 97.0144 32.2654C97.6392 32.7216 98.1457 33.3209 98.4914 34.013C101.971 42.4283 90.0762 47.1101 90.0001 47.1101Z" fill="#343434"/>
<path d="M153.406 24H136.16C134.411 24 132.733 24.6947 131.497 25.9314C130.26 27.168 129.565 28.8453 129.565 30.5942V47.8406C129.565 48.7066 129.736 49.5641 130.067 50.3641C130.399 51.1641 130.884 51.8911 131.497 52.5034C132.733 53.74 134.411 54.4348 136.16 54.4348H153.406C154.272 54.4348 155.13 54.2642 155.93 53.9329C156.729 53.6014 157.456 53.1157 158.069 52.5034C158.681 51.8911 159.167 51.1641 159.498 50.3641C159.83 49.5641 160 48.7066 160 47.8406V30.5942C160 29.7282 159.83 28.8708 159.498 28.0707C159.167 27.2707 158.681 26.5437 158.069 25.9314C157.456 25.3191 156.729 24.8333 155.93 24.502C155.13 24.1706 154.272 24 153.406 24ZM149.637 32.7246C149.639 32.9035 149.604 33.0809 149.536 33.2465C149.469 33.412 149.368 33.5624 149.242 33.6889C149.115 33.8154 148.965 33.9155 148.8 33.9833C148.634 34.0512 148.457 34.0854 148.278 34.0841H147.456C146.827 34.0841 146.507 34.0841 146.507 35.1645V36.6C146.507 36.6861 146.542 36.7687 146.603 36.8295C146.663 36.8904 146.746 36.9246 146.832 36.9246H148.222C148.491 36.9246 148.749 37.0315 148.939 37.2218C149.13 37.412 149.236 37.67 149.236 37.9391V39.9072C149.236 40.0405 149.21 40.1724 149.159 40.2954C149.108 40.4185 149.034 40.5304 148.939 40.6246C148.845 40.7188 148.733 40.7935 148.61 40.8445C148.487 40.8955 148.355 40.9217 148.222 40.9217H146.812C146.726 40.9217 146.643 40.956 146.582 41.0168C146.521 41.0777 146.487 41.1603 146.487 41.2464V47.3333C146.487 47.6024 146.38 47.8605 146.19 48.0507C146 48.2409 145.742 48.3478 145.473 48.3478H143.038C142.769 48.3478 142.511 48.2409 142.321 48.0507C142.13 47.8605 142.023 47.6024 142.023 47.3333V41.2464C142.023 41.1603 141.989 41.0777 141.928 41.0168C141.867 40.956 141.785 40.9217 141.699 40.9217H140.436C140.167 40.9217 139.909 40.8148 139.718 40.6246C139.528 40.4344 139.421 40.1763 139.421 39.9072V37.9391C139.421 37.67 139.528 37.412 139.718 37.2218C139.909 37.0315 140.167 36.9246 140.436 36.9246H141.709C141.795 36.9246 141.878 36.8904 141.938 36.8295C141.999 36.7687 142.034 36.6861 142.034 36.6V34.7688C142.034 31.9232 143.738 30.087 146.371 30.087H147.385H148.328C148.684 30.0923 149.022 30.2375 149.271 30.4911C149.52 30.7446 149.659 31.0861 149.657 31.4413L149.637 32.7246Z" fill="#343434"/>
<path d="M43.8406 78.7826H26.5942C24.8453 78.7826 23.1681 79.4774 21.9314 80.714C20.6947 81.9507 20 83.6279 20 85.3768V102.623C20 103.489 20.1706 104.347 20.502 105.147C20.8333 105.947 21.3191 106.674 21.9314 107.286C23.1681 108.523 24.8453 109.217 26.5942 109.217H43.8406C44.7065 109.217 45.564 109.047 46.3641 108.715C47.1641 108.384 47.8911 107.898 48.5034 107.286C49.1157 106.674 49.6014 105.947 49.9328 105.147C50.2642 104.347 50.4348 103.489 50.4348 102.623V85.3768C50.4348 84.5108 50.2642 83.6534 49.9328 82.8533C49.6014 82.0533 49.1157 81.3263 48.5034 80.714C47.8911 80.1017 47.1641 79.616 46.3641 79.2846C45.564 78.9532 44.7065 78.7826 43.8406 78.7826V78.7826ZM43.7087 101.147L42.6384 102.217C42.1189 102.725 41.4426 103.041 40.7201 103.113C39.9976 103.186 39.2719 103.012 38.6616 102.618C33.8748 99.4384 29.7719 95.3338 26.5942 90.5457C26.1938 89.9386 26.015 89.212 26.088 88.4885C26.161 87.765 26.4813 87.0888 26.9949 86.5739L28.0601 85.5036C28.486 85.0956 29.053 84.8679 29.6428 84.8679C30.2325 84.8679 30.7995 85.0956 31.2254 85.5036L33.1884 87.4565C33.6069 87.8759 33.8419 88.4441 33.8419 89.0366C33.8419 89.629 33.6069 90.1973 33.1884 90.6167L32.7928 91.0123C34.4303 92.9722 36.2381 94.7834 38.1949 96.4246L38.5906 96.0341C38.7976 95.8249 39.0441 95.6588 39.3158 95.5455C39.5874 95.4321 39.8788 95.3738 40.1732 95.3738C40.4675 95.3738 40.759 95.4321 41.0306 95.5455C41.3022 95.6588 41.5487 95.8249 41.7558 96.0341L43.7087 97.9819C44.1275 98.4021 44.3626 98.9712 44.3626 99.5645C44.3626 100.158 44.1275 100.727 43.7087 101.147Z" fill="#343434"/>
<path d="M98.6233 79.3889H81.3769C79.628 79.3889 77.9508 80.0837 76.7141 81.3203C75.4775 82.557 74.7827 84.2342 74.7827 85.9831V103.23C74.7827 104.095 74.9533 104.953 75.2847 105.753C75.6161 106.553 76.1018 107.28 76.7141 107.892C77.9508 109.129 79.628 109.824 81.3769 109.824H98.6233C99.4893 109.824 100.347 109.653 101.147 109.322C101.947 108.99 102.674 108.505 103.286 107.892C103.898 107.28 104.384 106.553 104.716 105.753C105.047 104.953 105.217 104.095 105.217 103.23V85.9831C105.217 85.1172 105.047 84.2597 104.716 83.4596C104.384 82.6596 103.898 81.9327 103.286 81.3203C102.674 80.708 101.947 80.2223 101.147 79.8909C100.347 79.5595 99.4893 79.3889 98.6233 79.3889V79.3889ZM93.911 89.0621C93.9123 88.8029 94.0159 88.5547 94.1992 88.3713C94.3825 88.188 94.6307 88.0845 94.89 88.0831H96.8479C97.1072 88.0845 97.3554 88.188 97.5387 88.3713C97.722 88.5547 97.8256 88.8029 97.8269 89.0621V98.8469C97.8256 99.1061 97.722 99.3544 97.5387 99.5377C97.3554 99.721 97.1072 99.8246 96.8479 99.8259H94.89C94.6307 99.8246 94.3825 99.721 94.1992 99.5377C94.0159 99.3544 93.9123 99.1061 93.911 98.8469V89.0621ZM88.0421 92.9781C88.0421 92.7184 88.1453 92.4694 88.3289 92.2858C88.5125 92.1022 88.7615 91.9991 89.0211 91.9991H90.9791C91.2387 91.9991 91.4877 92.1022 91.6713 92.2858C91.8549 92.4694 91.9581 92.7184 91.9581 92.9781V98.8469C91.9567 99.1061 91.8532 99.3544 91.6699 99.5377C91.4866 99.721 91.2383 99.8246 90.9791 99.8259H89.0211C88.7619 99.8246 88.5137 99.721 88.3303 99.5377C88.147 99.3544 88.0435 99.1061 88.0421 98.8469V92.9781ZM82.1733 86.4549C82.1733 86.1952 82.2764 85.9462 82.46 85.7626C82.6436 85.579 82.8926 85.4759 83.1523 85.4759H85.1103C85.3699 85.4759 85.6189 85.579 85.8025 85.7626C85.9861 85.9462 86.0892 86.1952 86.0892 86.4549V98.8469C86.0879 99.1061 85.9843 99.3544 85.801 99.5377C85.6177 99.721 85.3695 99.8246 85.1103 99.8259H83.1523C82.893 99.8246 82.6448 99.721 82.4615 99.5377C82.2782 99.3544 82.1746 99.1061 82.1733 98.8469V86.4549ZM98.1516 103.737H81.8487C81.589 103.737 81.34 103.634 81.1564 103.45C80.9728 103.266 80.8697 103.017 80.8697 102.758C80.8697 102.498 80.9728 102.249 81.1564 102.066C81.34 101.882 81.589 101.779 81.8487 101.779H98.1516C98.4112 101.779 98.6602 101.882 98.8438 102.066C99.0274 102.249 99.1305 102.498 99.1305 102.758C99.1305 103.017 99.0274 103.266 98.8438 103.45C98.6602 103.634 98.4112 103.737 98.1516 103.737Z" fill="#343434"/>
<path d="M153.406 79.3889H136.16C134.411 79.3889 132.733 80.0837 131.497 81.3203C130.26 82.557 129.565 84.2342 129.565 85.9831V103.23C129.565 104.096 129.736 104.953 130.067 105.753C130.399 106.553 130.884 107.28 131.497 107.892C132.733 109.129 134.411 109.824 136.16 109.824H153.406C154.272 109.824 155.13 109.653 155.93 109.322C156.729 108.99 157.456 108.505 158.069 107.892C158.681 107.28 159.167 106.553 159.498 105.753C159.83 104.953 160 104.096 160 103.23V85.9831C160 85.1172 159.83 84.2597 159.498 83.4596C159.167 82.6596 158.681 81.9327 158.069 81.3203C157.456 80.708 156.729 80.2223 155.93 79.8909C155.13 79.5595 154.272 79.3889 153.406 79.3889ZM147.38 101.348C147.326 101.986 147.04 102.582 146.575 103.023C146.11 103.463 145.499 103.717 144.858 103.736C144.218 103.755 143.593 103.537 143.103 103.125C142.613 102.712 142.292 102.134 142.201 101.5C142.194 101.454 142.198 101.407 142.211 101.362C142.224 101.318 142.247 101.276 142.277 101.241C142.308 101.206 142.346 101.177 142.389 101.158C142.432 101.139 142.479 101.129 142.526 101.13H147.177C147.204 101.131 147.231 101.138 147.256 101.15C147.28 101.162 147.302 101.179 147.319 101.201C147.339 101.219 147.355 101.242 147.366 101.267C147.376 101.293 147.381 101.32 147.38 101.348ZM153.259 99.1715H136.307C136.216 99.1795 136.125 99.1686 136.039 99.1395C135.953 99.1103 135.874 99.0636 135.807 99.0024C135.74 98.941 135.687 98.8664 135.65 98.7834C135.614 98.7003 135.595 98.6105 135.595 98.5197C135.595 98.4289 135.614 98.3391 135.65 98.2561C135.687 98.173 135.74 98.0985 135.807 98.0371C135.874 97.9758 135.953 97.9292 136.039 97.9C136.125 97.8708 136.216 97.8599 136.307 97.8679C137.078 97.8679 138.539 96.5795 138.539 91.7201C138.539 90.064 139.196 88.4758 140.368 87.3048C141.539 86.1338 143.127 85.4759 144.783 85.4759C146.439 85.4759 148.027 86.1338 149.198 87.3048C150.369 88.4758 151.027 90.064 151.027 91.7201C151.027 96.5795 152.488 97.8679 153.259 97.8679C153.349 97.8599 153.441 97.8708 153.526 97.9C153.612 97.9292 153.691 97.9758 153.758 98.0371C153.825 98.0985 153.879 98.173 153.915 98.2561C153.952 98.3391 153.971 98.4289 153.971 98.5197C153.971 98.6105 153.952 98.7003 153.915 98.7834C153.879 98.8664 153.825 98.941 153.758 99.0024C153.691 99.0636 153.612 99.1103 153.526 99.1395C153.441 99.1686 153.349 99.1795 153.259 99.1715Z" fill="#343434"/>
</svg>
