<svg width="179" height="134" viewBox="0 0 179 134" fill="none" xmlns="http://www.w3.org/2000/svg">
<rect width="179" height="133" transform="translate(0 0.5)" fill="white"/>
<path d="M89.5 109.43C97.903 109.43 104.715 102.618 104.715 94.215C104.715 85.812 97.903 79 89.5 79C81.097 79 74.285 85.812 74.285 94.215C74.285 102.618 81.097 109.43 89.5 109.43Z" fill="#52C1FF"/>
<path d="M98.3524 99.7477C98.3524 100.359 97.857 100.854 97.2459 100.854H81.7543C81.1432 100.854 80.6477 100.359 80.6477 99.7477V88.6822C80.6477 88.0711 81.1432 87.5757 81.7543 87.5757H97.2459C97.857 87.5757 98.3524 88.0711 98.3524 88.6822V99.7477Z" fill="black"/>
<path d="M87.287 99.7476C90.3426 99.7476 92.8197 97.2705 92.8197 94.2149C92.8197 91.1592 90.3426 88.6821 87.287 88.6821C84.2314 88.6821 81.7543 91.1592 81.7543 94.2149C81.7543 97.2705 84.2314 99.7476 87.287 99.7476Z" fill="white"/>
<path d="M82.3075 89.7887C82.6131 89.7887 82.8608 89.541 82.8608 89.2354C82.8608 88.9298 82.6131 88.6821 82.3075 88.6821C82.002 88.6821 81.7543 88.9298 81.7543 89.2354C81.7543 89.541 82.002 89.7887 82.3075 89.7887Z" fill="white"/>
<path d="M97.2459 99.1943C97.2459 99.4986 96.997 99.7476 96.6927 99.7476H95.5861C95.2818 99.7476 95.0328 99.4986 95.0328 99.1943V94.7681C95.0328 94.4638 95.2818 94.2148 95.5861 94.2148H96.6927C96.997 94.2148 97.2459 94.4638 97.2459 94.7681V99.1943Z" fill="white"/>
<path d="M94.4795 92.0018C95.3962 92.0018 96.1393 91.2586 96.1393 90.3419C96.1393 89.4253 95.3962 88.6821 94.4795 88.6821C93.5628 88.6821 92.8197 89.4253 92.8197 90.3419C92.8197 91.2586 93.5628 92.0018 94.4795 92.0018Z" fill="white"/>
<path d="M95.8079 89.6952C95.7373 89.8308 95.5702 89.8836 95.4347 89.8131L94.9439 89.5577C94.8084 89.4872 94.7555 89.3201 94.8261 89.1846L95.2089 88.4484C95.2795 88.3129 95.4466 88.26 95.5821 88.3306L96.0729 88.5859C96.2084 88.6565 96.2613 88.8236 96.1907 88.9591L95.8079 89.6952Z" fill="white"/>
<path d="M95.5211 89.5163C95.4506 89.6518 95.2835 89.7047 95.1479 89.6341L94.6572 89.3788C94.5216 89.3083 94.4688 89.1412 94.5393 89.0056L94.9222 88.2695C94.9927 88.1339 95.1598 88.0811 95.2954 88.1516L95.7861 88.407C95.9217 88.4775 95.9745 88.6446 95.904 88.7802L95.5211 89.5163Z" fill="black"/>
<path d="M95.5084 89.9916L95.0176 89.7366L92.0134 95.5116L90.3273 96.7413L90.6531 97.1883L92.4413 95.8843L92.4363 95.8776L92.4444 95.8818L95.5084 89.9916Z" fill="white"/>
<path d="M95.1479 89.6337L94.6572 89.3787L91.6529 95.1537L89.9668 96.3834L90.2927 96.8304L92.0809 95.5264L92.0759 95.5197L92.0839 95.5239L95.1479 89.6337Z" fill="black"/>
<path d="M89.0154 97.4266L89.0088 97.4177C88.8306 97.1735 88.884 96.8307 89.1286 96.6526L89.8036 96.1602L90.4556 97.0542L89.7806 97.5467C89.5363 97.7245 89.1936 97.6709 89.0154 97.4266Z" fill="black"/>
<path d="M96.1393 95.8749C96.4449 95.8749 96.6926 95.6271 96.6926 95.3216C96.6926 95.016 96.4449 94.7683 96.1393 94.7683C95.8338 94.7683 95.5861 95.016 95.5861 95.3216C95.5861 95.6271 95.8338 95.8749 96.1393 95.8749Z" fill="black"/>
<path d="M96.1393 97.5345C96.4449 97.5345 96.6926 97.2868 96.6926 96.9813C96.6926 96.6757 96.4449 96.428 96.1393 96.428C95.8338 96.428 95.5861 96.6757 95.5861 96.9813C95.5861 97.2868 95.8338 97.5345 96.1393 97.5345Z" fill="black"/>
<path d="M96.1393 99.1944C96.4449 99.1944 96.6926 98.9467 96.6926 98.6412C96.6926 98.3356 96.4449 98.0879 96.1393 98.0879C95.8338 98.0879 95.5861 98.3356 95.5861 98.6412C95.5861 98.9467 95.8338 99.1944 96.1393 99.1944Z" fill="black"/>
<path d="M94.4795 90.8954C94.7851 90.8954 95.0328 90.6477 95.0328 90.3421C95.0328 90.0365 94.7851 89.7888 94.4795 89.7888C94.174 89.7888 93.9263 90.0365 93.9263 90.3421C93.9263 90.6477 94.174 90.8954 94.4795 90.8954Z" fill="black"/>
<path d="M87.2869 96.4281C88.5092 96.4281 89.5 95.4373 89.5 94.215C89.5 92.9928 88.5092 92.002 87.2869 92.002C86.0647 92.002 85.0739 92.9928 85.0739 94.215C85.0739 95.4373 86.0647 96.4281 87.2869 96.4281Z" fill="black"/>
<path d="M87.287 94.6472C87.5256 94.6472 87.7191 94.4537 87.7191 94.2151C87.7191 93.9764 87.5256 93.783 87.287 93.783C87.0483 93.783 86.8549 93.9764 86.8549 94.2151C86.8549 94.4537 87.0483 94.6472 87.287 94.6472Z" fill="white"/>
<path d="M143.93 109.43C152.333 109.43 159.145 102.618 159.145 94.215C159.145 85.812 152.333 79 143.93 79C135.527 79 128.715 85.812 128.715 94.215C128.715 102.618 135.527 109.43 143.93 109.43Z" fill="#FB983D"/>
<path d="M151.69 91.9299L142.939 100.673C142.939 100.673 137.222 102.496 137.197 102.503C137.106 102.137 136.918 101.792 136.635 101.508C136.351 101.225 136.006 101.038 135.64 100.946C135.648 100.921 137.466 95.2003 137.466 95.2003C137.466 95.2003 146.206 86.4603 146.213 86.4534L151.69 91.9299Z" fill="white"/>
<path d="M152.069 91.5508L151.678 91.9419L146.201 86.4648L146.592 86.0737C147.457 85.2092 148.857 85.2092 149.722 86.0737L152.069 88.4209C152.934 89.2854 152.934 90.686 152.069 91.5508Z" fill="black"/>
<path d="M137.197 102.503L135.254 103.06C135.206 103.074 135.154 103.06 135.118 103.025C135.083 102.989 135.069 102.937 135.083 102.889L135.64 100.946C136.002 101.042 136.344 101.231 136.628 101.515C136.912 101.799 137.101 102.141 137.197 102.503Z" fill="black"/>
<path d="M150.505 93.1153L142.991 100.629C142.927 100.693 142.825 100.693 142.761 100.629C142.7 100.568 142.682 100.476 142.716 100.396C142.89 99.9911 142.813 99.5081 142.485 99.1795C142.16 98.8547 141.686 98.7764 141.283 98.9407C141.206 98.9762 141.095 98.9637 141.019 98.8879L141.015 98.884C140.947 98.8154 140.923 98.71 140.962 98.6199C141.127 98.2168 141.049 97.7435 140.724 97.4187C140.399 97.0939 139.926 97.0156 139.523 97.18C139.433 97.2192 139.327 97.1957 139.258 97.1271C139.178 97.0469 139.166 96.9387 139.202 96.8593C139.366 96.4563 139.288 95.983 138.963 95.6582C138.634 95.3295 138.151 95.2532 137.746 95.4272C137.666 95.4604 137.574 95.443 137.514 95.3821C137.449 95.3176 137.449 95.2158 137.514 95.1514L145.027 87.6379L150.505 93.1153Z" fill="black"/>
<path d="M35.0701 109.43C43.4731 109.43 50.2851 102.618 50.2851 94.215C50.2851 85.812 43.4731 79 35.0701 79C26.6671 79 19.8551 85.812 19.8551 94.215C19.8551 102.618 26.6671 109.43 35.0701 109.43Z" fill="#52C1FF"/>
<path d="M31.7505 103.068C32.3616 103.068 32.857 102.572 32.857 101.961C32.857 101.35 32.3616 100.854 31.7505 100.854C31.1393 100.854 30.6439 101.35 30.6439 101.961C30.6439 102.572 31.1393 103.068 31.7505 103.068Z" fill="black"/>
<path d="M39.4963 103.068C40.1074 103.068 40.6029 102.572 40.6029 101.961C40.6029 101.35 40.1074 100.854 39.4963 100.854C38.8852 100.854 38.3898 101.35 38.3898 101.961C38.3898 102.572 38.8852 103.068 39.4963 103.068Z" fill="black"/>
<path d="M40.6029 99.7479H31.5392L32.1752 96.9816H31.1973C31.1406 96.9816 31.0861 96.9719 31.0343 96.9556L30.1491 100.054C30.0634 100.225 30.0725 100.429 30.1735 100.592C30.2742 100.755 30.4523 100.854 30.644 100.854H40.6029C40.9083 100.854 41.1562 100.607 41.1562 100.301C41.1562 99.9958 40.9083 99.7479 40.6029 99.7479Z" fill="black"/>
<path d="M43.8052 88.8951C43.7004 88.7609 43.5396 88.6823 43.3692 88.6823H29.5374C29.5247 88.6823 29.5125 88.6851 29.5001 88.6862L28.9675 86.8883C28.9061 86.6421 28.6848 86.4692 28.4309 86.4692H26.771C26.4656 86.4692 26.2178 86.7171 26.2178 87.0225C26.2178 87.3279 26.4656 87.5758 26.771 87.5758H27.9988L30.6603 96.5623C30.722 96.8088 30.9433 96.9814 31.1972 96.9814H41.1556C41.1559 96.9814 41.1564 96.9814 41.1567 96.9814C41.2649 96.9814 41.3838 96.9438 41.4776 96.8769C41.5797 96.8038 41.6599 96.6948 41.6931 96.562L43.9062 89.3695C43.9474 89.2046 43.9103 89.0292 43.8052 88.8951ZM40.3262 89.7889V91.4487H38.6664V89.7889H40.3262ZM40.8795 95.4652V94.2151H41.2718L40.8795 95.4652ZM40.8795 93.6618V92.002H41.9661L41.4452 93.6618H40.8795ZM40.3262 93.6618H38.6664V92.002H40.3262V93.6618ZM30.4821 92.002H31.4739V93.6618H30.9737L30.4821 92.002ZM32.0271 92.002H33.687V93.6618H32.0271V92.002ZM34.2402 92.002H35.9V93.6618H34.2402V92.002ZM36.4533 92.002H38.1131V93.6618H36.4533V92.002ZM38.1131 89.7889V91.4487H36.4533V89.7889H38.1131ZM35.9 89.7889V91.4487H34.2402V89.7889H35.9ZM33.687 89.7889V91.4487H32.0271V89.7889H33.687ZM31.4739 89.7889V91.4487H30.3184L29.8268 89.7889H31.4739ZM31.1375 94.2151H31.4739V95.3504L31.1375 94.2151ZM32.0271 95.8749V94.2151H33.687V95.8749H32.0271ZM34.2402 95.8749V94.2151H35.9V95.8749H34.2402ZM36.4533 95.8749V94.2151H38.1131V95.8749H36.4533ZM38.6664 95.8749V94.2151H40.3262V95.8749H38.6664ZM42.1399 91.4487H40.8795V89.7889H42.6605L42.1399 91.4487Z" fill="black"/>
<path d="M27.3243 88.1291C27.9354 88.1291 28.4309 87.6337 28.4309 87.0226C28.4309 86.4114 27.9354 85.916 27.3243 85.916C26.7132 85.916 26.2178 86.4114 26.2178 87.0226C26.2178 87.6337 26.7132 88.1291 27.3243 88.1291Z" fill="white"/>
<path d="M143.93 55.0001C152.333 55.0001 159.145 48.1881 159.145 39.7851C159.145 31.3821 152.333 24.5701 143.93 24.5701C135.527 24.5701 128.715 31.3821 128.715 39.7851C128.715 48.1881 135.527 55.0001 143.93 55.0001Z" fill="#52C1FF"/>
<path d="M148.633 33.1457H146.42V32.0392C146.42 31.4281 145.924 30.9326 145.313 30.9326H143.1C142.489 30.9326 141.994 31.4281 141.994 32.0392V33.1457H139.78C138.864 33.1457 138.121 33.889 138.121 34.8055V46.9775C138.121 47.894 138.864 48.6373 139.78 48.6373H148.633C149.55 48.6373 150.293 47.894 150.293 46.9775V34.8055C150.293 33.889 149.55 33.1457 148.633 33.1457Z" fill="black"/>
<path d="M149.186 46.9775C149.186 47.2832 148.938 47.5308 148.633 47.5308H139.78C139.475 47.5308 139.227 47.2832 139.227 46.9775V45.3177C139.227 45.012 139.475 44.7644 139.78 44.7644H148.633C148.938 44.7644 149.186 45.012 149.186 45.3177V46.9775Z" fill="white"/>
<path d="M89.5 55.0001C97.903 55.0001 104.715 48.1881 104.715 39.7851C104.715 31.3821 97.903 24.5701 89.5 24.5701C81.097 24.5701 74.285 31.3821 74.285 39.7851C74.285 48.1881 81.097 55.0001 89.5 55.0001Z" fill="#92DE46"/>
<path d="M98.3524 44.9656C98.3524 45.4101 97.9923 45.7703 97.5477 45.7703H81.4524C81.0079 45.7703 80.6477 45.4101 80.6477 44.9656V33.699C80.6477 33.2545 81.0079 32.8943 81.4524 32.8943H97.5477C97.9923 32.8943 98.3524 33.2545 98.3524 33.699V44.9656Z" fill="black"/>
<path d="M91.9145 45.7703H87.0858V47.8326H91.9145V45.7703Z" fill="black"/>
<path d="M93.5237 48.2348C93.5237 48.4569 93.3436 48.6373 93.1212 48.6373H85.8786C85.6564 48.6373 85.4761 48.4572 85.4761 48.2348C85.4761 48.0124 85.6562 47.8323 85.8786 47.8323H93.1215C93.3436 47.8326 93.5237 48.0126 93.5237 48.2348Z" fill="black"/>
<path d="M98.3524 44.9655V42.5513H80.6477V44.9655C80.6477 45.41 81.0082 45.7702 81.4524 45.7702H97.5477C97.992 45.7702 98.3524 45.41 98.3524 44.9655Z" fill="white"/>
<path d="M82.6987 34.9408C82.6987 34.6354 82.8033 34.4639 83.0041 34.4639C83.2053 34.4639 83.3095 34.6354 83.3095 34.9408C83.3095 35.2476 83.205 35.4191 83.0041 35.4191C82.8033 35.4191 82.6987 35.2476 82.6987 34.9408ZM83.1826 34.9408C83.1826 34.6713 83.117 34.5615 83.0044 34.5615C82.8932 34.5615 82.8263 34.6713 82.8263 34.9408C82.8263 35.2116 82.8932 35.3214 83.0044 35.3214C83.1167 35.3212 83.1826 35.2113 83.1826 34.9408ZM83.0041 34.8536C83.055 34.8536 83.0927 34.8924 83.0927 34.9408C83.0927 34.9903 83.055 35.0293 83.0041 35.0293C82.9546 35.0293 82.917 34.9903 82.917 34.9408C82.917 34.8924 82.9546 34.8536 83.0041 34.8536Z" fill="white"/>
<path d="M83.8036 34.6153L83.5826 34.7492L83.5237 34.6634L83.8186 34.4797H83.927V35.3038H84.116V35.4031H83.5773V35.3038H83.8039V34.6153H83.8036Z" fill="white"/>
<path d="M85.6438 34.6045L85.7027 34.6969L85.2338 34.9838L85.7027 35.2717L85.6382 35.3616L85.1276 35.0427V34.9235L85.6438 34.6045Z" fill="white"/>
<path d="M86.3857 35.4031V34.9705H86.0507V35.4031H85.9235V34.48H86.0507V34.8659H86.3857V34.48H86.513V35.4031H86.3857Z" fill="white"/>
<path d="M87.0834 34.587V35.4031H86.9561V34.587H86.6707V34.48H87.3728L87.3595 34.587H87.0834Z" fill="white"/>
<path d="M88.0677 35.4031L88.0409 34.9301C88.0342 34.8 88.0342 34.6501 88.0356 34.6205H88.0315L87.8854 35.2382H87.7634L87.6107 34.6205H87.6055C87.6055 34.6512 87.6082 34.8108 87.6027 34.9301L87.58 35.4031H87.4622L87.5144 34.48H87.6832L87.8254 35.0963H87.8306L87.9659 34.48H88.136L88.1883 35.4031H88.0677Z" fill="white"/>
<path d="M88.4021 35.4031V34.48H88.5294V35.2919H88.9487L88.9341 35.4031H88.4021Z" fill="white"/>
<path d="M89.7203 34.9235V35.0427L89.2096 35.3616L89.1451 35.2717L89.614 34.9838L89.1451 34.6969L89.2041 34.6045L89.7203 34.9235Z" fill="white"/>
<path d="M82.6987 36.5477C82.6987 36.2423 82.8033 36.0708 83.0041 36.0708C83.2053 36.0708 83.3095 36.2423 83.3095 36.5477C83.3095 36.8545 83.205 37.026 83.0041 37.026C82.8033 37.026 82.6987 36.8545 82.6987 36.5477ZM83.1826 36.5477C83.1826 36.2783 83.117 36.1685 83.0044 36.1685C82.8932 36.1685 82.8263 36.2783 82.8263 36.5477C82.8263 36.8185 82.8932 36.9284 83.0044 36.9284C83.1167 36.9281 83.1826 36.8183 83.1826 36.5477ZM83.0041 36.4606C83.055 36.4606 83.0927 36.4993 83.0927 36.5477C83.0927 36.5972 83.055 36.6362 83.0041 36.6362C82.9546 36.6362 82.917 36.5972 82.917 36.5477C82.917 36.4993 82.9546 36.4606 83.0041 36.4606Z" fill="white"/>
<path d="M83.6617 36.9069H84.0811L84.0664 37.01H83.517V36.9121C83.836 36.5959 83.9339 36.4684 83.9339 36.3292C83.9339 36.2299 83.867 36.1738 83.7771 36.1738C83.7007 36.1738 83.6484 36.202 83.592 36.2728L83.5062 36.2125C83.5787 36.1229 83.6697 36.0703 83.7837 36.0703C83.9524 36.0703 84.0612 36.1776 84.0612 36.3251C84.0609 36.4861 83.9336 36.6468 83.6617 36.9069Z" fill="white"/>
<path d="M85.6438 36.2114L85.7027 36.3038L85.2338 36.5907L85.7027 36.8787L85.6382 36.9686L85.1276 36.6496V36.5304L85.6438 36.2114Z" fill="white"/>
<path d="M86.1941 37.0101H85.9396V36.0869H86.1742C86.339 36.0869 86.5039 36.1392 86.5039 36.3201C86.5039 36.438 86.4209 36.4997 86.3432 36.5171V36.5223C86.4356 36.5398 86.5443 36.5934 86.5443 36.7461C86.5437 36.9484 86.367 37.0101 86.1941 37.0101ZM86.1968 36.1873H86.0668V36.4767H86.2076C86.315 36.4767 86.3739 36.4324 86.3739 36.3279C86.3736 36.2261 86.3067 36.1873 86.1968 36.1873ZM86.2168 36.5785H86.0666V36.9069H86.2112C86.3011 36.9069 86.4096 36.8814 86.4096 36.7486C86.4099 36.6134 86.3227 36.5785 86.2168 36.5785Z" fill="white"/>
<path d="M87.0217 37.026C86.7952 37.026 86.6787 36.8371 86.6787 36.5505C86.6787 36.2691 86.7952 36.0708 87.0217 36.0708C87.2483 36.0708 87.3648 36.2625 87.3648 36.5491C87.3648 36.8304 87.248 37.026 87.0217 37.026ZM87.0217 36.1751C86.8715 36.1751 86.8112 36.3065 86.8112 36.5502C86.8112 36.7939 86.8757 36.9215 87.0217 36.9215C87.172 36.9215 87.232 36.7928 87.232 36.5488C87.232 36.3051 87.1717 36.1751 87.0217 36.1751Z" fill="white"/>
<path d="M87.7459 37.0101H87.5302V36.0869H87.7313C87.9498 36.0869 88.1667 36.1605 88.1667 36.5439C88.1667 36.9295 87.9418 37.0101 87.7459 37.0101ZM87.7595 36.1887H87.6577V36.9096H87.7609C87.8923 36.9096 88.0314 36.8427 88.0314 36.5439C88.0314 36.2302 87.8854 36.1887 87.7595 36.1887Z" fill="white"/>
<path d="M88.6929 36.6549V37.0101H88.5642V36.6563L88.2533 36.0867H88.3941L88.6301 36.5381H88.6342L88.8713 36.0867H89.0038L88.6929 36.6549Z" fill="white"/>
<path d="M89.7203 36.5304V36.6496L89.2096 36.9686L89.1451 36.8787L89.614 36.5907L89.1451 36.3038L89.2041 36.2114L89.7203 36.5304Z" fill="white"/>
<path d="M82.6987 38.1547C82.6987 37.8492 82.8033 37.6777 83.0041 37.6777C83.2053 37.6777 83.3095 37.8492 83.3095 38.1547C83.3095 38.4614 83.205 38.633 83.0041 38.633C82.8033 38.633 82.6987 38.4614 82.6987 38.1547ZM83.1826 38.1547C83.1826 37.8852 83.117 37.7754 83.0044 37.7754C82.8932 37.7754 82.8263 37.8852 82.8263 38.1547C82.8263 38.4255 82.8932 38.5353 83.0044 38.5353C83.1167 38.535 83.1826 38.4252 83.1826 38.1547ZM83.0041 38.0675C83.055 38.0675 83.0927 38.1062 83.0927 38.1547C83.0927 38.2042 83.055 38.2432 83.0041 38.2432C82.9546 38.2432 82.917 38.2042 82.917 38.1547C82.917 38.1062 82.9546 38.0675 83.0041 38.0675Z" fill="white"/>
<path d="M83.7715 38.633C83.6642 38.633 83.5543 38.5943 83.4835 38.5085L83.5637 38.4416C83.616 38.5033 83.6924 38.5326 83.7673 38.5326C83.8918 38.5326 83.9671 38.4629 83.9671 38.3503C83.9671 38.2217 83.888 38.1788 83.7795 38.1788H83.7084L83.7231 38.0836H83.7715C83.86 38.0836 83.943 38.0341 83.943 37.9268C83.943 37.8288 83.868 37.7752 83.7729 37.7752C83.6938 37.7752 83.639 37.8034 83.5787 37.8595L83.5117 37.786C83.5909 37.711 83.6819 37.6772 83.7798 37.6772C83.9566 37.6772 84.0667 37.7832 84.0667 37.9091C84.0667 38.0217 83.9837 38.1049 83.8913 38.1224V38.1276C83.9931 38.1342 84.0963 38.2106 84.0963 38.3514C84.0957 38.511 83.9657 38.633 83.7715 38.633Z" fill="white"/>
<path d="M85.6438 37.8184L85.7027 37.9108L85.2338 38.1976L85.7027 38.4856L85.6382 38.5755L85.1276 38.2566V38.1373L85.6438 37.8184Z" fill="white"/>
<path d="M86.3857 38.617V38.1844H86.0507V38.617H85.9235V37.6936H86.0507V38.0795H86.3857V37.6936H86.513V38.6167H86.3857V38.617Z" fill="white"/>
<path d="M86.8969 37.7954V38.0969H87.2372V38.1987H86.8969V38.5163H87.3138V38.6167H86.7697V37.6936H87.303L87.2883 37.7954H86.8969Z" fill="white"/>
<path d="M87.9994 38.3852H87.6441L87.5731 38.617H87.4458L87.7446 37.6938H87.9053L88.2041 38.617H88.0702L87.9994 38.3852ZM87.6751 38.282H87.9686L87.8253 37.8089H87.8201L87.6751 38.282Z" fill="white"/>
<path d="M88.5496 38.617H88.3339V37.6936H88.535C88.7535 37.6936 88.9704 37.7672 88.9704 38.1506C88.9704 38.5365 88.7452 38.617 88.5496 38.617ZM88.5629 37.7954H88.4611V38.5163H88.5643C88.6957 38.5163 88.8349 38.4494 88.8349 38.1506C88.8351 37.8372 88.6891 37.7954 88.5629 37.7954Z" fill="white"/>
<path d="M89.3076 37.7954V38.0969H89.6478V38.1987H89.3076V38.5163H89.7244V38.6167H89.1803V37.6936H89.7137L89.699 37.7954H89.3076Z" fill="white"/>
<path d="M90.3361 38.2098L90.6066 38.617H90.4553L90.2088 38.2259H90.091V38.617H89.9637V37.6936H90.2064C90.4368 37.6936 90.5574 37.7819 90.5574 37.9547C90.5571 38.0931 90.4606 38.1774 90.3361 38.2098ZM90.218 37.7929H90.0907V38.1279H90.2194C90.348 38.1279 90.4216 38.0798 90.4216 37.955C90.4219 37.8397 90.356 37.7929 90.218 37.7929Z" fill="white"/>
<path d="M91.3273 38.1373V38.2566L90.8167 38.5755L90.7522 38.4856L91.2211 38.1976L90.7522 37.9108L90.8111 37.8184L91.3273 38.1373Z" fill="white"/>
<path d="M82.6987 39.7618C82.6987 39.4564 82.8033 39.2849 83.0041 39.2849C83.2053 39.2849 83.3095 39.4564 83.3095 39.7618C83.3095 40.0686 83.205 40.2401 83.0041 40.2401C82.8033 40.2401 82.6987 40.0686 82.6987 39.7618ZM83.1826 39.7618C83.1826 39.4924 83.117 39.3826 83.0044 39.3826C82.8932 39.3826 82.8263 39.4924 82.8263 39.7618C82.8263 40.0327 82.8932 40.1425 83.0044 40.1425C83.1167 40.1425 83.1826 40.0324 83.1826 39.7618ZM83.0041 39.6747C83.055 39.6747 83.0927 39.7134 83.0927 39.7618C83.0927 39.8114 83.055 39.8504 83.0041 39.8504C82.9546 39.8504 82.917 39.8114 82.917 39.7618C82.917 39.7137 82.9546 39.6747 83.0041 39.6747Z" fill="white"/>
<path d="M83.9953 40.0028V40.2239H83.8761V40.0028H83.4982V39.9157L83.7687 39.2844L83.8719 39.3273L83.6279 39.9049H83.8758L83.8879 39.6637H83.995V39.9049H84.1115V40.0028H83.9953Z" fill="white"/>
<path d="M85.6438 39.4253L85.7027 39.5177L85.2338 39.8046L85.7027 40.0925L85.6382 40.1824L85.1276 39.8635V39.7443L85.6438 39.4253Z" fill="white"/>
<path d="M85.9824 40.3633L85.8831 40.3191L86.4551 39.1387L86.5531 39.1857L85.9824 40.3633Z" fill="white"/>
<path d="M87.1891 40.2239V39.7913H86.8541V40.2239H86.7268V39.3008H86.8541V39.6867H87.1891V39.3008H87.3163V40.2239H87.1891Z" fill="white"/>
<path d="M87.7006 39.4026V39.7041H88.0409V39.8059H87.7006V40.1235H88.1175V40.2239H87.5734V39.3008H88.1067L88.0921 39.4026H87.7006Z" fill="white"/>
<path d="M88.8027 39.9921H88.4475L88.3764 40.2239H88.2491L88.5479 39.3008H88.7086L89.0074 40.2239H88.8735L88.8027 39.9921ZM88.4785 39.8889H88.772L88.6287 39.4159H88.6232L88.4785 39.8889Z" fill="white"/>
<path d="M89.353 40.2239H89.1372V39.3008H89.3383C89.5569 39.3008 89.7737 39.3744 89.7737 39.7578C89.7737 40.1437 89.5488 40.2239 89.353 40.2239ZM89.3665 39.4026H89.2647V40.1235H89.3679C89.4993 40.1235 89.6385 40.0566 89.6385 39.7578C89.6385 39.4441 89.4924 39.4026 89.3665 39.4026Z" fill="white"/>
<path d="M90.1109 39.4026V39.7041H90.4512V39.8059H90.1109V40.1235H90.5278V40.2239H89.9836V39.3008H90.517L90.5023 39.4026H90.1109Z" fill="white"/>
<path d="M91.1394 39.8164L91.4103 40.2239H91.2589L91.0125 39.8328H90.8943V40.2239H90.7671V39.3008H91.0097C91.2401 39.3008 91.3608 39.389 91.3608 39.5619C91.3608 39.7 91.2642 39.7843 91.1394 39.8164ZM91.0216 39.3998H90.8943V39.7348H91.023C91.1516 39.7348 91.2252 39.6867 91.2252 39.5619C91.2252 39.4468 91.1596 39.3998 91.0216 39.3998Z" fill="white"/>
<path d="M92.1307 39.7443V39.8635L91.62 40.1824L91.5555 40.0925L92.0244 39.8046L91.5555 39.5177L91.6145 39.4253L92.1307 39.7443Z" fill="white"/>
<path d="M35.0701 55.0001C43.4731 55.0001 50.2851 48.1881 50.2851 39.7851C50.2851 31.3821 43.4731 24.5701 35.0701 24.5701C26.6671 24.5701 19.8551 31.3821 19.8551 39.7851C19.8551 48.1881 26.6671 55.0001 35.0701 55.0001Z" fill="#FF78B9"/>
<path d="M39.4963 38.3824C39.4963 38.5675 39.4039 38.7401 39.2498 38.8428L36.1766 41.9981H33.9636L30.8904 38.8428C30.7363 38.7401 30.6439 38.5672 30.6439 38.3824V32.0392C30.6439 31.4281 31.1394 30.9326 31.7505 30.9326H38.3897C39.0008 30.9326 39.4963 31.4281 39.4963 32.0392V38.3824Z" fill="white"/>
<path d="M34.822 38.406C34.8684 38.3117 34.9647 38.252 35.0701 38.252C35.1755 38.252 35.2715 38.3117 35.3182 38.406L36.7869 41.3818C36.8273 41.4634 36.905 41.5201 36.9952 41.5331L40.2792 42.0103C40.3835 42.0255 40.47 42.0986 40.5024 42.1987C40.5348 42.2989 40.5079 42.4087 40.4324 42.4823L38.0561 44.7986C37.9908 44.8622 37.9612 44.9537 37.9764 45.0434L38.5375 48.314C38.5552 48.4178 38.5126 48.5226 38.4274 48.5846C38.3422 48.6466 38.2293 48.6546 38.1361 48.6056L35.1987 47.0614C35.1182 47.0191 35.022 47.0191 34.9412 47.0614L32.0039 48.6056C31.9106 48.6546 31.7978 48.6466 31.7126 48.5846C31.6274 48.5226 31.5848 48.4178 31.6025 48.314L32.1635 45.0434C32.179 44.9537 32.1491 44.8622 32.0838 44.7986L29.7075 42.4823C29.632 42.4087 29.6049 42.2989 29.6375 42.1987C29.6702 42.0986 29.7567 42.0255 29.8608 42.0103L33.1447 41.5331C33.2349 41.5201 33.3126 41.4634 33.353 41.3818L34.822 38.406Z" fill="black"/>
</svg>
