<svg width="179" height="134" viewBox="0 0 179 134" fill="none" xmlns="http://www.w3.org/2000/svg">
<rect width="179" height="133" transform="translate(0 0.5)" fill="white"/>
<path d="M144.783 110.321C153.187 110.321 160 103.508 160 95.1034C160 86.699 153.187 79.886 144.783 79.886C136.378 79.886 129.565 86.699 129.565 95.1034C129.565 103.508 136.378 110.321 144.783 110.321Z" fill="#32BEA6"/>
<path d="M152.544 92.8183L143.792 101.563C143.792 101.563 138.074 103.385 138.049 103.393C137.955 103.016 137.761 102.672 137.486 102.398C137.212 102.124 136.868 101.929 136.492 101.836C136.499 101.811 138.318 96.0892 138.318 96.0892L147.066 87.3408L152.544 92.8183Z" fill="#F4D0A1"/>
<path d="M147.066 87.3401L138.317 96.0884C138.317 96.0884 136.499 101.81 136.491 101.835C136.86 101.927 137.197 102.116 137.468 102.382L149.788 90.0621L147.066 87.3401Z" fill="#F8E1C2"/>
<path d="M152.923 92.4387L152.532 92.8299L147.054 87.3519L147.445 86.9607C147.651 86.7551 147.895 86.5921 148.163 86.4808C148.432 86.3695 148.72 86.3123 149.01 86.3123C149.301 86.3123 149.589 86.3695 149.858 86.4808C150.126 86.5921 150.37 86.7551 150.576 86.9607L152.923 89.3083C153.129 89.5138 153.292 89.7578 153.403 90.0264C153.515 90.2949 153.572 90.5828 153.572 90.8735C153.572 91.1642 153.515 91.4521 153.403 91.7207C153.292 91.9892 153.129 92.2332 152.923 92.4387Z" fill="#F7B4B4"/>
<path d="M138.049 103.393L136.105 103.95C136.082 103.957 136.057 103.957 136.033 103.951C136.009 103.945 135.987 103.932 135.97 103.915C135.952 103.897 135.94 103.875 135.934 103.852C135.927 103.828 135.928 103.803 135.934 103.779L136.492 101.835C136.866 101.934 137.207 102.131 137.48 102.405C137.753 102.678 137.95 103.019 138.049 103.393Z" fill="#3E3E3F"/>
<path d="M145.892 88.5142L147.054 87.352L152.532 92.8299L151.37 93.992L145.892 88.5142Z" fill="#FACB1B"/>
<path d="M151.358 94.0037L143.844 101.518C143.829 101.534 143.811 101.546 143.791 101.554C143.771 101.562 143.75 101.567 143.728 101.567C143.707 101.567 143.686 101.562 143.666 101.554C143.646 101.546 143.628 101.534 143.613 101.518C143.583 101.488 143.563 101.45 143.555 101.409C143.547 101.367 143.552 101.324 143.568 101.286C143.656 101.083 143.681 100.859 143.64 100.642C143.599 100.425 143.493 100.225 143.337 100.069C143.183 99.9147 142.986 99.8098 142.772 99.7673C142.559 99.7248 142.337 99.7466 142.136 99.83C142.091 99.8485 142.042 99.8534 141.995 99.8439C141.948 99.8345 141.905 99.8113 141.871 99.7771L141.867 99.7733C141.833 99.7395 141.81 99.6963 141.801 99.6492C141.791 99.6021 141.796 99.5533 141.815 99.509C141.898 99.3076 141.92 99.086 141.877 98.8722C141.835 98.6583 141.73 98.4619 141.576 98.3077C141.422 98.1536 141.225 98.0487 141.011 98.0062C140.798 97.9637 140.576 97.9855 140.374 98.0689C140.33 98.0875 140.281 98.0923 140.234 98.0829C140.187 98.0735 140.144 98.0502 140.11 98.0161C140.03 97.9358 140.018 97.8276 140.054 97.7482C140.137 97.5468 140.159 97.3252 140.116 97.1114C140.074 96.8975 139.969 96.7011 139.815 96.5469C139.658 96.3908 139.459 96.2853 139.242 96.2441C139.025 96.2029 138.801 96.2279 138.598 96.3159C138.559 96.3322 138.516 96.3367 138.475 96.3287C138.433 96.3206 138.395 96.3005 138.365 96.2708C138.35 96.2557 138.338 96.2377 138.329 96.2179C138.321 96.1981 138.317 96.1769 138.317 96.1554C138.317 96.1339 138.321 96.1127 138.329 96.0928C138.338 96.073 138.35 96.0551 138.365 96.04L145.88 88.5254L151.358 94.0037Z" fill="#059BBF"/>
<path d="M149.598 92.243L141.997 99.844C141.949 99.8351 141.905 99.8118 141.871 99.7773C141.836 99.7437 141.811 99.7001 141.801 99.6522C141.791 99.6044 141.796 99.5546 141.815 99.5095C141.898 99.308 141.92 99.0864 141.877 98.8726C141.835 98.6588 141.73 98.4623 141.576 98.3081C141.422 98.154 141.225 98.0491 141.011 98.0066C140.798 97.9641 140.576 97.986 140.375 98.0693C140.329 98.0883 140.28 98.0931 140.232 98.0829C140.184 98.0728 140.14 98.0483 140.107 98.0126C140.072 97.9786 140.049 97.9349 140.04 97.8873L147.641 90.2866L149.598 92.243Z" fill="#21B2D1"/>
<path d="M150.576 86.9607C150.37 86.7551 150.126 86.592 149.858 86.4808C149.589 86.3695 149.301 86.3123 149.011 86.3123C148.72 86.3123 148.432 86.3695 148.164 86.4808C147.895 86.592 147.651 86.7551 147.446 86.9607L147.054 87.3522L149.776 90.0739L151.732 88.1175L150.576 86.9607Z" fill="#FBC8C8"/>
<path d="M35.2174 109.717C43.6217 109.717 50.4348 102.904 50.4348 94.5001C50.4348 86.0958 43.6217 79.2827 35.2174 79.2827C26.8131 79.2827 20 86.0958 20 94.5001C20 102.904 26.8131 109.717 35.2174 109.717Z" fill="#25B7D3"/>
<path d="M31.8972 103.354C32.5085 103.354 33.004 102.858 33.004 102.247C33.004 101.636 32.5085 101.14 31.8972 101.14C31.286 101.14 30.7905 101.636 30.7905 102.247C30.7905 102.858 31.286 103.354 31.8972 103.354Z" fill="#3E3E3F"/>
<path d="M39.6442 103.354C40.2554 103.354 40.7509 102.858 40.7509 102.247C40.7509 101.636 40.2554 101.14 39.6442 101.14C39.033 101.14 38.5375 101.636 38.5375 102.247C38.5375 102.858 39.033 103.354 39.6442 103.354Z" fill="#3E3E3F"/>
<path d="M40.7511 100.034H31.6859L32.322 97.2667H31.3439C31.2872 97.2667 31.2327 97.257 31.181 97.2407L30.2956 100.339C30.2533 100.424 30.2333 100.517 30.2375 100.612C30.2417 100.706 30.2699 100.798 30.3195 100.878C30.3691 100.958 30.4385 101.024 30.5209 101.07C30.6034 101.116 30.6962 101.14 30.7906 101.14H40.7511C40.8978 101.14 41.0386 101.082 41.1423 100.978C41.2461 100.874 41.3044 100.734 41.3044 100.587C41.3044 100.44 41.2461 100.299 41.1423 100.196C41.0386 100.092 40.8978 100.034 40.7511 100.034Z" fill="#E2E4E5"/>
<path d="M43.9538 89.1791C43.9021 89.1129 43.8359 89.0593 43.7604 89.0224C43.6848 88.9855 43.6019 88.9664 43.5178 88.9664H29.6838C29.6711 88.9664 29.6589 88.9691 29.6465 88.9702L29.1138 87.1721C29.0839 87.0524 29.0148 86.9461 28.9176 86.8702C28.8203 86.7942 28.7005 86.7529 28.5771 86.7529H26.917C26.7702 86.7529 26.6295 86.8112 26.5257 86.915C26.4219 87.0188 26.3636 87.1595 26.3636 87.3063C26.3636 87.453 26.4219 87.5938 26.5257 87.6976C26.6295 87.8013 26.7702 87.8596 26.917 87.8596H28.1449L30.8068 96.8476C30.8368 96.9674 30.9059 97.0737 31.0032 97.1496C31.1005 97.2256 31.2204 97.2668 31.3439 97.2668H41.3049C41.42 97.2651 41.5319 97.2286 41.6259 97.1622C41.728 97.0891 41.8082 96.9801 41.8414 96.8473L44.0548 89.6536C44.0752 89.5721 44.0767 89.4869 44.0592 89.4047C44.0417 89.3225 44.0057 89.2453 43.9538 89.1791ZM40.4743 90.0731V91.7332H38.8142V90.0731H40.4743ZM41.0277 95.7503V94.5H41.42L41.0277 95.7503ZM41.0277 93.9466V92.2865H42.1145L41.5935 93.9466H41.0277ZM40.4743 93.9466H38.8142V92.2865H40.4743V93.9466ZM30.6287 92.2865H31.6206V93.9466H31.1203L30.6287 92.2865ZM32.1739 92.2865H33.834V93.9466H32.1739V92.2865ZM34.3874 92.2865H36.0474V93.9466H34.3874V92.2865ZM36.6008 92.2865H38.2609V93.9466H36.6008V92.2865ZM38.2609 90.0731V91.7332H36.6008V90.0731H38.2609ZM36.0474 90.0731V91.7332H34.3874V90.0731H36.0474ZM33.834 90.0731V91.7332H32.1739V90.0731H33.834ZM31.6206 90.0731V91.7332H30.4649L29.9732 90.0731H31.6206ZM31.2841 94.5H31.6206V95.6355L31.2841 94.5ZM32.1739 96.16V94.5H33.834V96.16H32.1739ZM34.3874 96.16V94.5H36.0474V96.16H34.3874ZM36.6008 96.16V94.5H38.2609V96.16H36.6008ZM38.8142 96.16V94.5H40.4743V96.16H38.8142ZM42.2882 91.7332H41.0277V90.0731H42.8089L42.2882 91.7332Z" fill="white"/>
<path d="M27.4704 88.4129C28.0816 88.4129 28.5771 87.9174 28.5771 87.3062C28.5771 86.695 28.0816 86.1995 27.4704 86.1995C26.8591 86.1995 26.3636 86.695 26.3636 87.3062C26.3636 87.9174 26.8591 88.4129 27.4704 88.4129Z" fill="#DF2C2C"/>
<path d="M31.8972 101.14C31.6037 101.14 31.3222 101.257 31.1147 101.465C30.9071 101.672 30.7905 101.954 30.7905 102.247C30.7905 102.566 30.9278 102.852 31.1438 103.054L32.704 101.494C32.6011 101.382 32.4763 101.294 32.3375 101.233C32.1987 101.172 32.0488 101.141 31.8972 101.14ZM39.6443 101.14C39.3508 101.14 39.0693 101.257 38.8617 101.465C38.6542 101.672 38.5376 101.954 38.5376 102.247C38.5376 102.566 38.6748 102.852 38.8909 103.054L40.4511 101.494C40.3481 101.382 40.2234 101.294 40.0845 101.233C39.9457 101.172 39.7958 101.141 39.6443 101.14Z" fill="#5B5C5F"/>
<path d="M35.2174 54.9348C43.6217 54.9348 50.4348 48.1217 50.4348 39.7174C50.4348 31.3131 43.6217 24.5 35.2174 24.5C26.8131 24.5 20 31.3131 20 39.7174C20 48.1217 26.8131 54.9348 35.2174 54.9348Z" fill="#32BEA6"/>
<path d="M39.6443 38.3145C39.6443 38.4996 39.5519 38.6723 39.3978 38.7749L36.3241 41.9307H34.1107L31.037 38.7749C30.9612 38.7244 30.8991 38.6559 30.8561 38.5756C30.8131 38.4953 30.7905 38.4056 30.7905 38.3145V31.9702C30.7905 31.6767 30.9071 31.3952 31.1147 31.1877C31.3222 30.9801 31.6037 30.8635 31.8972 30.8635H38.5376C38.8311 30.8635 39.1126 30.9801 39.3201 31.1877C39.5277 31.3952 39.6443 31.6767 39.6443 31.9702V38.3145Z" fill="white"/>
<path d="M37.4308 30.8635H33.0039V40.7944L34.1106 41.9307H36.3241L37.4308 40.7944V30.8635Z" fill="#DF2C2C"/>
<path d="M35.2173 30.8635H33.0039V40.7944L34.1106 41.9307H35.2173V30.8635Z" fill="#FA5655"/>
<path d="M34.9692 38.338C34.992 38.2916 35.0274 38.2526 35.0712 38.2253C35.1151 38.1981 35.1657 38.1836 35.2174 38.1836C35.269 38.1836 35.3196 38.1981 35.3635 38.2253C35.4074 38.2526 35.4427 38.2916 35.4656 38.338L36.9344 41.3142C36.9543 41.3544 36.9836 41.3892 37.0199 41.4156C37.0562 41.442 37.0984 41.4591 37.1428 41.4656L40.4273 41.9428C40.4784 41.9503 40.5264 41.9718 40.5658 42.0051C40.6053 42.0384 40.6347 42.0821 40.6506 42.1312C40.6666 42.1803 40.6685 42.2329 40.6561 42.283C40.6437 42.3332 40.6175 42.3788 40.5805 42.4148L38.2039 44.7315C38.1386 44.7951 38.1089 44.8867 38.1242 44.9764L38.6853 48.2475C38.694 48.2984 38.6883 48.3507 38.6688 48.3985C38.6494 48.4464 38.6169 48.4878 38.5752 48.5181C38.5334 48.5485 38.484 48.5665 38.4325 48.5702C38.381 48.5739 38.3295 48.5632 38.2838 48.5392L35.346 46.9947C35.3063 46.9739 35.2621 46.963 35.2172 46.963C35.1724 46.963 35.1282 46.9739 35.0884 46.9947L32.1507 48.5392C32.105 48.5632 32.0535 48.5739 32.002 48.5702C31.9505 48.5665 31.9011 48.5485 31.8593 48.5181C31.8175 48.4878 31.7851 48.4464 31.7656 48.3985C31.7462 48.3507 31.7405 48.2984 31.7492 48.2475L32.3103 44.9764C32.3179 44.9321 32.3146 44.8867 32.3007 44.8441C32.2868 44.8014 32.2628 44.7628 32.2306 44.7315L29.8539 42.4148C29.8167 42.3789 29.7904 42.3332 29.7779 42.2831C29.7653 42.2329 29.7672 42.1802 29.7832 42.131C29.7991 42.0818 29.8286 42.0381 29.8682 42.0048C29.9078 41.9715 29.956 41.9501 30.0072 41.9428L33.2917 41.4656C33.3361 41.4591 33.3782 41.442 33.4145 41.4156C33.4508 41.3892 33.4802 41.3544 33.5 41.3142L34.9692 38.338Z" fill="#FACB1B"/>
<path d="M31.9431 47.1181L37.5378 41.5233L37.1425 41.4658C37.0981 41.4593 37.0559 41.4422 37.0196 41.4158C36.9833 41.3894 36.954 41.3547 36.9341 41.3144L35.4652 38.3382C35.4424 38.2919 35.407 38.253 35.3632 38.2257C35.3194 38.1985 35.2688 38.1841 35.2172 38.1841C35.1656 38.1841 35.115 38.1985 35.0712 38.2257C35.0274 38.253 34.992 38.2919 34.9691 38.3382L33.5003 41.3144C33.4804 41.3547 33.4511 41.3894 33.4148 41.4158C33.3785 41.4422 33.3363 41.4593 33.2919 41.4658L30.0074 41.943C29.9563 41.9503 29.9081 41.9717 29.8685 42.0049C29.8289 42.0382 29.7995 42.0818 29.7835 42.131C29.7675 42.1801 29.7656 42.2328 29.778 42.283C29.7905 42.3331 29.8168 42.3788 29.8539 42.4148L32.2306 44.7314C32.2956 44.7951 32.3255 44.8866 32.3103 44.9763L31.9431 47.1181Z" fill="#FBE158"/>
<path d="M144.783 54.9348C153.187 54.9348 160 48.1217 160 39.7174C160 31.3131 153.187 24.5 144.783 24.5C136.378 24.5 129.565 31.3131 129.565 39.7174C129.565 48.1217 136.378 54.9348 144.783 54.9348Z" fill="#FABC3D"/>
<path d="M149.486 33.077H147.273V31.9702C147.273 31.6767 147.156 31.3952 146.949 31.1877C146.741 30.9801 146.459 30.8635 146.166 30.8635H143.953C143.659 30.8635 143.378 30.9801 143.17 31.1877C142.962 31.3952 142.846 31.6767 142.846 31.9702V33.077H140.632C140.192 33.077 139.77 33.2519 139.459 33.5632C139.147 33.8745 138.972 34.2968 138.972 34.737V46.911C138.972 47.3512 139.147 47.7735 139.459 48.0848C139.77 48.3961 140.192 48.571 140.632 48.571H149.486C149.926 48.571 150.349 48.3961 150.66 48.0848C150.971 47.7735 151.146 47.3512 151.146 46.911V34.737C151.146 34.2968 150.971 33.8745 150.66 33.5632C150.349 33.2519 149.926 33.077 149.486 33.077Z" fill="white"/>
<path d="M150.039 46.9111C150.039 47.0579 149.981 47.1986 149.877 47.3024C149.774 47.4062 149.633 47.4645 149.486 47.4645H140.632C140.486 47.4645 140.345 47.4062 140.241 47.3024C140.137 47.1986 140.079 47.0579 140.079 46.9111V34.7372C140.079 34.5904 140.137 34.4497 140.241 34.3459C140.345 34.2421 140.486 34.1838 140.632 34.1838H149.486C149.633 34.1838 149.774 34.2421 149.877 34.3459C149.981 34.4497 150.039 34.5904 150.039 34.7372V46.9111Z" fill="#E2E4E5"/>
<path d="M140.632 34.1838H145.059V47.4645H140.632C140.486 47.4645 140.345 47.4062 140.241 47.3024C140.137 47.1986 140.079 47.0579 140.079 46.9111V34.7372C140.079 34.5904 140.137 34.4497 140.241 34.3459C140.345 34.2421 140.486 34.1838 140.632 34.1838Z" fill="#F0F1F1"/>
<path d="M150.039 46.9109C150.039 47.0577 149.981 47.1985 149.877 47.3022C149.774 47.406 149.633 47.4643 149.486 47.4643H140.632C140.486 47.4643 140.345 47.406 140.241 47.3022C140.137 47.1985 140.079 47.0577 140.079 46.9109V45.2509C140.079 45.1041 140.137 44.9634 140.241 44.8596C140.345 44.7558 140.486 44.6975 140.632 44.6975H149.486C149.633 44.6975 149.774 44.7558 149.877 44.8596C149.981 44.9634 150.039 45.1041 150.039 45.2509V46.9109Z" fill="#DF2C2C"/>
<path d="M145.059 44.6975H140.632C140.486 44.6975 140.345 44.7558 140.241 44.8596C140.137 44.9634 140.079 45.1041 140.079 45.2509V46.9109C140.079 47.0577 140.137 47.1985 140.241 47.3022C140.345 47.406 140.486 47.4643 140.632 47.4643H145.059V44.6975Z" fill="#FA5655"/>
<path d="M90 109.717C98.4043 109.717 105.217 102.904 105.217 94.5001C105.217 86.0958 98.4043 79.2827 90 79.2827C81.5957 79.2827 74.7826 86.0958 74.7826 94.5001C74.7826 102.904 81.5957 109.717 90 109.717Z" fill="#E04F5F"/>
<path d="M98.8537 100.034C98.8537 100.327 98.7371 100.609 98.5296 100.816C98.322 101.024 98.0405 101.14 97.747 101.14H82.253C81.9594 101.14 81.6779 101.024 81.4704 100.816C81.2628 100.609 81.1462 100.327 81.1462 100.034V88.9663C81.1462 88.6728 81.2628 88.3913 81.4704 88.1838C81.6779 87.9762 81.9594 87.8596 82.253 87.8596H97.747C98.0405 87.8596 98.322 87.9762 98.5296 88.1838C98.7371 88.3913 98.8537 88.6728 98.8537 88.9663V100.034Z" fill="#F0F1F1"/>
<path d="M82.253 87.8596C81.9594 87.8596 81.6779 87.9762 81.4704 88.1838C81.2628 88.3913 81.1462 88.6728 81.1462 88.9663V100.034C81.1462 100.406 81.3316 100.734 81.6138 100.934L94.6886 87.8596H82.253Z" fill="white"/>
<path d="M87.7865 100.034C90.8426 100.034 93.3201 97.5563 93.3201 94.5001C93.3201 91.444 90.8426 88.9666 87.7865 88.9666C84.7304 88.9666 82.2529 91.444 82.2529 94.5001C82.2529 97.5563 84.7304 100.034 87.7865 100.034Z" fill="#3E3E3F"/>
<path d="M82.8063 90.0733C83.1119 90.0733 83.3596 89.8255 83.3596 89.5199C83.3596 89.2143 83.1119 88.9666 82.8063 88.9666C82.5007 88.9666 82.2529 89.2143 82.2529 89.5199C82.2529 89.8255 82.5007 90.0733 82.8063 90.0733Z" fill="#818284"/>
<path d="M97.747 99.4802C97.747 99.7846 97.498 100.034 97.1936 100.034H96.0869C95.7826 100.034 95.5336 99.7846 95.5336 99.4802V95.0534C95.5336 94.749 95.7826 94.5 96.0869 94.5H97.1936C97.498 94.5 97.747 94.749 97.747 95.0534V99.4802Z" fill="#B6BCBD"/>
<path d="M94.9803 92.2867C95.8971 92.2867 96.6403 91.5435 96.6403 90.6266C96.6403 89.7098 95.8971 88.9666 94.9803 88.9666C94.0634 88.9666 93.3202 89.7098 93.3202 90.6266C93.3202 91.5435 94.0634 92.2867 94.9803 92.2867Z" fill="#3E3E3F"/>
<path d="M96.022 89.8006C96.0052 89.8329 95.9823 89.8615 95.9544 89.8849C95.9266 89.9083 95.8944 89.926 95.8598 89.9369C95.8251 89.9479 95.7886 89.9519 95.7524 89.9487C95.7162 89.9456 95.681 89.9353 95.6487 89.9185L95.1579 89.6631C95.1256 89.6464 95.097 89.6234 95.0736 89.5956C95.0502 89.5678 95.0326 89.5356 95.0216 89.5009C95.0107 89.4663 95.0067 89.4298 95.0098 89.3936C95.013 89.3574 95.0233 89.3221 95.04 89.2899L95.423 88.5537C95.4397 88.5214 95.4627 88.4928 95.4905 88.4694C95.5183 88.446 95.5505 88.4283 95.5852 88.4174C95.6198 88.4064 95.6563 88.4024 95.6925 88.4056C95.7287 88.4087 95.764 88.419 95.7962 88.4358L96.287 88.6912C96.3193 88.7079 96.3479 88.7309 96.3713 88.7587C96.3947 88.7865 96.4124 88.8187 96.4233 88.8534C96.4342 88.888 96.4383 88.9245 96.4351 88.9607C96.4319 88.9969 96.4217 89.0322 96.4049 89.0644L96.022 89.8006Z" fill="#CFD3D4"/>
<path d="M95.6487 89.9182L95.1579 89.6631L92.1532 95.4391L90.4668 96.6689L90.7927 97.116L92.5812 95.8117L92.5762 95.8051L92.5842 95.8093L95.6487 89.9182Z" fill="#5B5C5F"/>
<path d="M89.5152 97.7122L89.5086 97.7033C89.423 97.586 89.3876 97.4394 89.41 97.2959C89.4325 97.1524 89.511 97.0237 89.6284 96.938L90.3035 96.4456L90.9556 97.3398L90.2805 97.8323C90.1631 97.9177 90.0165 97.9531 89.873 97.9306C89.7295 97.9081 89.6009 97.8295 89.5152 97.7122Z" fill="#818284"/>
<path d="M96.6403 96.1599C96.9459 96.1599 97.1936 95.9122 97.1936 95.6066C97.1936 95.301 96.9459 95.0532 96.6403 95.0532C96.3347 95.0532 96.0869 95.301 96.0869 95.6066C96.0869 95.9122 96.3347 96.1599 96.6403 96.1599Z" fill="#F0F1F1"/>
<path d="M96.6403 97.8201C96.9459 97.8201 97.1936 97.5724 97.1936 97.2667C97.1936 96.9611 96.9459 96.7134 96.6403 96.7134C96.3347 96.7134 96.0869 96.9611 96.0869 97.2667C96.0869 97.5724 96.3347 97.8201 96.6403 97.8201Z" fill="#F0F1F1"/>
<path d="M96.6403 99.4803C96.9459 99.4803 97.1936 99.2325 97.1936 98.9269C97.1936 98.6213 96.9459 98.3735 96.6403 98.3735C96.3347 98.3735 96.0869 98.6213 96.0869 98.9269C96.0869 99.2325 96.3347 99.4803 96.6403 99.4803Z" fill="#F0F1F1"/>
<path d="M94.9802 91.18C95.2859 91.18 95.5336 90.9322 95.5336 90.6266C95.5336 90.321 95.2859 90.0732 94.9802 90.0732C94.6746 90.0732 94.4269 90.321 94.4269 90.6266C94.4269 90.9322 94.6746 91.18 94.9802 91.18Z" fill="white"/>
<path d="M87.7865 88.9666C84.7303 88.9666 82.2529 91.4439 82.2529 94.5001C82.2529 95.7684 82.6843 96.9335 83.402 97.8668L91.1532 90.1156C90.2199 89.3979 89.0548 88.9666 87.7865 88.9666Z" fill="#5B5C5F"/>
<path d="M87.7866 96.7135C89.009 96.7135 90 95.7225 90 94.5001C90 93.2776 89.009 92.2866 87.7866 92.2866C86.5641 92.2866 85.5731 93.2776 85.5731 94.5001C85.5731 95.7225 86.5641 96.7135 87.7866 96.7135Z" fill="#DF2C2C"/>
<path d="M87.7865 94.932C88.0252 94.932 88.2187 94.7385 88.2187 94.4998C88.2187 94.2611 88.0252 94.0676 87.7865 94.0676C87.5479 94.0676 87.3544 94.2611 87.3544 94.4998C87.3544 94.7385 87.5479 94.932 87.7865 94.932Z" fill="white"/>
<path d="M87.7866 92.2866C87.1995 92.2866 86.6365 92.5198 86.2214 92.9349C85.8063 93.35 85.5731 93.913 85.5731 94.5001C85.5731 94.8484 85.6558 95.1765 85.7992 95.4698L88.7563 92.5127C88.4546 92.3642 88.1228 92.2869 87.7866 92.2866Z" fill="#FA5655"/>
<path d="M90 54.9348C98.4043 54.9348 105.217 48.1217 105.217 39.7174C105.217 31.3131 98.4043 24.5 90 24.5C81.5957 24.5 74.7826 31.3131 74.7826 39.7174C74.7826 48.1217 81.5957 54.9348 90 54.9348Z" fill="#25B7D3"/>
<path d="M98.8537 44.8986C98.8538 45.0043 98.833 45.109 98.7926 45.2067C98.7521 45.3044 98.6928 45.3931 98.6181 45.4678C98.5433 45.5426 98.4546 45.6019 98.3569 45.6423C98.2593 45.6827 98.1546 45.7035 98.0489 45.7035H81.9511C81.8454 45.7035 81.7407 45.6827 81.6431 45.6423C81.5454 45.6019 81.4566 45.5426 81.3819 45.4678C81.3072 45.3931 81.2479 45.3044 81.2074 45.2067C81.167 45.109 81.1462 45.0043 81.1462 44.8986V33.6303C81.1462 33.5246 81.167 33.4199 81.2074 33.3223C81.2479 33.2246 81.3072 33.1358 81.3819 33.0611C81.4566 32.9864 81.5454 32.9271 81.6431 32.8866C81.7407 32.8462 81.8454 32.8254 81.9511 32.8254H98.0489C98.1546 32.8254 98.2593 32.8462 98.3569 32.8866C98.4546 32.9271 98.5433 32.9864 98.6181 33.0611C98.6928 33.1358 98.7521 33.2246 98.7926 33.3223C98.833 33.4199 98.8538 33.5246 98.8537 33.6303V44.8986Z" fill="#3E3E3F"/>
<path d="M87.5854 45.7036H92.4149V47.7663H87.5854V45.7036Z" fill="#E2E4E5"/>
<path d="M94.0244 48.1687C94.0244 48.3909 93.8442 48.5713 93.6218 48.5713H86.378C86.2713 48.5713 86.1689 48.5288 86.0934 48.4533C86.0179 48.3778 85.9755 48.2755 85.9755 48.1687C85.9755 48.0619 86.0179 47.9595 86.0934 47.884C86.1689 47.8085 86.2713 47.7661 86.378 47.7661H93.6221C93.7288 47.7663 93.831 47.8087 93.9065 47.8842C93.9819 47.9597 94.0243 48.062 94.0244 48.1687Z" fill="#F0F1F1"/>
<path d="M98.8537 44.8987V42.4841H81.1462V44.8987C81.1463 45.1122 81.2311 45.3168 81.3821 45.4678C81.533 45.6187 81.7377 45.7035 81.9511 45.7036H98.0489C98.2623 45.7035 98.467 45.6187 98.6179 45.4678C98.7689 45.3168 98.8537 45.1122 98.8537 44.8987Z" fill="white"/>
<path d="M90 45.2258C89.7132 45.2255 89.4383 45.1115 89.2356 44.9087C89.0328 44.706 88.9188 44.431 88.9185 44.1443C88.9185 43.548 89.4038 43.0627 90 43.0627C90.5962 43.0627 91.0815 43.5478 91.0815 44.1443C91.0812 44.431 90.9672 44.706 90.7644 44.9087C90.5617 45.1115 90.2868 45.2255 90 45.2258ZM90 43.6161C89.8599 43.6162 89.7256 43.6718 89.6266 43.7709C89.5276 43.8699 89.4719 44.0042 89.4718 44.1443C89.4718 44.4356 89.7087 44.6725 90 44.6725C90.2913 44.6725 90.5282 44.4356 90.5282 44.1443C90.528 44.0042 90.4723 43.87 90.3733 43.771C90.2743 43.6719 90.14 43.6163 90 43.6161Z" fill="#CFD3D4"/>
<path d="M81.1462 33.6054V42.4592H86.6035L96.2621 32.8005H81.9511C81.7377 32.8006 81.533 32.8854 81.3821 33.0364C81.2311 33.1873 81.1463 33.392 81.1462 33.6054Z" fill="#5B5C5F"/>
<path d="M83.1975 34.8725C83.1975 34.567 83.3021 34.3955 83.503 34.3955C83.7041 34.3955 83.8084 34.567 83.8084 34.8725C83.8084 35.1793 83.7038 35.3509 83.503 35.3509C83.3021 35.3509 83.1975 35.1793 83.1975 34.8725ZM83.6814 34.8725C83.6814 34.603 83.6158 34.4932 83.5032 34.4932C83.392 34.4932 83.3251 34.603 83.3251 34.8725C83.3251 35.1434 83.392 35.2532 83.5032 35.2532C83.6156 35.2529 83.6814 35.1431 83.6814 34.8725ZM83.503 34.7853C83.5539 34.7853 83.5915 34.8241 83.5915 34.8725C83.5915 34.922 83.5539 34.961 83.503 34.961C83.4914 34.9611 83.4799 34.9589 83.4692 34.9544C83.4585 34.95 83.4488 34.9434 83.4407 34.9352C83.4325 34.9269 83.4262 34.9171 83.4219 34.9064C83.4176 34.8956 83.4156 34.8841 83.4158 34.8725C83.4158 34.8241 83.4534 34.7853 83.503 34.7853ZM84.3026 34.5469L84.0815 34.6808L84.0226 34.595L84.3175 34.4113H84.426V35.2355H84.6149V35.3348H84.0762V35.2355H84.3028V34.5469H84.3026ZM86.143 34.5361L86.202 34.6285L85.733 34.9154L86.202 35.2034L86.1375 35.2933L85.6268 34.9743V34.8551L86.143 34.5361ZM86.8851 35.3348V34.9021H86.55V35.3348H86.4228V34.4116H86.55V34.7975H86.8851V34.4116H87.0124V35.3348H86.8851ZM87.5829 34.5186V35.3348H87.4556V34.5186H87.1701V34.4116H87.8723L87.859 34.5186H87.5829ZM88.5673 35.3348L88.5405 34.8617C88.5354 34.7586 88.5336 34.6553 88.5352 34.5521H88.5311L88.385 35.1699H88.263L88.1102 34.5521H88.105C88.105 34.5828 88.1077 34.7425 88.1022 34.8617L88.0795 35.3348H87.9617L88.014 34.4116H88.1827L88.3249 35.028H88.3302L88.4655 34.4116H88.6357L88.6879 35.3348H88.5673ZM88.9018 35.3348V34.4116H89.0291V35.2236H89.4485L89.4339 35.3348H88.9018ZM90.2202 34.8551V34.9743L89.7094 35.2933L89.645 35.2034L90.114 34.9154L89.645 34.6285L89.7039 34.5361L90.2202 34.8551ZM83.1975 36.4797C83.1975 36.1743 83.3021 36.0027 83.503 36.0027C83.7041 36.0027 83.8084 36.1743 83.8084 36.4797C83.8084 36.7866 83.7038 36.9581 83.503 36.9581C83.3021 36.9581 83.1975 36.7866 83.1975 36.4797ZM83.6814 36.4797C83.6814 36.2103 83.6158 36.1004 83.5032 36.1004C83.392 36.1004 83.3251 36.2103 83.3251 36.4797C83.3251 36.7506 83.392 36.8604 83.5032 36.8604C83.6156 36.8602 83.6814 36.7503 83.6814 36.4797ZM83.503 36.3926C83.5539 36.3926 83.5915 36.4313 83.5915 36.4797C83.5915 36.5293 83.5539 36.5683 83.503 36.5683C83.4914 36.5684 83.4799 36.5661 83.4692 36.5617C83.4585 36.5572 83.4488 36.5507 83.4407 36.5424C83.4325 36.5342 83.4262 36.5244 83.4219 36.5136C83.4176 36.5028 83.4156 36.4913 83.4158 36.4797C83.4158 36.4313 83.4534 36.3926 83.503 36.3926ZM84.1606 36.8389H84.5801L84.5654 36.9421H84.0159V36.8441C84.3349 36.5279 84.4329 36.4003 84.4329 36.2612C84.4329 36.1618 84.3659 36.1057 84.276 36.1057C84.1996 36.1057 84.1474 36.1339 84.0909 36.2047L84.0051 36.1444C84.0776 36.0548 84.1687 36.0022 84.2826 36.0022C84.4514 36.0022 84.5602 36.1095 84.5602 36.257C84.5599 36.418 84.4326 36.5788 84.1606 36.8389ZM86.143 36.1433L86.202 36.2357L85.733 36.5226L86.202 36.8106L86.1375 36.9006L85.6268 36.5816V36.4623L86.143 36.1433ZM86.6934 36.9421H86.4388V36.0188H86.6734C86.8383 36.0188 87.0032 36.0711 87.0032 36.252C87.0032 36.3699 86.9202 36.4316 86.8425 36.449V36.4543C86.9349 36.4717 87.0436 36.5254 87.0436 36.6781C87.0431 36.8804 86.8663 36.9421 86.6934 36.9421ZM86.6961 36.1192H86.5661V36.4086H86.7069C86.8143 36.4086 86.8732 36.3644 86.8732 36.2598C86.8729 36.158 86.806 36.1192 86.6961 36.1192ZM86.716 36.5104H86.5658V36.8389H86.7105C86.8004 36.8389 86.9089 36.8134 86.9089 36.6806C86.9092 36.5453 86.822 36.5104 86.716 36.5104ZM87.5212 36.9581C87.2946 36.9581 87.1781 36.7691 87.1781 36.4825C87.1781 36.2011 87.2946 36.0027 87.5212 36.0027C87.7478 36.0027 87.8643 36.1945 87.8643 36.4811C87.8643 36.7625 87.7475 36.9581 87.5212 36.9581ZM87.5212 36.107C87.3709 36.107 87.3106 36.2385 87.3106 36.4822C87.3106 36.726 87.3751 36.8535 87.5212 36.8535C87.6714 36.8535 87.7315 36.7249 87.7315 36.4808C87.7315 36.2371 87.6711 36.107 87.5212 36.107ZM88.2455 36.9421H88.0297V36.0188H88.2309C88.4494 36.0188 88.6664 36.0924 88.6664 36.4759C88.6664 36.8616 88.4414 36.9421 88.2455 36.9421ZM88.2591 36.1206H88.1573V36.8416H88.2605C88.3919 36.8416 88.5311 36.7747 88.5311 36.4759C88.5311 36.1621 88.385 36.1206 88.2591 36.1206ZM89.1926 36.5868V36.9421H89.064V36.5882L88.753 36.0185H88.8938L89.1298 36.4701H89.134L89.3711 36.0185H89.5036L89.1926 36.5868ZM90.2202 36.4623V36.5816L89.7094 36.9006L89.645 36.8106L90.114 36.5226L89.645 36.2357L89.7039 36.1433L90.2202 36.4623ZM83.1975 38.087C83.1975 37.7815 83.3021 37.61 83.503 37.61C83.7041 37.61 83.8084 37.7815 83.8084 38.087C83.8084 38.3938 83.7038 38.5653 83.503 38.5653C83.3021 38.5653 83.1975 38.3938 83.1975 38.087ZM83.6814 38.087C83.6814 37.8175 83.6158 37.7076 83.5032 37.7076C83.392 37.7076 83.3251 37.8175 83.3251 38.087C83.3251 38.3578 83.392 38.4677 83.5032 38.4677C83.6156 38.4674 83.6814 38.3576 83.6814 38.087ZM83.503 37.9998C83.5539 37.9998 83.5915 38.0386 83.5915 38.087C83.5915 38.1365 83.5539 38.1755 83.503 38.1755C83.4914 38.1756 83.4799 38.1733 83.4692 38.1689C83.4585 38.1645 83.4488 38.1579 83.4407 38.1497C83.4325 38.1414 83.4262 38.1316 83.4219 38.1208C83.4176 38.1101 83.4156 38.0986 83.4158 38.087C83.4158 38.0386 83.4534 37.9998 83.503 37.9998ZM84.2705 38.5653C84.1631 38.5653 84.0533 38.5266 83.9825 38.4408L84.0627 38.3739C84.088 38.4029 84.1193 38.4261 84.1545 38.4419C84.1896 38.4576 84.2278 38.4655 84.2663 38.4649C84.3908 38.4649 84.4661 38.3952 84.4661 38.2826C84.4661 38.1539 84.387 38.111 84.2785 38.111H84.2074L84.2221 38.0159H84.2705C84.359 38.0159 84.442 37.9663 84.442 37.859C84.442 37.761 84.367 37.7074 84.2719 37.7074C84.1927 37.7074 84.1379 37.7356 84.0776 37.7918L84.0107 37.7182C84.0898 37.6432 84.1808 37.6094 84.2788 37.6094C84.4556 37.6094 84.5657 37.7154 84.5657 37.8413C84.5657 37.9539 84.4827 38.0372 84.3903 38.0546V38.0599C84.447 38.0627 84.5004 38.0877 84.5388 38.1296C84.5772 38.1715 84.5975 38.2269 84.5953 38.2837C84.5947 38.4433 84.4647 38.5653 84.2705 38.5653ZM86.143 37.7505L86.202 37.8429L85.733 38.1299L86.202 38.4179L86.1375 38.5078L85.6268 38.1888V38.0695L86.143 37.7505ZM86.8851 38.5493V38.1166H86.55V38.5493H86.4228V37.6257H86.55V38.0117H86.8851V37.6257H87.0124V38.549H86.8851V38.5493ZM87.3964 37.7276V38.0291H87.7367V38.131H87.3964V38.4486H87.8134V38.549H87.2691V37.6257H87.8026L87.7879 37.7276H87.3964ZM88.499 38.3174H88.1437L88.0726 38.5493H87.9453L88.2442 37.626H88.4049L88.7037 38.5493H88.5698L88.499 38.3174ZM88.1747 38.2142H88.4683L88.3249 37.7411H88.3197L88.1747 38.2142ZM89.0493 38.5493H88.8335V37.6257H89.0346C89.2532 37.6257 89.4701 37.6993 89.4701 38.0828C89.4701 38.4688 89.2449 38.5493 89.0493 38.5493ZM89.0626 37.7276H88.9608V38.4486H89.064C89.1954 38.4486 89.3345 38.3816 89.3345 38.0828C89.3348 37.7693 89.1887 37.7276 89.0626 37.7276ZM89.8074 37.7276V38.0291H90.1477V38.131H89.8074V38.4486H90.2243V38.549H89.6801V37.6257H90.2136L90.1989 37.7276H89.8074ZM90.8361 38.142L91.1067 38.5493H90.9553L90.7088 38.1581H90.5909V38.5493H90.4637V37.6257H90.7063C90.9368 37.6257 91.0574 37.714 91.0574 37.8869C91.0572 38.0253 90.9606 38.1097 90.8361 38.142ZM90.7179 37.7251H90.5907V38.0601H90.7193C90.848 38.0601 90.9216 38.012 90.9216 37.8872C90.9219 37.7718 90.856 37.7251 90.7179 37.7251ZM91.8274 38.0695V38.1888L91.3167 38.5078L91.2522 38.4179L91.7212 38.1299L91.2522 37.8429L91.3111 37.7505L91.8274 38.0695ZM83.1975 39.6942C83.1975 39.3887 83.3021 39.2172 83.503 39.2172C83.7041 39.2172 83.8084 39.3887 83.8084 39.6942C83.8084 40.001 83.7038 40.1726 83.503 40.1726C83.3021 40.1726 83.1975 40.001 83.1975 39.6942ZM83.6814 39.6942C83.6814 39.4247 83.6158 39.3149 83.5032 39.3149C83.392 39.3149 83.3251 39.4247 83.3251 39.6942C83.3251 39.9651 83.392 40.0749 83.5032 40.0749C83.6156 40.0749 83.6814 39.9648 83.6814 39.6942ZM83.503 39.607C83.5539 39.607 83.5915 39.6458 83.5915 39.6942C83.5915 39.7437 83.5539 39.7827 83.503 39.7827C83.4914 39.7828 83.4799 39.7806 83.4692 39.7761C83.4585 39.7717 83.4488 39.7651 83.4407 39.7569C83.4325 39.7486 83.4262 39.7388 83.4219 39.7281C83.4176 39.7173 83.4156 39.7058 83.4158 39.6942C83.4158 39.6461 83.4534 39.607 83.503 39.607ZM84.4943 39.9355V40.1565H84.3751V39.9355H83.9971V39.8483L84.2677 39.2169L84.3709 39.2598L84.1269 39.8375H84.3748L84.387 39.5963H84.494V39.8375H84.6105V39.9355H84.4943ZM86.143 39.3578L86.202 39.4502L85.733 39.7371L86.202 40.0251L86.1375 40.115L85.6268 39.796V39.6768L86.143 39.3578ZM86.4817 40.296L86.3824 40.2517L86.9545 39.0711L87.0525 39.1182L86.4817 40.296ZM87.6886 40.1565V39.7238H87.3535V40.1565H87.2262V39.2333H87.3535V39.6192H87.6886V39.2333H87.8158V40.1565H87.6886ZM88.2002 39.3351V39.6367H88.5405V39.7385H88.2002V40.0561H88.6171V40.1565H88.0729V39.2333H88.6063L88.5917 39.3351H88.2002ZM89.3025 39.9247H88.9472L88.8761 40.1565H88.7488L89.0476 39.2333H89.2084L89.5072 40.1565H89.3733L89.3025 39.9247ZM88.9782 39.8215H89.2717L89.1284 39.3484H89.1229L88.9782 39.8215ZM89.8528 40.1565H89.637V39.2333H89.8381C90.0567 39.2333 90.2736 39.3069 90.2736 39.6903C90.2736 40.0763 90.0487 40.1565 89.8528 40.1565ZM89.8663 39.3351H89.7645V40.0561H89.8677C89.9991 40.0561 90.1383 39.9891 90.1383 39.6903C90.1383 39.3766 89.9922 39.3351 89.8663 39.3351ZM90.6109 39.3351V39.6367H90.9512V39.7385H90.6109V40.0561H91.0278V40.1565H90.4836V39.2333H91.017L91.0024 39.3351H90.6109ZM91.6396 39.749L91.9104 40.1565H91.7591L91.5126 39.7653H91.3944V40.1565H91.2672V39.2333H91.5098C91.7403 39.2333 91.8609 39.3215 91.8609 39.4944C91.8609 39.6325 91.7643 39.7169 91.6396 39.749ZM91.5217 39.3323H91.3944V39.6674H91.5231C91.6517 39.6674 91.7253 39.6192 91.7253 39.4944C91.7253 39.3793 91.6598 39.3323 91.5217 39.3323ZM92.6309 39.6768V39.796L92.1202 40.115L92.0557 40.0251L92.5247 39.7371L92.0557 39.4502L92.1146 39.3578L92.6309 39.6768Z" fill="white"/>
</svg>
