<svg width="179" height="133" viewBox="0 0 179 133" fill="none" xmlns="http://www.w3.org/2000/svg">
<rect width="179" height="133" fill="white"/>
<path d="M37.5683 31.7046C37.6319 31.6807 37.6998 31.6706 37.7676 31.6751C37.899 31.6845 38.0226 31.741 38.1158 31.8342C38.2089 31.9273 38.2654 32.0509 38.2748 32.1823C38.2748 32.8549 38.0076 33.5 37.532 33.9756C37.0564 34.4512 36.4113 34.7184 35.7387 34.7184C35.0661 34.7184 34.4211 34.4512 33.9454 33.9756C33.4698 33.5 33.2026 32.8549 33.2026 32.1823C33.2026 32.0478 33.2561 31.9188 33.3512 31.8237C33.4463 31.7286 33.5753 31.6751 33.7099 31.6751C33.8444 31.6751 33.9734 31.7286 34.0685 31.8237C34.1636 31.9188 34.2171 32.0478 34.2171 32.1823C34.2171 32.5859 34.3774 32.9729 34.6628 33.2583C34.9481 33.5437 35.3352 33.704 35.7387 33.704C36.1423 33.704 36.5293 33.5437 36.8147 33.2583C37.1001 32.9729 37.2604 32.5859 37.2604 32.1823C37.2559 32.1146 37.2659 32.0466 37.2898 31.983C37.3137 31.9195 37.351 31.8617 37.399 31.8137C37.447 31.7657 37.5047 31.7285 37.5683 31.7046Z" fill="#343434"/>
<path d="M45.1765 31.7046C45.2401 31.6807 45.308 31.6706 45.3758 31.6751C45.5072 31.6845 45.6308 31.741 45.724 31.8342C45.8171 31.9273 45.8736 32.0509 45.883 32.1823C45.883 32.8549 45.6158 33.5 45.1402 33.9756C44.6646 34.4512 44.0196 34.7184 43.347 34.7184C42.6743 34.7184 42.0293 34.4512 41.5537 33.9756C41.0781 33.5 40.8109 32.8549 40.8109 32.1823C40.8109 32.0478 40.8643 31.9188 40.9594 31.8237C41.0546 31.7286 41.1836 31.6751 41.3181 31.6751C41.4526 31.6751 41.5816 31.7286 41.6768 31.8237C41.7719 31.9188 41.8253 32.0478 41.8253 32.1823C41.8253 32.5859 41.9856 32.9729 42.271 33.2583C42.5564 33.5437 42.9434 33.704 43.347 33.704C43.7505 33.704 44.1376 33.5437 44.4229 33.2583C44.7083 32.9729 44.8686 32.5859 44.8686 32.1823C44.8641 32.1146 44.8742 32.0466 44.8981 31.983C44.922 31.9195 44.9592 31.8617 45.0072 31.8137C45.0552 31.7657 45.113 31.7285 45.1765 31.7046Z" fill="#343434"/>
<path fill-rule="evenodd" clip-rule="evenodd" d="M37.7675 40.805H44.3613C44.4958 40.805 44.6249 40.8584 44.72 40.9535C44.8151 41.0487 44.8685 41.1777 44.8685 41.3122C44.8685 41.4467 44.8151 41.5757 44.72 41.6708C44.6249 41.766 44.4958 41.8194 44.3613 41.8194H43.3469V42.8338C43.3469 43.5064 43.0797 44.1515 42.6041 44.6271C42.1285 45.1027 41.4834 45.3699 40.8108 45.3699C40.1382 45.3699 39.4931 45.1027 39.0175 44.6271C38.5419 44.1515 38.2747 43.5064 38.2747 42.8338V41.8194H37.7675C37.633 41.8194 37.504 41.766 37.4089 41.6708C37.3137 41.5757 37.2603 41.4467 37.2603 41.3122C37.2603 41.1777 37.3137 41.0487 37.4089 40.9535C37.504 40.8584 37.633 40.805 37.7675 40.805ZM41.8868 43.9098C42.1721 43.6244 42.3325 43.2374 42.3325 42.8338V41.8194H41.318V42.8338C41.318 42.9684 41.2646 43.0974 41.1695 43.1925C41.0744 43.2876 40.9453 43.3411 40.8108 43.3411C40.6763 43.3411 40.5473 43.2876 40.4522 43.1925C40.357 43.0974 40.3036 42.9684 40.3036 42.8338V41.8194H39.2892V42.8338C39.2892 43.2374 39.4495 43.6244 39.7349 43.9098C40.0202 44.1952 40.4073 44.3555 40.8108 44.3555C41.2144 44.3555 41.6014 44.1952 41.8868 43.9098Z" fill="#343434"/>
<path fill-rule="evenodd" clip-rule="evenodd" d="M48.9264 31.107C47.5253 28.7295 45.2929 26.9556 42.6604 26.1277C40.0278 25.2999 37.182 25.4768 34.6723 26.6245C32.1626 27.7721 30.1672 29.809 29.0715 32.3417C27.9757 34.8745 27.8573 37.7234 28.7392 40.3383L27.2683 41.0992L27.8262 38.5631C27.8833 38.299 27.8811 38.0255 27.8197 37.7624C27.7583 37.4992 27.6392 37.253 27.4711 37.0414C27.3019 36.8416 27.0925 36.6796 26.8566 36.566C26.6206 36.4524 26.3634 36.3897 26.1017 36.3821C25.7318 36.3872 25.3715 36.5003 25.065 36.7076C24.7586 36.9149 24.5195 37.2072 24.3771 37.5487C24.3264 37.5994 21.2324 43.5845 20.0658 46.1206C20.0152 46.2685 20.0152 46.4291 20.0658 46.5771L22.9569 52.5622C23.0022 52.6465 23.0676 52.7183 23.1472 52.7714C23.2268 52.8245 23.3182 52.8572 23.4134 52.8666H23.4641C27.674 52.3086 28.9421 51.7 32.3911 49.874C32.9761 49.5909 33.5218 49.2329 34.0142 48.8088C34.9779 47.9973 34.9272 47.3379 34.7243 46.8814C35.2792 47.1369 35.8565 47.3407 36.4489 47.4901C37.3759 47.7328 38.331 47.8522 39.2893 47.8451C41.7543 47.8401 44.1489 47.0224 46.1021 45.5185C48.0553 44.0147 49.458 41.9087 50.093 39.5268C50.4712 38.1166 50.5629 36.6449 50.3625 35.1987C50.1621 33.7525 49.6738 32.3612 48.9264 31.107ZM33.3548 48.048C32.9206 48.4094 32.4437 48.716 31.9346 48.961C28.6377 50.7363 27.4204 51.2942 23.7178 51.8014L21.0802 46.3742C22.3483 43.7367 25.2394 38.1066 25.2901 38.0559C25.3544 37.8883 25.4647 37.7423 25.6082 37.6347C25.7518 37.527 25.9228 37.462 26.1017 37.4472C26.2189 37.4498 26.3342 37.4783 26.4392 37.5306C26.5442 37.5829 26.6363 37.6578 26.709 37.7499C26.7817 37.842 26.8332 37.949 26.8597 38.0632C26.8862 38.1775 26.8872 38.2962 26.8625 38.4109L26.0509 42.0121C26.0328 42.1072 26.0423 42.2055 26.0783 42.2954C26.1142 42.3853 26.1751 42.463 26.2538 42.5194C26.3334 42.5778 26.4274 42.6133 26.5257 42.6223C26.6241 42.6312 26.7229 42.6132 26.8118 42.5701L36.7532 37.4066C36.9257 37.3154 37.1162 37.2634 37.3111 37.2545C37.4836 37.2675 37.6496 37.3259 37.7922 37.4239C37.9347 37.522 38.0488 37.656 38.1227 37.8124C38.1902 37.9375 38.2307 38.0755 38.2415 38.2173C38.2523 38.3591 38.2332 38.5015 38.1853 38.6355C38.1375 38.7694 38.062 38.8917 37.9639 38.9946C37.8657 39.0975 37.747 39.1786 37.6155 39.2326L33.4563 41.2615L29.6522 43.2802C29.5907 43.312 29.5364 43.3559 29.4926 43.4095C29.4488 43.463 29.4164 43.5249 29.3974 43.5914C29.3784 43.6579 29.3732 43.7276 29.3821 43.7962C29.391 43.8648 29.4139 43.9309 29.4493 43.9903C29.4972 44.0682 29.5644 44.1325 29.6443 44.1769C29.7243 44.2213 29.8143 44.2444 29.9058 44.2439C29.9934 44.2518 30.0815 44.2342 30.1594 44.1932L33.507 42.4179L33.7606 42.8744C33.801 42.9325 33.8279 42.9987 33.8395 43.0685C33.8511 43.1382 33.847 43.2096 33.8276 43.2776C33.8082 43.3456 33.7739 43.4084 33.7272 43.4614C33.6805 43.5145 33.6227 43.5566 33.5577 43.5845L30.6666 45.1062C30.6052 45.1379 30.5509 45.1819 30.507 45.2354C30.4632 45.289 30.4308 45.3509 30.4118 45.4174C30.3928 45.4839 30.3876 45.5536 30.3965 45.6222C30.4055 45.6908 30.4283 45.7568 30.4637 45.8163C30.5116 45.8942 30.5788 45.9584 30.6587 46.0029C30.7387 46.0473 30.8287 46.0704 30.9202 46.0699C31.0079 46.0778 31.0959 46.0602 31.1738 46.0192L33.6085 44.7004L33.8621 45.1569C33.9024 45.2149 33.9294 45.2812 33.9409 45.3509C33.9525 45.4207 33.9485 45.4921 33.929 45.5601C33.9096 45.628 33.8753 45.6908 33.8287 45.7439C33.782 45.797 33.7241 45.839 33.6592 45.867L31.0217 47.2872C30.9602 47.319 30.9059 47.3629 30.8621 47.4165C30.8183 47.47 30.7859 47.5319 30.7669 47.5984C30.7479 47.6649 30.7427 47.7346 30.7516 47.8032C30.7605 47.8718 30.7834 47.9379 30.8188 47.9973C30.8667 48.0752 30.9338 48.1395 31.0138 48.1839C31.0938 48.2283 31.1838 48.2514 31.2753 48.2509C31.3629 48.2588 31.451 48.2412 31.5289 48.2002L33.7099 47.0336L33.9635 47.4901C33.9169 47.4901 33.8703 47.5436 33.7943 47.6309C33.7047 47.7337 33.5743 47.8834 33.3548 48.048ZM49.0785 39.3239C48.399 41.9268 46.7134 44.1531 44.3925 45.5133C42.0716 46.8735 39.3055 47.2562 36.7025 46.5771C36.0733 46.419 35.4615 46.1981 34.8765 45.9177H34.8258C34.8863 45.7154 34.904 45.5026 34.8778 45.293C34.8516 45.0835 34.7821 44.8816 34.6736 44.7004L34.42 44.1932C34.6495 43.9638 34.7945 43.6634 34.8313 43.341C34.8682 43.0186 34.7947 42.6932 34.6229 42.4179L34.3693 41.9614L38.0719 40.1862C39.1878 39.5775 39.5936 38.4109 39.0357 37.3965C38.8827 37.0668 38.6396 36.7871 38.3344 36.5897C38.0293 36.3922 37.6745 36.2851 37.3111 36.2806C36.958 36.2864 36.611 36.3732 36.2967 36.5342L29.6522 39.9427C29.0539 38.088 28.9837 36.1035 29.4493 34.2112C29.7818 32.9235 30.3651 31.714 31.1659 30.6522C31.9666 29.5903 32.969 28.6969 34.1157 28.0231C36.4447 26.6657 39.2155 26.2829 41.8253 26.958C43.1166 27.2903 44.3294 27.8747 45.3938 28.6777C46.4583 29.4806 47.3533 30.4862 48.0275 31.6366C48.7017 32.7869 49.1416 34.0592 49.322 35.3803C49.5024 36.7014 49.4196 38.0451 49.0785 39.334V39.3239Z" fill="#343434"/>
<path fill-rule="evenodd" clip-rule="evenodd" d="M89.3832 31.4166C89.4071 31.4802 89.4172 31.5481 89.4127 31.6159C89.4127 32.5575 89.0386 33.4606 88.3728 34.1265C87.7069 34.7923 86.8039 35.1664 85.8622 35.1664C84.9205 35.1664 84.0175 34.7923 83.3516 34.1265C82.6858 33.4606 82.3117 32.5575 82.3117 31.6159C82.3072 31.5481 82.3173 31.4802 82.3412 31.4166C82.3651 31.353 82.4023 31.2953 82.4503 31.2473C82.4983 31.1992 82.556 31.162 82.6196 31.1381C82.6832 31.1142 82.7511 31.1042 82.8189 31.1087H88.9055C88.9733 31.1042 89.0412 31.1142 89.1048 31.1381C89.1683 31.162 89.2261 31.1992 89.2741 31.2473C89.3221 31.2953 89.3593 31.353 89.3832 31.4166ZM88.3526 32.1231H83.3768C83.478 32.7045 83.7856 33.2299 84.2431 33.6026C84.7007 33.9754 85.2774 34.1704 85.8673 34.1519C86.4565 34.1703 87.0326 33.975 87.4893 33.6022C87.946 33.2294 88.2526 32.7041 88.3526 32.1231Z" fill="#343434"/>
<path d="M83.3262 30.0943C83.5268 30.0943 83.723 30.0348 83.8898 29.9233C84.0566 29.8119 84.1866 29.6534 84.2634 29.4681C84.3402 29.2827 84.3603 29.0787 84.3211 28.882C84.282 28.6852 84.1854 28.5044 84.0435 28.3626C83.9016 28.2207 83.7209 28.1241 83.5241 28.0849C83.3273 28.0458 83.1234 28.0659 82.938 28.1427C82.7526 28.2194 82.5942 28.3495 82.4827 28.5163C82.3713 28.6831 82.3118 28.8792 82.3118 29.0799C82.3118 29.3489 82.4186 29.6069 82.6089 29.7972C82.7991 29.9874 83.0571 30.0943 83.3262 30.0943Z" fill="#343434"/>
<path d="M88.9618 29.9233C88.795 30.0348 88.5989 30.0943 88.3982 30.0943C88.1292 30.0943 87.8712 29.9874 87.6809 29.7972C87.4907 29.6069 87.3838 29.3489 87.3838 29.0799C87.3838 28.8792 87.4433 28.6831 87.5548 28.5163C87.6662 28.3495 87.8247 28.2194 88.01 28.1427C88.1954 28.0659 88.3993 28.0458 88.5961 28.0849C88.7929 28.1241 88.9737 28.2207 89.1155 28.3626C89.2574 28.5044 89.354 28.6852 89.3932 28.882C89.4323 29.0787 89.4122 29.2827 89.3354 29.4681C89.2587 29.6534 89.1286 29.8119 88.9618 29.9233Z" fill="#343434"/>
<path fill-rule="evenodd" clip-rule="evenodd" d="M102.184 47.7454L104.076 49.6221C104.317 49.8509 104.509 50.1263 104.64 50.4315C104.77 50.7367 104.838 51.0653 104.838 51.3973C104.838 51.7294 104.77 52.058 104.64 52.3632C104.509 52.6684 104.317 52.9438 104.076 53.1726L102.96 54.2378C102.863 54.3302 102.735 54.3843 102.6 54.3899C102.467 54.384 102.341 54.3299 102.245 54.2378L94.6371 46.6802C94.5876 46.6356 94.5483 46.5807 94.5221 46.5194C94.4958 46.4581 94.4831 46.3919 94.4849 46.3252V37.9054C93.9719 38.4743 93.2681 38.8352 92.5068 38.9198C91.6426 38.9307 90.8009 38.6442 90.1229 38.1083L93.927 47.6947C93.955 47.7694 93.9651 47.8497 93.9563 47.929C93.9474 48.0083 93.92 48.0844 93.8763 48.1512C93.7713 48.2673 93.6264 48.3397 93.4705 48.3541H89.4128V52.919C89.4128 53.3226 89.2525 53.7096 88.9671 53.995C88.6817 54.2803 88.2947 54.4406 87.8911 54.4406C87.4876 54.4406 87.1005 54.2803 86.8152 53.995C86.5298 53.7096 86.3695 53.3226 86.3695 52.919V48.3541H85.355V52.919C85.355 53.3226 85.1947 53.7096 84.9094 53.995C84.624 54.2803 84.237 54.4406 83.8334 54.4406C83.4298 54.4406 83.0428 54.2803 82.7574 53.995C82.4721 53.7096 82.3118 53.3226 82.3118 52.919V48.3541H78.254C78.1708 48.3484 78.0901 48.3223 78.0194 48.2781C77.9486 48.2339 77.8898 48.1728 77.8483 48.1004C77.8021 48.0348 77.7732 47.9585 77.7643 47.8787C77.7554 47.7989 77.7669 47.7182 77.7975 47.644L81.6017 38.0576L76.073 43.637C75.9782 43.7299 75.8507 43.7819 75.718 43.7819C75.5852 43.7819 75.4577 43.7299 75.3629 43.637C75.27 43.5421 75.2179 43.4147 75.2179 43.2819C75.2179 43.1491 75.27 43.0217 75.3629 42.9268L82.1596 36.0794C81.2724 35.4664 80.5464 34.6483 80.043 33.6946C79.5397 32.7409 79.274 31.6799 79.2685 30.6015C79.2628 29.5778 79.5065 28.5681 79.9786 27.6597C79.6262 27.9208 79.1998 28.0629 78.7612 28.0654C76.986 28.0654 75.4136 25.0729 75.2615 24.7685C75.2119 24.6932 75.1855 24.6051 75.1855 24.5149C75.1855 24.4248 75.2119 24.3366 75.2615 24.2613C75.3137 24.1876 75.3819 24.1265 75.4609 24.0826C75.5399 24.0387 75.6277 24.0131 75.718 24.0077H78.7612C79.2993 24.0077 79.8154 24.2215 80.1959 24.6019C80.5764 24.9824 80.7901 25.4985 80.7901 26.0366C80.7983 26.1738 80.7811 26.3114 80.7394 26.4423C81.3576 25.6795 82.1383 25.0644 83.0246 24.6418C83.9109 24.2193 84.8804 24 85.8623 24C86.8441 24 87.8136 24.2193 88.6999 24.6418C89.5862 25.0644 90.367 25.6795 90.9851 26.4423C90.9434 26.3114 90.9262 26.1738 90.9344 26.0366C90.9344 25.4985 91.1482 24.9824 91.5287 24.6019C91.9091 24.2215 92.4252 24.0077 92.9633 24.0077H96.0066C96.1788 24.0217 96.3414 24.0931 96.4681 24.2106C96.5046 24.2902 96.5235 24.3767 96.5235 24.4642C96.5235 24.5517 96.5046 24.6382 96.4681 24.7178C96.3109 25.0729 94.7385 28.0654 92.9633 28.0654C92.5247 28.0629 92.0983 27.9208 91.746 27.6597C92.218 28.5681 92.4617 29.5778 92.4561 30.6015C92.457 31.6878 92.1877 32.7573 91.6723 33.7135C91.157 34.6698 90.4119 35.4829 89.5041 36.0794C90.1077 36.8403 91.325 37.9561 92.4409 37.8547C93.2017 37.804 93.8611 37.1953 94.4697 36.0287V29.5871C94.4697 29.4526 94.5231 29.3235 94.6183 29.2284C94.7134 29.1333 94.8424 29.0799 94.9769 29.0799H95.4841V27.5582C95.4824 27.4916 95.495 27.4253 95.5213 27.364C95.5476 27.3027 95.5868 27.2478 95.6363 27.2032C95.6812 27.1539 95.7361 27.1149 95.7973 27.0886C95.8586 27.0624 95.9247 27.0495 95.9914 27.051H98.0202C98.088 27.0465 98.1559 27.0566 98.2195 27.0805C98.2831 27.1044 98.3408 27.1416 98.3888 27.1896C98.4369 27.2376 98.4741 27.2954 98.498 27.3589C98.5219 27.4225 98.5319 27.4904 98.5274 27.5582V29.0799H100.049C100.117 29.0754 100.185 29.0854 100.248 29.1093C100.312 29.1332 100.37 29.1704 100.418 29.2185C100.466 29.2665 100.503 29.3242 100.527 29.3878C100.551 29.4514 100.561 29.5193 100.556 29.5871V31.1087H101.064C101.264 31.1046 101.464 31.1411 101.651 31.2161C101.837 31.2911 102.007 31.403 102.149 31.5452C102.291 31.6873 102.403 31.8567 102.478 32.0432C102.553 32.2297 102.589 32.4294 102.585 32.6304V40.7458C102.589 40.9468 102.553 41.1465 102.478 41.333C102.403 41.5195 102.291 41.6889 102.149 41.831C102.007 41.9732 101.837 42.0851 101.651 42.1601C101.464 42.2351 101.264 42.2716 101.064 42.2675H100.556V43.8398C101.037 43.9526 101.477 44.1987 101.824 44.5499C102.068 44.7762 102.262 45.0511 102.393 45.3569C102.524 45.6627 102.59 45.9925 102.585 46.3252C102.578 46.8255 102.44 47.3152 102.184 47.7454ZM95.1443 25.0221H92.9633C92.6942 25.0221 92.4362 25.129 92.246 25.3193C92.0557 25.5095 91.9489 25.7675 91.9489 26.0366C91.9489 26.3056 92.0557 26.5636 92.246 26.7539C92.4362 26.9441 92.6942 27.051 92.9633 27.051C93.6734 27.051 94.5914 25.9351 95.1443 25.0221ZM76.5802 25.0221C77.1889 25.9351 78.0511 27.051 78.7612 27.051C79.0303 27.051 79.2883 26.9441 79.4786 26.7539C79.6688 26.5636 79.7757 26.3056 79.7757 26.0366C79.7757 25.7675 79.6688 25.5095 79.4786 25.3193C79.2883 25.129 79.0303 25.0221 78.7612 25.0221H76.5802ZM81.2232 27.5018C80.6101 28.4193 80.2829 29.498 80.2829 30.6015C80.2829 32.0813 80.8707 33.5004 81.9171 34.5467C82.9634 35.5931 84.3825 36.1809 85.8623 36.1809C86.9658 36.1809 88.0445 35.8537 88.962 35.2406C89.8795 34.6275 90.5946 33.7561 91.0169 32.7366C91.4392 31.7171 91.5497 30.5953 91.3344 29.513C91.1191 28.4307 90.5878 27.4366 89.8075 26.6563C89.0272 25.876 88.033 25.3446 86.9507 25.1293C85.8685 24.9141 84.7466 25.0246 83.7271 25.4468C82.7076 25.8691 81.8363 26.5843 81.2232 27.5018ZM84.1921 53.2777C84.2872 53.1825 84.3406 53.0535 84.3406 52.919V48.3541H83.3262V52.919C83.3262 53.0535 83.3796 53.1825 83.4747 53.2777C83.5699 53.3728 83.6989 53.4262 83.8334 53.4262C83.9679 53.4262 84.0969 53.3728 84.1921 53.2777ZM88.2498 53.2777C88.3449 53.1825 88.3983 53.0535 88.3983 52.919V48.3541H87.3839V52.919C87.3839 53.0535 87.4374 53.1825 87.5325 53.2777C87.6276 53.3728 87.7566 53.4262 87.8911 53.4262C88.0256 53.4262 88.1547 53.3728 88.2498 53.2777ZM83.2755 36.6374L79.0149 47.3396H92.7097L88.4491 36.6374C87.6368 37.0066 86.7546 37.1969 85.8623 37.1953C84.9706 37.1914 84.0895 37.0014 83.2755 36.6374ZM101.468 45.7454C101.389 45.5622 101.274 45.3971 101.129 45.26C100.978 45.095 100.785 44.9726 100.572 44.905V46.1223L101.439 46.9846C101.541 46.7801 101.591 46.5537 101.586 46.3252C101.587 46.1259 101.546 45.9286 101.468 45.7454ZM98.5427 41.253H101.079C101.146 41.2575 101.214 41.2475 101.278 41.2236C101.342 41.1997 101.399 41.1625 101.447 41.1144C101.495 41.0664 101.533 41.0087 101.556 40.9451C101.58 40.8815 101.59 40.8136 101.586 40.7458V40.2386H98.5427V41.253ZM101.586 34.152H98.5427V35.1665H101.586V34.152ZM101.586 36.1809H98.5427V37.1953H101.586V36.1809ZM101.586 38.2097H98.5427V39.2242H101.586V38.2097ZM101.586 33.1376V32.6304C101.59 32.5626 101.58 32.4947 101.556 32.4311C101.533 32.3675 101.495 32.3098 101.447 32.2618C101.399 32.2137 101.342 32.1765 101.278 32.1526C101.214 32.1287 101.146 32.1187 101.079 32.1232H98.5427V33.1376H101.586ZM97.5282 28.0654H96.5138V29.0799H97.5282V28.0654ZM99.5571 30.0943H95.4994V45.818H99.5571V42.2675H98.0354C97.9009 42.2675 97.7719 42.214 97.6768 42.1189C97.5817 42.0238 97.5282 41.8948 97.5282 41.7603V31.6159C97.5282 31.4814 97.5817 31.3524 97.6768 31.2573C97.7719 31.1622 97.9009 31.1087 98.0354 31.1087H99.5571V30.0943ZM102.6 53.1726L103.361 52.4625H103.366C103.634 52.1722 103.782 51.792 103.782 51.3973C103.782 51.0027 103.634 50.6225 103.366 50.3322L99.8665 46.8324H96.2145L102.6 53.1726Z" fill="#343434"/>
<path d="M132.77 31.462C132.865 31.5549 132.992 31.607 133.125 31.607C133.258 31.607 133.385 31.5549 133.48 31.462L134.393 30.549L135.306 31.462C135.401 31.5549 135.528 31.607 135.661 31.607C135.794 31.607 135.921 31.5549 136.016 31.462C136.109 31.3672 136.161 31.2397 136.161 31.107C136.161 30.9742 136.109 30.8467 136.016 30.7519L135.103 29.8389L136.016 28.9259C136.089 28.8283 136.125 28.7074 136.116 28.5856C136.107 28.4639 136.055 28.3493 135.969 28.2629C135.883 28.1766 135.768 28.1243 135.646 28.1157C135.524 28.107 135.404 28.1426 135.306 28.2158L134.393 29.1288L133.48 28.2158C133.382 28.1426 133.261 28.107 133.14 28.1157C133.018 28.1243 132.903 28.1766 132.817 28.2629C132.731 28.3493 132.678 28.4639 132.67 28.5856C132.661 28.7074 132.697 28.8283 132.77 28.9259L133.683 29.8389L132.77 30.7519C132.677 30.8467 132.625 30.9742 132.625 31.107C132.625 31.2397 132.677 31.3672 132.77 31.462Z" fill="#343434"/>
<path d="M138.704 31.607C138.571 31.607 138.444 31.5549 138.349 31.462C138.256 31.3672 138.204 31.2397 138.204 31.107C138.204 30.9742 138.256 30.8467 138.349 30.7519L139.262 29.8389L138.349 28.9259C138.276 28.8283 138.24 28.7074 138.249 28.5856C138.258 28.4639 138.31 28.3493 138.396 28.2629C138.483 28.1766 138.597 28.1243 138.719 28.1157C138.841 28.107 138.962 28.1426 139.059 28.2158L139.972 29.1288L140.885 28.2158C140.983 28.1426 141.104 28.107 141.225 28.1157C141.347 28.1243 141.462 28.1766 141.548 28.2629C141.634 28.3493 141.687 28.4639 141.695 28.5856C141.704 28.7074 141.669 28.8283 141.595 28.9259L140.682 29.8389L141.595 30.7519C141.688 30.8467 141.74 30.9742 141.74 31.107C141.74 31.2397 141.688 31.3672 141.595 31.462C141.5 31.5549 141.373 31.607 141.24 31.607C141.107 31.607 140.98 31.5549 140.885 31.462L139.972 30.549L139.059 31.462C138.964 31.5549 138.837 31.607 138.704 31.607Z" fill="#343434"/>
<path fill-rule="evenodd" clip-rule="evenodd" d="M133.632 33.643H133.125C132.99 33.643 132.861 33.5896 132.766 33.4945C132.671 33.3994 132.618 33.2704 132.618 33.1358C132.618 33.0013 132.671 32.8723 132.766 32.7772C132.861 32.6821 132.99 32.6286 133.125 32.6286H140.733C140.868 32.6286 140.997 32.6821 141.092 32.7772C141.187 32.8723 141.24 33.0013 141.24 33.1358C141.24 33.2704 141.187 33.3994 141.092 33.4945C140.997 33.5896 140.868 33.643 140.733 33.643H138.704V34.6575C138.704 35.3301 138.437 35.9752 137.961 36.4508C137.486 36.9264 136.841 37.1936 136.168 37.1936C135.495 37.1936 134.85 36.9264 134.375 36.4508C133.899 35.9752 133.632 35.3301 133.632 34.6575V33.643ZM136.367 35.1352C136.304 35.1591 136.236 35.1692 136.168 35.1647C136.1 35.1692 136.032 35.1591 135.969 35.1352C135.905 35.1113 135.847 35.0741 135.799 35.0261C135.751 34.9781 135.714 34.9203 135.69 34.8568C135.666 34.7932 135.656 34.7252 135.661 34.6575V33.643H134.646V34.6575C134.646 35.061 134.807 35.4481 135.092 35.7334C135.377 36.0188 135.764 36.1791 136.168 36.1791C136.572 36.1791 136.959 36.0188 137.244 35.7334C137.529 35.4481 137.69 35.061 137.69 34.6575V33.643H136.675V34.6575C136.68 34.7252 136.67 34.7932 136.646 34.8568C136.622 34.9203 136.585 34.9781 136.537 35.0261C136.489 35.0741 136.431 35.1113 136.367 35.1352Z" fill="#343434"/>
<path fill-rule="evenodd" clip-rule="evenodd" d="M137.182 39.2224C138.687 39.2224 140.158 38.7762 141.409 37.9402C142.661 37.1042 143.636 35.9159 144.212 34.5257C144.787 33.1355 144.938 31.6057 144.645 30.1299C144.351 28.654 143.626 27.2984 142.562 26.2343C141.498 25.1703 140.143 24.4457 138.667 24.1521C137.191 23.8585 135.661 24.0092 134.271 24.5851C132.881 25.1609 131.692 26.1361 130.856 27.3872C130.02 28.6384 129.574 30.1094 129.574 31.6142C129.574 33.632 130.376 35.5672 131.803 36.994C133.229 38.4208 135.165 39.2224 137.182 39.2224ZM137.182 25.0204C138.487 25.0204 139.761 25.4071 140.846 26.1316C141.93 26.8561 142.775 27.886 143.274 29.0908C143.773 30.2957 143.904 31.6215 143.65 32.9005C143.395 34.1796 142.767 35.3545 141.845 36.2767C140.923 37.1988 139.748 37.8268 138.469 38.0813C137.19 38.3357 135.864 38.2051 134.659 37.706C133.454 37.207 132.424 36.3618 131.7 35.2775C130.975 34.1931 130.589 32.9183 130.589 31.6142C130.589 29.8654 131.283 28.1882 132.52 26.9516C133.757 25.7151 135.434 25.0204 137.182 25.0204Z" fill="#343434"/>
<path fill-rule="evenodd" clip-rule="evenodd" d="M159.855 32.7807L156.305 29.2302C156.207 29.1569 156.086 29.1214 155.964 29.13C155.843 29.1387 155.728 29.191 155.642 29.2773C155.555 29.3636 155.503 29.4782 155.494 29.6C155.486 29.7218 155.521 29.8426 155.595 29.9403L157.015 31.3605L155.189 33.1865L152.754 30.7518C152.656 30.6786 152.536 30.643 152.414 30.6517C152.292 30.6603 152.177 30.7126 152.091 30.799C152.005 30.8853 151.953 30.9999 151.944 31.1217C151.935 31.2434 151.971 31.3643 152.044 31.4619L152.703 32.1213L145.957 38.8673C145.865 38.9621 145.812 39.0896 145.812 39.2223C145.812 39.3551 145.865 39.4826 145.957 39.5774L147.631 41.2512L145.805 43.0772L144.639 41.9106C143.845 41.1888 142.82 40.775 141.748 40.744H133.125C132.653 40.7239 132.183 40.802 131.743 40.9733C131.303 41.1446 130.903 41.4054 130.57 41.7392C130.236 42.073 129.975 42.4725 129.804 42.9124C129.632 43.3522 129.554 43.8229 129.574 44.2945V53.9316C129.57 53.9994 129.58 54.0673 129.604 54.1309C129.628 54.1945 129.665 54.2522 129.713 54.3002C129.761 54.3482 129.819 54.3854 129.882 54.4093C129.946 54.4332 130.014 54.4433 130.082 54.4388C130.149 54.4433 130.217 54.4332 130.281 54.4093C130.344 54.3854 130.402 54.3482 130.45 54.3002C130.498 54.2522 130.535 54.1945 130.559 54.1309C130.583 54.0673 130.593 53.9994 130.589 53.9316V44.2945C130.577 43.9582 130.634 43.623 130.757 43.3099C130.88 42.9967 131.067 42.7123 131.305 42.4744C131.543 42.2364 131.827 42.0501 132.14 41.9269C132.453 41.8037 132.789 41.7464 133.125 41.7584H141.748C142.55 41.7971 143.317 42.1003 143.929 42.6207L149.001 47.6928C149.096 47.7858 149.223 47.8378 149.356 47.8378C149.489 47.8378 149.616 47.7858 149.711 47.6928L154.276 43.1279C154.419 42.9574 154.597 42.8202 154.799 42.7261C155 42.632 155.22 42.5832 155.442 42.5832C155.665 42.5832 155.885 42.632 156.086 42.7261C156.288 42.8202 156.466 42.9574 156.609 43.1279C156.761 43.2801 157.978 44.5481 157.116 45.4611L149.356 53.2215L143.624 47.49C143.556 47.4134 143.464 47.3618 143.363 47.3435C143.262 47.3251 143.157 47.3409 143.066 47.3885C142.972 47.4191 142.89 47.4808 142.835 47.5637C142.779 47.6466 142.754 47.7457 142.762 47.845V53.9316C142.762 54.0661 142.815 54.1951 142.911 54.2903C143.006 54.3854 143.135 54.4388 143.269 54.4388C143.404 54.4388 143.533 54.3854 143.628 54.2903C143.723 54.1951 143.776 54.0661 143.776 53.9316V49.0623L149.001 54.2866C149.096 54.3796 149.223 54.4316 149.356 54.4316C149.489 54.4316 149.616 54.3796 149.711 54.2866L157.826 46.1712C158.079 45.9153 158.262 45.5997 158.36 45.2539C158.457 44.908 158.466 44.5431 158.384 44.1931C158.197 43.5157 157.829 42.902 157.319 42.4178C157.076 42.165 156.785 41.9638 156.462 41.8264C156.14 41.689 155.793 41.6181 155.442 41.6181C155.092 41.6181 154.745 41.689 154.422 41.8264C154.1 41.9638 153.808 42.165 153.566 42.4178L149.356 46.6277L146.515 43.7873L148.341 41.9613L150.015 43.6351C150.11 43.7281 150.237 43.7801 150.37 43.7801C150.503 43.7801 150.63 43.7281 150.725 43.6351L157.471 36.8892L158.131 37.5485C158.225 37.6415 158.353 37.6935 158.486 37.6935C158.618 37.6935 158.746 37.6415 158.841 37.5485C158.934 37.4537 158.986 37.3262 158.986 37.1935C158.986 37.0607 158.934 36.9332 158.841 36.8384L155.899 33.8966L157.725 32.0706L159.145 33.4908C159.24 33.5837 159.367 33.6358 159.5 33.6358C159.633 33.6358 159.76 33.5837 159.855 33.4908C159.948 33.396 160 33.2685 160 33.1358C160 33.003 159.948 32.8755 159.855 32.7807ZM154.428 38.5122L152.754 36.8384C152.656 36.7652 152.536 36.7296 152.414 36.7383C152.292 36.7469 152.177 36.7992 152.091 36.8855C152.005 36.9719 151.953 37.0865 151.944 37.2082C151.935 37.33 151.971 37.4509 152.044 37.5485L153.718 39.2223L152.399 40.5411L150.725 38.8673C150.628 38.794 150.507 38.7585 150.385 38.7671C150.263 38.7758 150.149 38.8281 150.062 38.9144C149.976 39.0007 149.924 39.1153 149.915 39.2371C149.906 39.3589 149.942 39.4797 150.015 39.5774L151.689 41.2512L150.37 42.57L147.023 39.2223L153.414 32.8314L156.761 36.1791L154.428 38.5122Z" fill="#343434"/>
<path fill-rule="evenodd" clip-rule="evenodd" d="M28.1015 84.1653C28.1254 84.2289 28.1354 84.2968 28.1309 84.3646C28.1309 85.5312 26.7615 86.9007 25.0877 86.9007C23.4138 86.9007 22.0444 85.5312 22.0444 84.3646C22.0399 84.2968 22.0499 84.2289 22.0738 84.1653C22.0977 84.1017 22.1349 84.044 22.183 83.996C22.231 83.9479 22.2887 83.9107 22.3523 83.8868C22.4159 83.8629 22.4838 83.8529 22.5516 83.8574H27.6237C27.6915 83.8529 27.7594 83.8629 27.823 83.8868C27.8866 83.9107 27.9443 83.9479 27.9923 83.996C28.0404 84.044 28.0776 84.1017 28.1015 84.1653ZM26.9136 84.8718H23.211C23.4095 85.1828 23.6831 85.4388 24.0067 85.6162C24.3303 85.7935 24.6933 85.8865 25.0623 85.8865C25.4313 85.8865 25.7943 85.7935 26.1179 85.6162C26.4414 85.4388 26.7151 85.1828 26.9136 84.8718Z" fill="#343434"/>
<path fill-rule="evenodd" clip-rule="evenodd" d="M30.0614 82.9443C30.2603 84.0311 30.0989 85.1531 29.6017 86.1398L35.6883 92.2264C36.6383 93.2734 37.1943 94.6184 37.2607 96.0305V107.189C37.2607 107.727 37.0469 108.243 36.6665 108.624C36.286 109.004 35.7699 109.218 35.2318 109.218C34.6937 109.218 34.1777 109.004 33.7972 108.624C33.4167 108.243 33.203 107.727 33.203 107.189V97.045C33.1422 95.8999 32.6952 94.8093 31.9349 93.9509L30.1597 92.1757V99.0738C30.1597 99.6119 29.9459 100.128 29.5654 100.508C29.185 100.889 28.6689 101.103 28.1308 101.103C27.5927 101.103 27.0767 100.889 26.6962 100.508C26.3157 100.128 26.102 99.6119 26.102 99.0738V88.8281C25.7671 88.8895 25.4279 88.9234 25.0875 88.9295C23.9827 88.9329 22.9069 88.5753 22.0238 87.9113C21.1408 87.2473 20.4986 86.3131 20.1951 85.2507C19.8916 84.1884 19.9433 83.0559 20.3423 82.0256C20.7413 80.9953 21.4659 80.1235 22.4057 79.5426C23.3456 78.9618 24.4495 78.7038 25.5494 78.8077C26.6494 78.9117 27.6854 79.372 28.4998 80.1186C29.3142 80.8653 29.8625 81.8574 30.0614 82.9443ZM21.5929 81.7983C21.2248 82.4221 21.0304 83.133 21.0298 83.8574C21.0298 84.9335 21.4573 85.9656 22.2183 86.7266C22.9793 87.4876 24.0114 87.9151 25.0875 87.9151C26.2153 87.9128 27.8671 87.0109 28.4691 86.1033C28.8694 85.4997 29.1009 84.7999 29.1395 84.0766C29.1781 83.3533 29.0223 82.6329 28.6885 81.9901C28.3546 81.3473 27.8547 80.8056 27.2408 80.4213C26.6269 80.0369 25.9213 79.8239 25.1972 79.8043C24.4731 79.7847 23.757 79.9593 23.1232 80.3099C22.4894 80.6606 21.9611 81.1745 21.5929 81.7983ZM35.9491 107.907C36.1394 107.716 36.2463 107.458 36.2463 107.189V96.0813C36.1855 94.9362 35.7385 93.8456 34.9782 92.9872L29.0438 87.0528C28.5169 87.6785 27.8589 88.1806 27.1164 88.5237V99.0738C27.1164 99.3429 27.2233 99.6009 27.4135 99.7911C27.6038 99.9814 27.8618 100.088 28.1308 100.088C28.3999 100.088 28.6579 99.9814 28.8481 99.7911C29.0384 99.6009 29.1453 99.3429 29.1453 99.0738V89.9439C29.1453 89.8094 29.1987 89.6804 29.2938 89.5853C29.3889 89.4902 29.5179 89.4367 29.6525 89.4367C29.787 89.4367 29.916 89.4902 30.0111 89.5853C30.1062 89.6804 30.1597 89.8094 30.1597 89.9439V90.7555L32.645 93.2408C33.595 94.2878 34.151 95.6328 34.2174 97.045V107.189C34.2174 107.458 34.3243 107.716 34.5145 107.907C34.7048 108.097 34.9628 108.204 35.2318 108.204C35.5009 108.204 35.7589 108.097 35.9491 107.907Z" fill="#343434"/>
<path d="M40.304 94.0017H43.8545C43.9891 94.0017 44.1181 94.0551 44.2132 94.1502C44.3083 94.2454 44.3618 94.3744 44.3618 94.5089C44.3618 94.6434 44.3083 94.7724 44.2132 94.8676C44.1181 94.9627 43.9891 95.0161 43.8545 95.0161H40.304C40.1695 95.0161 40.0405 94.9627 39.9454 94.8676C39.8503 94.7724 39.7968 94.6434 39.7968 94.5089C39.7968 94.3744 39.8503 94.2454 39.9454 94.1502C40.0405 94.0551 40.1695 94.0017 40.304 94.0017Z" fill="#343434"/>
<path d="M43.5503 97.603L39.4925 96.0813C39.4293 96.058 39.362 96.0474 39.2946 96.0501C39.2272 96.0527 39.161 96.0687 39.0998 96.0969C39.0386 96.1252 38.9835 96.1652 38.9378 96.2148C38.892 96.2643 38.8565 96.3224 38.8332 96.3856C38.8098 96.4489 38.7992 96.5162 38.8019 96.5835C38.8046 96.6509 38.8205 96.7171 38.8488 96.7784C38.877 96.8396 38.9171 96.8946 38.9666 96.9404C39.0161 96.9862 39.0742 97.0217 39.1375 97.045L43.1952 98.5667C43.2162 98.5667 43.2372 98.5754 43.2618 98.5856C43.2966 98.6 43.3387 98.6174 43.3981 98.6174C43.4974 98.6256 43.5965 98.6 43.6794 98.5448C43.7623 98.4895 43.824 98.4079 43.8546 98.3131C43.9053 97.958 43.8039 97.7044 43.5503 97.603Z" fill="#343434"/>
<path d="M39.4925 92.9366C39.4309 92.9718 39.3606 92.9894 39.2896 92.9873C39.1833 92.9941 39.0782 92.9617 38.9941 92.8963C38.91 92.8309 38.8527 92.7369 38.8331 92.6322C38.8089 92.569 38.7977 92.5016 38.7999 92.434C38.8022 92.3663 38.818 92.2998 38.8463 92.2384C38.8747 92.1769 38.915 92.1218 38.965 92.0762C39.015 92.0306 39.0737 91.9954 39.1375 91.9728L43.1952 90.4512C43.2585 90.4279 43.3257 90.4173 43.3931 90.4199C43.4605 90.4226 43.5267 90.4385 43.5879 90.4668C43.6491 90.4951 43.7042 90.5351 43.75 90.5846C43.7957 90.6342 43.8313 90.6923 43.8546 90.7555C43.8779 90.8188 43.8885 90.8861 43.8858 90.9534C43.8831 91.0208 43.8672 91.087 43.839 91.1482C43.8107 91.2095 43.7707 91.2645 43.7211 91.3103C43.6716 91.356 43.6135 91.3916 43.5502 91.4149L39.4925 92.9366Z" fill="#343434"/>
<path d="M50.4483 94.509C50.4865 93.7507 50.2666 93.0019 49.8244 92.3847C49.3822 91.7675 48.744 91.3184 48.0137 91.1106C48.06 90.7718 48.039 90.4271 47.952 90.0964C47.8649 89.7657 47.7136 89.4554 47.5065 89.1832C47.1968 88.7801 46.7968 88.4553 46.3387 88.2351C45.8806 88.0148 45.3772 87.9053 44.869 87.9152C44.7345 87.9152 44.6054 87.9686 44.5103 88.0637C44.4152 88.1588 44.3618 88.2878 44.3618 88.4224C44.3618 88.5569 44.4152 88.6859 44.5103 88.781C44.6054 88.8761 44.7345 88.9296 44.869 88.9296C45.2074 88.9189 45.5438 88.9865 45.8517 89.1273C46.1597 89.2681 46.4309 89.4782 46.6442 89.7411C46.8142 89.9613 46.9264 90.2205 46.9707 90.4951C47.015 90.7697 46.99 91.051 46.8978 91.3135C46.8606 91.4502 46.8789 91.596 46.9486 91.7193C47.0341 91.8422 47.1595 91.9318 47.3036 91.9729C47.9093 92.0577 48.4621 92.3638 48.8554 92.8321C49.2488 93.3004 49.4549 93.8977 49.4339 94.509C49.4549 95.1202 49.2488 95.7175 48.8554 96.1858C48.4621 96.6541 47.9093 96.9602 47.3036 97.045C47.1571 97.0809 47.03 97.1717 46.9486 97.2986C46.9043 97.4291 46.887 97.5671 46.8978 97.7044C46.9745 97.9689 46.9915 98.2472 46.9477 98.5191C46.9038 98.791 46.8002 99.0498 46.6442 99.2768C46.4274 99.5357 46.1555 99.743 45.8484 99.8834C45.5413 100.024 45.2066 100.094 44.869 100.088C44.7345 100.088 44.6054 100.142 44.5103 100.237C44.4152 100.332 44.3618 100.461 44.3618 100.596C44.3618 100.73 44.4152 100.859 44.5103 100.954C44.6054 101.049 44.7345 101.103 44.869 101.103C45.3652 101.116 45.8577 101.013 46.3069 100.801C46.7561 100.59 47.1495 100.276 47.4558 99.8854C47.6628 99.6133 47.8142 99.3029 47.9012 98.9722C47.9883 98.6415 48.0093 98.2969 47.963 97.958C48.7034 97.7441 49.3508 97.288 49.8014 96.6627C50.2519 96.0374 50.4798 95.2791 50.4483 94.509Z" fill="#343434"/>
<path fill-rule="evenodd" clip-rule="evenodd" d="M104.365 96.6974C104.132 95.6181 103.792 94.5647 103.351 93.5526L103.3 93.4512C102.438 92.4368 99.2423 90.0021 97.8221 88.9877C99.6988 86.3502 102.387 82.6475 103.503 81.1258C103.575 81.028 103.609 80.9077 103.6 80.7868C103.59 80.6658 103.538 80.5521 103.452 80.4665C103.36 80.3879 103.243 80.3447 103.122 80.3447C103.002 80.3447 102.885 80.3879 102.793 80.4665L95.5903 87.111C95.3891 86.9306 95.2475 86.6934 95.1841 86.4307C95.1207 86.1681 95.1385 85.8924 95.2353 85.6401L96.9091 81.7345C97.3656 80.7201 97.0613 80.0607 96.8077 79.7564C96.6057 79.4995 96.3408 79.2992 96.0387 79.1747C95.7365 79.0503 95.4074 79.0061 95.0831 79.0463C94.7324 79.0973 94.4001 79.2355 94.1165 79.4482C93.833 79.6608 93.6073 79.9412 93.46 80.2636L92.2934 83.0025C91.9682 82.0303 91.308 81.2053 90.4306 80.675C89.5532 80.1446 88.5159 79.9435 87.5039 80.1075C86.4919 80.2715 85.5711 80.7899 84.9061 81.5702C84.2411 82.3505 83.8752 83.3417 83.8737 84.367C83.884 85.3853 84.2419 86.3695 84.8881 87.1566H82.6056C81.0333 87.1566 80.171 88.1711 80.171 89.1855C80.171 90.1999 80.9825 91.2144 82.6056 91.2144H87.6778C87.9294 91.2605 88.1601 91.3847 88.3372 91.5694L88.3879 91.6201L89.7066 92.5331L87.0184 95.3735C86.8238 95.2833 86.6196 95.2152 86.4097 95.1706C86.2354 94.38 85.808 93.6677 85.1924 93.1418C84.8485 92.8492 84.5716 92.4859 84.3809 92.0766C84.3459 91.9948 84.29 91.9235 84.2188 91.8701C84.1475 91.8167 84.0635 91.7829 83.9751 91.7723C83.8819 91.7605 83.7874 91.7787 83.7053 91.8243C83.6232 91.8699 83.5578 91.9406 83.5186 92.0259C82.9439 92.9507 82.6775 94.034 82.7578 95.1199C79.3594 96.0329 75.9104 99.3349 75.7075 99.487C75.6146 99.5819 75.5625 99.7093 75.5625 99.8421C75.5625 99.9749 75.6146 100.102 75.7075 100.197C75.8023 100.29 75.9298 100.342 76.0625 100.342C76.1953 100.342 76.3228 100.29 76.4176 100.197C76.4683 100.146 81.4897 95.4293 84.8881 95.8858C88.2864 96.3423 90.366 98.8784 91.8877 100.704C92.2682 101.197 92.6745 101.67 93.105 102.119C93.2864 102.274 93.4275 102.47 93.5159 102.691C93.6043 102.912 93.6374 103.151 93.6122 103.388C93.5292 103.635 93.3898 103.861 93.2049 104.045C93.0201 104.23 92.7949 104.37 92.547 104.453C91.8877 104.757 91.7862 104.605 91.279 104.148C90.7472 103.589 90.0849 103.171 89.3516 102.931C88.3879 102.627 85.446 102.424 84.7866 102.373C84.3809 102.17 83.4679 101.663 83.2143 101.004C83.1641 100.901 83.138 100.788 83.138 100.674C83.138 100.56 83.1641 100.447 83.2143 100.344C83.2556 100.283 83.283 100.213 83.2945 100.14C83.306 100.067 83.3014 99.992 83.2809 99.9208C83.2604 99.8497 83.2246 99.7839 83.176 99.728C83.1274 99.6722 83.0671 99.6276 82.9995 99.5976C82.9318 99.5675 82.8584 99.5526 82.7843 99.5539C82.7103 99.5553 82.6375 99.5728 82.5709 99.6053C82.5044 99.6378 82.4458 99.6844 82.3992 99.742C82.3526 99.7996 82.3192 99.8666 82.3013 99.9385C82.2011 100.162 82.1493 100.404 82.1493 100.649C82.1493 100.893 82.2011 101.135 82.3013 101.359C82.6874 102.113 83.3113 102.719 84.0765 103.083L81.4897 108.257C81.4398 108.373 81.4328 108.503 81.47 108.624C81.5072 108.745 81.5861 108.848 81.6926 108.916C81.7521 108.957 81.824 108.974 81.8955 108.967C81.9928 108.965 82.0875 108.936 82.1685 108.882C82.2494 108.828 82.3131 108.752 82.352 108.663L85.091 103.388C86.2576 103.489 88.3879 103.641 89.0473 103.895C89.6331 104.097 90.1571 104.446 90.5689 104.909C90.9747 105.264 91.3297 105.67 91.9891 105.67C92.3269 105.67 92.6589 105.583 92.9528 105.416C93.3517 105.267 93.7081 105.023 93.991 104.705C94.2739 104.387 94.4747 104.004 94.5759 103.59C94.6312 103.196 94.5858 102.793 94.4439 102.421C94.302 102.049 94.0683 101.718 93.7644 101.46C93.4093 101.105 93.0543 100.649 92.5978 100.141C92.0905 99.5327 91.5326 98.8733 90.924 98.2139L93.6122 95.2721L94.3223 95.7793C94.6266 96.0329 94.6774 96.0836 95.286 97.9603C95.4382 98.4168 95.6411 99.0255 95.8947 99.7356C96.013 100.139 96.2611 100.491 96.6004 100.739C96.9398 100.987 97.3514 101.115 97.7714 101.105C97.9943 101.096 98.2155 101.062 98.4307 101.004C98.6859 100.934 98.9245 100.813 99.1324 100.65C99.3402 100.486 99.5131 100.282 99.6408 100.05C99.7685 99.8187 99.8484 99.5637 99.8758 99.3005C99.9032 99.0373 99.8775 98.7713 99.8002 98.5183L98.6844 94.7649C98.6844 94.7141 98.6336 94.6634 98.6336 94.6127C98.7603 94.685 98.8793 94.7699 98.9887 94.8663C99.6988 95.3228 99.9017 95.475 100.054 95.83L100.865 97.8082C101.373 99.1269 102.488 99.5327 103.3 99.2791C104.112 99.0255 104.72 98.1125 104.365 96.6923V96.6974ZM95.0831 91.0165H94.9817C94.6697 90.9884 94.3798 90.8435 94.1701 90.6108C93.8151 90.3064 94.1194 89.9514 94.2209 89.7992L99.6481 84.7271C97.5685 87.5675 95.4889 90.4079 95.0831 91.0165ZM88.185 81.0751C88.8373 81.0751 89.4749 81.2686 90.0172 81.6311C90.5595 81.9936 90.982 82.5088 91.2314 83.1115C91.4808 83.7143 91.5458 84.3774 91.4182 85.0171C91.2905 85.6568 90.976 86.2442 90.5145 86.7051C90.0529 87.166 89.4649 87.4796 88.8251 87.6062C88.1852 87.7328 87.5221 87.6668 86.9198 87.4165C86.3175 87.1662 85.8029 86.7428 85.4413 86.2C85.0796 85.6572 84.8871 85.0192 84.8881 84.367C84.8874 83.9338 84.9722 83.5048 85.1377 83.1045C85.3031 82.7042 85.546 82.3405 85.8522 82.0342C86.1585 81.7279 86.5222 81.4851 86.9225 81.3197C87.3228 81.1542 87.7518 81.0694 88.185 81.07V81.0751ZM83.7215 94.8714C83.6996 94.3355 83.7858 93.8008 83.9751 93.299C84.1301 93.4973 84.2996 93.6838 84.4823 93.857C84.8263 94.1495 85.1031 94.5128 85.2939 94.9221C85.1924 94.9221 85.091 94.8714 84.9895 94.8714C84.5684 94.8206 84.1427 94.8206 83.7215 94.8714ZM90.2139 97.4075C89.5515 96.799 88.8194 96.2712 88.0328 95.8351L90.6196 93.0961L92.8007 94.5671L90.2139 97.4075ZM102.996 98.3204C102.641 98.4219 102.083 98.1683 101.778 97.4582L101.018 95.2772C100.713 94.5671 100.257 94.2627 99.5466 93.8062C99.3945 93.7048 99.293 93.6541 99.1408 93.5526C98.9752 93.4435 98.7812 93.3854 98.5829 93.3854C98.3846 93.3854 98.1906 93.4435 98.025 93.5526C97.8402 93.7112 97.711 93.9248 97.6562 94.162C97.6015 94.3993 97.624 94.6479 97.7206 94.8714L98.8365 98.6248C98.8768 98.7479 98.8915 98.878 98.8798 99.007C98.8682 99.136 98.8303 99.2613 98.7686 99.3752C98.7069 99.4892 98.6226 99.5893 98.5209 99.6696C98.4193 99.7498 98.3023 99.8085 98.1771 99.8421C98.0579 99.8911 97.9295 99.914 97.8006 99.9093C97.6718 99.9046 97.5454 99.8723 97.4301 99.8146C97.3147 99.7569 97.2131 99.6752 97.132 99.575C97.0508 99.4747 96.9922 99.3583 96.9598 99.2334C96.7062 98.5233 96.5033 97.9654 96.3512 97.4582C95.6918 95.5308 95.5903 95.2772 95.0324 94.8207L89.0473 90.7629C88.6563 90.445 88.1796 90.2508 87.6778 90.205H82.6056C81.6419 90.205 81.1854 89.6978 81.1854 89.1906C81.1854 88.6834 81.6419 88.1761 82.6056 88.1761H86.1561C86.7914 88.5283 87.5096 88.7035 88.2357 88.6834C89.1988 88.6788 90.1323 88.3508 90.8866 87.752C91.6409 87.1532 92.172 86.3183 92.3949 85.3814L94.4237 80.6643C94.49 80.4981 94.6008 80.3533 94.744 80.2459C94.8872 80.1386 95.0571 80.0727 95.2353 80.0556C95.3686 80.052 95.5011 80.0774 95.6237 80.1299C95.7463 80.1825 95.856 80.2609 95.9454 80.3599C96.0204 80.5095 96.0594 80.6745 96.0594 80.8418C96.0594 81.0091 96.0204 81.1741 95.9454 81.3237L94.2716 85.2799C94.0951 85.7092 94.054 86.182 94.1537 86.6353C94.2534 87.0885 94.4892 87.5005 94.8295 87.816L93.46 89.0841C93.1535 89.4178 92.9739 89.8487 92.9528 90.3014C92.9522 90.5007 92.9924 90.698 93.0709 90.8812C93.1494 91.0643 93.2646 91.2295 93.4093 91.3665C93.8057 91.791 94.351 92.0455 94.931 92.0766C95.1608 92.0907 95.3899 92.0378 95.5903 91.9245C95.6411 91.8737 95.7425 91.823 95.7425 91.7723C95.7425 91.7216 96.3512 90.9608 97.1627 89.7942C98.9887 91.1129 101.677 93.1925 102.438 94.0548C102.817 94.9933 103.122 95.9599 103.351 96.9459C103.554 97.656 103.401 98.2139 102.996 98.3154V98.3204Z" fill="#343434"/>
<path fill-rule="evenodd" clip-rule="evenodd" d="M143.498 86.343C143.248 86.3479 143.005 86.4265 142.8 86.5689C142.595 86.7112 142.436 86.911 142.344 87.1431C142.252 87.3752 142.231 87.6293 142.282 87.8736C142.334 88.1178 142.457 88.3414 142.635 88.5162C142.813 88.691 143.039 88.8093 143.285 88.8562C143.53 88.9031 143.784 88.8766 144.014 88.7799C144.244 88.6832 144.441 88.5207 144.579 88.3128C144.717 88.1048 144.791 87.8607 144.791 87.611C144.792 87.4441 144.76 87.2786 144.697 87.1241C144.634 86.9697 144.541 86.8294 144.423 86.7113C144.305 86.5933 144.164 86.5 144.01 86.4367C143.855 86.3735 143.69 86.3416 143.523 86.343H143.498ZM143.498 87.8646C143.447 87.8646 143.398 87.8497 143.357 87.8219C143.315 87.794 143.282 87.7544 143.263 87.708C143.244 87.6617 143.239 87.6107 143.249 87.5615C143.259 87.5123 143.283 87.4671 143.318 87.4317C143.354 87.3962 143.399 87.372 143.448 87.3623C143.497 87.3525 143.548 87.3575 143.595 87.3767C143.641 87.3959 143.681 87.4284 143.708 87.4701C143.736 87.5118 143.751 87.5608 143.751 87.611C143.753 87.6449 143.748 87.6789 143.736 87.7106C143.724 87.7424 143.706 87.7713 143.682 87.7953C143.658 87.8193 143.629 87.8379 143.597 87.8499C143.565 87.8618 143.531 87.8668 143.498 87.8646Z" fill="#343434"/>
<path fill-rule="evenodd" clip-rule="evenodd" d="M148.341 87.611C148.341 87.3602 148.267 87.115 148.128 86.9065C147.988 86.6979 147.79 86.5354 147.559 86.4394C147.327 86.3435 147.072 86.3184 146.826 86.3673C146.58 86.4162 146.354 86.537 146.177 86.7143C145.999 86.8917 145.879 87.1176 145.83 87.3636C145.781 87.6095 145.806 87.8645 145.902 88.0962C145.998 88.3279 146.16 88.526 146.369 88.6653C146.577 88.8046 146.823 88.879 147.073 88.879C147.24 88.8803 147.406 88.8485 147.56 88.7852C147.715 88.722 147.855 88.6286 147.973 88.5106C148.091 88.3926 148.184 88.2523 148.248 88.0978C148.311 87.9433 148.343 87.7779 148.341 87.611ZM147.073 87.8646C147.023 87.8646 146.974 87.8497 146.933 87.8218C146.891 87.794 146.858 87.7543 146.839 87.708C146.82 87.6617 146.815 87.6107 146.825 87.5615C146.834 87.5123 146.859 87.4671 146.894 87.4316C146.93 87.3962 146.975 87.372 147.024 87.3622C147.073 87.3524 147.124 87.3575 147.17 87.3766C147.217 87.3958 147.256 87.4284 147.284 87.4701C147.312 87.5118 147.327 87.5608 147.327 87.611C147.329 87.6448 147.324 87.6788 147.312 87.7106C147.3 87.7424 147.282 87.7712 147.258 87.7953C147.234 87.8193 147.205 87.8379 147.173 87.8498C147.141 87.8618 147.107 87.8668 147.073 87.8646Z" fill="#343434"/>
<path fill-rule="evenodd" clip-rule="evenodd" d="M153.961 97.7474C154.261 97.5885 154.596 97.5042 154.935 97.5017C155.483 97.5133 156.005 97.7361 156.393 98.1236C156.78 98.5111 157.003 99.0334 157.015 99.5812C157.015 100.119 156.801 100.635 156.42 101.016C156.04 101.396 155.524 101.61 154.986 101.61C154.448 101.61 153.932 101.396 153.551 101.016C153.171 100.635 152.957 100.119 152.957 99.5812V99.4291L150.421 98.6175C150.472 100.596 150.675 101.914 151.435 106.581C151.512 106.924 151.511 107.279 151.432 107.622C151.353 107.964 151.198 108.285 150.979 108.559C150.783 108.783 150.541 108.962 150.27 109.085C149.999 109.207 149.704 109.27 149.407 109.269H149.305C147.986 109.218 147.378 108.356 146.921 107.443C146.832 107.294 146.76 107.127 146.684 106.953C146.632 106.831 146.578 106.706 146.515 106.581C146.492 106.526 146.467 106.468 146.442 106.409C146.141 105.697 145.719 104.704 145.298 104.704C144.877 104.704 144.456 105.697 144.154 106.409C144.129 106.468 144.104 106.526 144.081 106.581C144.018 106.706 143.964 106.831 143.912 106.953C143.837 107.127 143.765 107.294 143.675 107.443C143.218 108.356 142.61 109.218 141.291 109.269H141.19C140.891 109.274 140.596 109.212 140.324 109.089C140.052 108.967 139.811 108.786 139.617 108.559C139.398 108.285 139.243 107.964 139.164 107.622C139.085 107.279 139.084 106.924 139.161 106.581C139.252 106.034 139.336 105.534 139.414 105.072C139.554 104.247 139.672 103.546 139.769 102.929L136.574 102.625C136.464 103.05 136.214 103.426 135.864 103.693C135.515 103.96 135.086 104.102 134.647 104.095C134.108 104.095 133.592 103.882 133.212 103.501C132.831 103.121 132.618 102.605 132.618 102.067C132.618 101.529 132.831 101.012 133.212 100.632C133.592 100.251 134.108 100.038 134.647 100.038C135.099 100.021 135.541 100.172 135.887 100.463C136.234 100.753 136.461 101.162 136.523 101.61L139.871 101.914C140.13 100.118 140.231 98.3017 140.175 96.4872C140.193 96.2609 140.151 96.0337 140.053 95.8289C139.955 95.624 139.805 95.4487 139.617 95.3206L135.103 92.8353C134.666 92.5936 134.324 92.212 134.131 91.7519C133.938 91.2918 133.905 90.7801 134.038 90.2992C134.145 89.795 134.418 89.3412 134.814 89.0102C135.209 88.6793 135.704 88.4902 136.219 88.4732C136.628 88.4719 137.03 88.5768 137.386 88.7776L140.277 90.2992C139.976 89.6472 139.82 88.9377 139.82 88.2196C139.82 85.7343 141.24 82.7924 145.298 82.7924C145.916 82.7875 146.531 82.873 147.124 83.046L148.189 81.9301C147.973 81.5781 147.851 81.1764 147.834 80.7635C147.834 80.3623 147.953 79.97 148.176 79.6364C148.399 79.3027 148.716 79.0427 149.087 78.8891C149.457 78.7356 149.865 78.6954 150.259 78.7737C150.652 78.8519 151.014 79.0452 151.298 79.3289C151.581 79.6127 151.775 79.9742 151.853 80.3677C151.931 80.7613 151.891 81.1692 151.737 81.54C151.584 81.9107 151.324 82.2275 150.99 82.4505C150.657 82.6734 150.264 82.7924 149.863 82.7924C149.528 82.7739 149.2 82.6877 148.899 82.5388L148.088 83.4011C149.964 84.4155 150.725 86.4444 150.725 88.2196C150.725 88.9377 150.57 89.6472 150.269 90.2992L153.16 88.7776C153.518 88.5825 153.919 88.478 154.326 88.4732C154.842 88.4902 155.336 88.6793 155.732 89.0102C156.127 89.3412 156.4 89.795 156.508 90.2992C156.652 90.7798 156.625 91.2958 156.431 91.7586C156.236 92.2214 155.887 92.6021 155.442 92.8353L150.928 95.3206C150.741 95.4487 150.59 95.624 150.492 95.8289C150.394 96.0337 150.352 96.2609 150.37 96.4872V97.5017L153.211 98.4146C153.404 98.1352 153.661 97.9063 153.961 97.7474ZM150.58 80.0462C150.39 79.856 150.132 79.7491 149.863 79.7491C149.594 79.7491 149.336 79.856 149.146 80.0462C148.955 80.2365 148.849 80.4945 148.849 80.7635C148.837 80.903 148.864 81.043 148.927 81.1682C148.989 81.2934 149.085 81.399 149.204 81.4736L149.254 81.5244V81.5751C149.432 81.7025 149.644 81.7732 149.863 81.778C150.132 81.778 150.39 81.6711 150.58 81.4809C150.771 81.2906 150.877 81.0326 150.877 80.7635C150.877 80.4945 150.771 80.2365 150.58 80.0462ZM134.083 102.91C134.25 103.022 134.446 103.081 134.647 103.081C134.916 103.081 135.174 102.974 135.364 102.784C135.554 102.594 135.661 102.336 135.661 102.067C135.661 101.866 135.601 101.67 135.49 101.503C135.379 101.336 135.22 101.206 135.035 101.129C134.849 101.053 134.645 101.033 134.449 101.072C134.252 101.111 134.071 101.207 133.929 101.349C133.787 101.491 133.691 101.672 133.652 101.869C133.612 102.065 133.633 102.269 133.709 102.455C133.786 102.64 133.916 102.799 134.083 102.91ZM150.394 107.314C150.429 107.121 150.421 106.922 150.37 106.733C149.559 101.712 149.407 100.494 149.305 98.2118L147.986 97.806C147.923 97.7827 147.865 97.7471 147.815 97.7014C147.766 97.6556 147.726 97.6006 147.698 97.5393C147.669 97.4781 147.653 97.4119 147.651 97.3445C147.648 97.2771 147.659 97.2099 147.682 97.1466C147.705 97.0833 147.741 97.0253 147.787 96.9757C147.832 96.9262 147.887 96.8861 147.949 96.8579C148.01 96.8296 148.076 96.8137 148.143 96.811C148.211 96.8083 148.278 96.819 148.341 96.8423L149.356 97.1466V96.4872C149.337 96.0722 149.431 95.6597 149.627 95.2936C149.824 94.9275 150.115 94.6214 150.472 94.4076L154.986 91.9223C155.236 91.8067 155.436 91.6041 155.548 91.3521C155.66 91.1002 155.677 90.8161 155.595 90.5528C155.533 90.2679 155.382 90.0104 155.162 89.8185C154.943 89.6266 154.668 89.5106 154.377 89.4877C154.147 89.5153 153.924 89.584 153.718 89.6905L148.595 92.4295C148.499 92.4708 148.395 92.4882 148.291 92.4802C148.192 92.4562 148.103 92.4057 148.031 92.3341C147.959 92.2626 147.909 92.1727 147.885 92.0745C147.867 91.9794 147.876 91.8811 147.912 91.7912C147.948 91.7013 148.009 91.6236 148.088 91.5672C148.617 91.1951 149.05 90.7016 149.35 90.1281C149.65 89.5546 149.809 88.9176 149.812 88.2703C149.812 87.4588 149.609 85.1763 147.479 84.2633L145.957 85.9371C145.863 86.038 145.733 86.0974 145.595 86.1021C145.457 86.1069 145.323 86.0567 145.222 85.9625C145.121 85.8683 145.062 85.738 145.057 85.6C145.055 85.5317 145.066 85.4636 145.09 85.3996C145.114 85.3356 145.15 85.277 145.197 85.227L146.363 83.959C146.011 83.8977 145.655 83.8638 145.298 83.8576C141.139 83.8576 140.835 87.2559 140.835 88.2703C140.838 88.9176 140.997 89.5546 141.297 90.1281C141.597 90.7016 142.03 91.1951 142.559 91.5672C142.638 91.6236 142.699 91.7013 142.735 91.7912C142.771 91.8811 142.78 91.9794 142.762 92.0745C142.738 92.1727 142.687 92.2626 142.616 92.3341C142.544 92.4057 142.455 92.4562 142.356 92.4802C142.236 92.4923 142.114 92.4748 142.001 92.4295L136.929 89.6905C136.736 89.555 136.505 89.4839 136.27 89.4877C135.979 89.5106 135.704 89.6266 135.484 89.8185C135.265 90.0104 135.114 90.2679 135.052 90.5528C134.983 90.8163 135.005 91.0956 135.116 91.3446C135.226 91.5936 135.419 91.7974 135.661 91.9223L140.175 94.4076C140.517 94.633 140.795 94.9429 140.981 95.3073C141.168 95.6717 141.257 96.0782 141.24 96.4872C141.29 98.3169 141.205 100.148 140.987 101.965L141.798 102.067C141.929 102.09 142.046 102.159 142.13 102.261C142.214 102.363 142.258 102.492 142.255 102.625C142.236 102.748 142.175 102.86 142.083 102.944C141.99 103.027 141.872 103.075 141.748 103.081H141.697L140.835 102.98C140.758 103.461 140.67 103.994 140.568 104.603C140.467 105.211 140.353 105.896 140.226 106.682C140.175 106.872 140.167 107.07 140.202 107.263C140.237 107.456 140.315 107.639 140.429 107.798C140.528 107.915 140.653 108.007 140.794 108.069C140.934 108.13 141.087 108.159 141.24 108.153C141.95 108.153 142.356 107.849 142.813 106.885C142.95 106.623 143.068 106.352 143.168 106.074C143.574 105.11 144.03 104.045 144.791 103.69V102.067H143.776C143.642 102.067 143.513 102.013 143.418 101.918C143.323 101.823 143.269 101.694 143.269 101.559C143.269 101.425 143.323 101.296 143.418 101.201C143.513 101.106 143.642 101.052 143.776 101.052H144.791V98.5161H143.776C143.642 98.5161 143.513 98.4626 143.418 98.3675C143.323 98.2724 143.269 98.1434 143.269 98.0089C143.269 97.8744 143.323 97.7453 143.418 97.6502C143.513 97.5551 143.642 97.5017 143.776 97.5017H144.791V95.4728H143.776C143.642 95.4728 143.513 95.4194 143.418 95.3242C143.323 95.2291 143.269 95.1001 143.269 94.9656C143.269 94.8311 143.323 94.702 143.418 94.6069C143.513 94.5118 143.642 94.4584 143.776 94.4584H144.791V92.9367C144.791 92.8022 144.844 92.6732 144.939 92.5781C145.035 92.4829 145.164 92.4295 145.298 92.4295C145.433 92.4295 145.562 92.4829 145.657 92.5781C145.752 92.6732 145.805 92.8022 145.805 92.9367V94.4584H146.82C146.954 94.4584 147.083 94.5118 147.178 94.6069C147.273 94.702 147.327 94.8311 147.327 94.9656C147.327 95.1001 147.273 95.2291 147.178 95.3242C147.083 95.4194 146.954 95.4728 146.82 95.4728H145.805V97.5017H146.82C146.954 97.5017 147.083 97.5551 147.178 97.6502C147.273 97.7453 147.327 97.8744 147.327 98.0089C147.327 98.1434 147.273 98.2724 147.178 98.3675C147.083 98.4626 146.954 98.5161 146.82 98.5161H145.805V101.052H146.82C146.954 101.052 147.083 101.106 147.178 101.201C147.273 101.296 147.327 101.425 147.327 101.559C147.327 101.694 147.273 101.823 147.178 101.918C147.083 102.013 146.954 102.067 146.82 102.067H145.805V103.74C146.551 104.039 147.004 105.116 147.404 106.066L147.428 106.124C147.512 106.292 147.581 106.459 147.642 106.61C147.692 106.733 147.738 106.845 147.783 106.936C148.24 107.849 148.595 108.153 149.305 108.204H149.356C149.508 108.204 149.659 108.172 149.799 108.111C149.938 108.05 150.064 107.961 150.167 107.849C150.281 107.689 150.359 107.507 150.394 107.314ZM154.372 100.374C154.538 100.485 154.735 100.545 154.935 100.545C155.204 100.545 155.462 100.438 155.652 100.248C155.843 100.058 155.95 99.7996 155.95 99.5305C155.95 99.3299 155.89 99.1338 155.779 98.9669C155.667 98.8001 155.509 98.6701 155.323 98.5933C155.138 98.5165 154.934 98.4964 154.737 98.5356C154.54 98.5747 154.36 98.6713 154.218 98.8132C154.076 98.9551 153.979 99.1358 153.94 99.3326C153.901 99.5294 153.921 99.7334 153.998 99.9187C154.075 100.104 154.205 100.263 154.372 100.374Z" fill="#343434"/>
</svg>
