<svg width="179" height="133" viewBox="0 0 179 133" fill="none" xmlns="http://www.w3.org/2000/svg">
<rect width="179" height="133" fill="white"/>
<path fill-rule="evenodd" clip-rule="evenodd" d="M96.0834 24.9302C97.0639 23.9497 98.5568 23.515 99.7958 24.3377C100.395 24.7358 101.102 25.2916 101.873 26.063C102.645 26.8343 103.201 27.541 103.599 28.1405C104.421 29.3796 103.987 30.8724 103.006 31.8529L101.792 33.0669C101.754 32.9917 101.714 32.9139 101.671 32.8336C101.159 31.881 100.286 30.5849 98.8187 29.1176C97.3514 27.6503 96.0553 26.7769 95.1027 26.2658C95.0225 26.2227 94.9447 26.1822 94.8695 26.1442L96.0834 24.9302ZM93.4491 27.5647C93.6416 27.6416 93.8995 27.7569 94.2127 27.9249C95.0025 28.3487 96.15 29.1115 97.4875 30.449C98.825 31.7865 99.5878 32.934 100.012 33.7238C100.18 34.037 100.295 34.2949 100.372 34.4874L91.259 43.6001C90.8753 43.9838 90.3775 44.2575 89.8124 44.3121C88.9784 44.3926 87.4378 44.4649 85.058 44.2985C84.2974 44.2453 83.6912 43.6391 83.638 42.8785C83.4715 40.4986 83.5439 38.9581 83.6244 38.124C83.679 37.559 83.9527 37.0611 84.3364 36.6774L93.4491 27.5647ZM84.9266 46.177C87.4005 46.35 89.046 46.2779 89.9934 46.1865C91.0655 46.083 91.9534 45.5688 92.5905 44.9317L102.007 35.5148C102.036 36.6699 102.053 37.9557 102.053 39.378C102.053 43.7081 101.894 46.7734 101.738 48.7367C101.574 50.8019 99.9825 52.3937 97.9172 52.5576C95.954 52.7134 92.8887 52.8726 88.5586 52.8726C84.2285 52.8726 81.1631 52.7134 79.1999 52.5576C77.1346 52.3937 75.5428 50.8019 75.3789 48.7367C75.2231 46.7734 75.064 43.7081 75.064 39.378C75.064 35.0479 75.2231 31.9826 75.3789 30.0193C75.5428 27.954 77.1346 26.3623 79.1999 26.1984C81.1631 26.0426 84.2285 25.8834 88.5586 25.8834C89.9809 25.8834 91.2667 25.9005 92.4219 25.9291L83.0049 35.3461C82.3679 35.9832 81.8537 36.8711 81.7502 37.9432C81.6587 38.8906 81.5866 40.5361 81.7596 43.01C81.8783 44.707 83.2297 46.0583 84.9266 46.177Z" fill="url(#paint0_linear_1459_3)"/>
<path fill-rule="evenodd" clip-rule="evenodd" d="M145.627 79.814C153.774 79.814 160.377 86.4177 160.377 94.5639C160.377 102.71 153.774 109.314 145.627 109.314C137.481 109.314 130.877 102.71 130.877 94.5639C130.877 86.4177 137.481 79.814 145.627 79.814ZM142.353 100.057C140.012 98.8633 138.409 96.43 138.409 93.6224C138.409 89.636 141.641 86.4044 145.627 86.4044C149.614 86.4044 152.845 89.636 152.845 93.6224C152.845 96.4299 151.242 98.8631 148.902 100.057C151.378 100.813 153.002 102.335 153.954 103.534C151.77 105.563 148.843 106.803 145.627 106.803C142.411 106.803 139.485 105.563 137.301 103.534C138.253 102.336 139.877 100.814 142.353 100.057Z" fill="url(#paint1_linear_1459_3)"/>
<path fill-rule="evenodd" clip-rule="evenodd" d="M89.2302 81.8333C87.749 81.6681 86.4384 82.6195 85.95 83.9873L83.7539 90.1364C83.7591 90.2038 83.7626 90.271 83.7644 90.3377C83.8029 91.7593 83.8511 95.3825 83.8511 98.3293C83.8511 101.18 83.806 104.664 83.7682 106.175H83.8263L83.8682 106.181C83.9122 106.188 83.9774 106.198 84.0629 106.211C84.2339 106.237 84.4859 106.274 84.8113 106.319C85.462 106.41 86.406 106.533 87.581 106.665C89.9307 106.928 93.2056 107.225 96.9067 107.359C99.4076 107.449 101.708 105.999 102.403 103.556C103.099 101.111 103.864 97.4738 104.142 92.7005C104.273 90.4351 102.417 88.5905 100.157 88.6971C98.2866 88.7853 96.5558 88.9185 95.2927 89.0296C94.661 89.0852 94.1461 89.1352 93.7888 89.1714C93.7045 89.18 93.629 89.1878 93.5628 89.1946L93.3784 85.5076C93.303 83.9999 92.5409 82.4726 90.944 82.1121C90.3722 81.983 89.7774 81.8944 89.2302 81.8333ZM78.5159 107.431C77.7103 107.431 77.0235 107.332 76.479 107.209C75.4387 106.973 74.863 106.015 74.8361 105.024C74.798 103.62 74.75 101.267 74.75 98.3299C74.75 95.3929 74.798 93.0398 74.8361 91.6362C74.863 90.6449 75.4387 89.687 76.479 89.4509C77.0235 89.3274 77.7103 89.2289 78.5159 89.2289C79.3216 89.2289 80.0084 89.3274 80.5529 89.4509C81.5932 89.687 82.1689 90.6449 82.1958 91.6362C82.2338 93.0398 82.2819 95.3929 82.2819 98.3299C82.2819 101.267 82.2338 103.62 82.1958 105.024C82.1689 106.015 81.5932 106.973 80.5529 107.209C80.0084 107.332 79.3216 107.431 78.5159 107.431ZM78.5159 100.841C79.2092 100.841 79.7712 101.403 79.7712 102.096V103.351C79.7712 104.044 79.2092 104.606 78.5159 104.606C77.8226 104.606 77.2606 104.044 77.2606 103.351V102.096C77.2606 101.403 77.8226 100.841 78.5159 100.841Z" fill="url(#paint2_linear_1459_3)"/>
<path fill-rule="evenodd" clip-rule="evenodd" d="M145.627 24.9419C153.077 24.9419 159.122 30.9246 159.122 38.311L159.122 42.9579L159.122 45.0636C159.122 45.0644 159.122 45.0652 159.122 45.0661V48.3531C159.122 49.5475 158.368 50.6263 157.199 50.9548C156.049 51.2779 154.457 51.6635 152.893 51.838C151.808 51.9591 150.823 51.2979 150.637 50.19C150.479 49.2444 150.335 47.7964 150.335 45.6555C150.335 43.5146 150.479 42.0666 150.637 41.121C150.823 40.0131 151.808 39.3519 152.893 39.473C153.51 39.5418 154.132 39.6435 154.728 39.7613V38.0599C154.728 33.2535 150.666 29.3355 145.627 29.3355C140.589 29.3355 136.526 33.2535 136.526 38.0599V39.7613C137.123 39.6435 137.745 39.5418 138.362 39.473C139.447 39.3519 140.432 40.0131 140.618 41.121C140.776 42.0666 140.92 43.5146 140.92 45.6555C140.92 47.7964 140.776 49.2444 140.618 50.19C140.432 51.2979 139.447 51.9591 138.362 51.838C136.798 51.6635 135.206 51.2779 134.056 50.9548C132.887 50.6263 132.133 49.5475 132.133 48.3531V45.0636V42.9579V38.311C132.133 30.9246 138.177 24.9419 145.627 24.9419Z" fill="url(#paint3_linear_1459_3)"/>
<path fill-rule="evenodd" clip-rule="evenodd" d="M23.5677 50.3403C25.5667 50.5027 28.774 50.6755 33.3725 50.6755C37.9711 50.6755 41.1783 50.5027 43.1773 50.3403C44.3214 50.2474 45.1836 49.3851 45.2766 48.2411C45.3786 46.9862 45.4846 45.2552 45.5494 43.0028C44.0434 41.6035 42.9608 40.6759 42.2145 40.0723C41.2753 39.3127 40.0234 39.19 38.9891 39.8551C38.0925 40.4317 36.7854 41.3791 35.0097 42.9145C32.4256 40.4127 30.7312 38.9414 29.6908 38.0999C28.7516 37.3402 27.4997 37.2175 26.4654 37.8826C25.361 38.5929 23.633 39.8663 21.1728 42.1092C21.2331 44.8028 21.3534 46.8251 21.4684 48.2411C21.5614 49.3851 22.4236 50.2474 23.5677 50.3403ZM33.3725 52.5585C28.7269 52.5585 25.4686 52.384 23.4152 52.2171C21.3515 52.0494 19.7593 50.4572 19.5916 48.3935C19.4248 46.3401 19.2502 43.0818 19.2502 38.4362C19.2502 33.7907 19.4248 30.5324 19.5916 28.4789C19.7593 26.4153 21.3515 24.823 23.4152 24.6553C25.4686 24.4885 28.7269 24.314 33.3725 24.314C38.0181 24.314 41.2764 24.4885 43.3298 24.6553C45.3935 24.823 46.9857 26.4153 47.1534 28.4789C47.3202 30.5324 47.4948 33.7907 47.4948 38.4362C47.4948 43.0818 47.3202 46.3401 47.1534 48.3936C46.9857 50.4572 45.3935 52.0494 43.3298 52.2171C41.2764 52.384 38.0181 52.5585 33.3725 52.5585ZM36.8246 31.8458C36.8246 30.1126 38.2297 28.7076 39.9629 28.7076C41.6961 28.7076 43.1012 30.1126 43.1012 31.8458C43.1012 33.5791 41.6961 34.9841 39.9629 34.9841C38.2297 34.9841 36.8246 33.5791 36.8246 31.8458Z" fill="url(#paint4_linear_1459_3)"/>
<path fill-rule="evenodd" clip-rule="evenodd" d="M23.5069 79.8139L20.6885 79.8139C19.6253 79.8139 18.6631 80.5898 18.6277 81.7046C18.6245 81.8056 18.6227 81.908 18.6227 82.0107C18.6227 82.1134 18.6245 82.2159 18.6277 82.3168C18.6631 83.4316 19.6253 84.2075 20.6885 84.2075H22.4662C23.0721 86.3347 23.5954 88.7581 24.1296 91.2392L24.1455 91.3131C24.6927 93.8542 25.252 96.4517 25.9214 98.8246C26.328 100.265 27.5518 101.306 29.0441 101.458C30.602 101.617 32.9319 101.782 35.8832 101.782C38.8879 101.782 41.1766 101.611 42.6673 101.449C44.0416 101.3 45.1952 100.377 45.5915 99.0423C46.462 96.1103 47.23 91.9573 47.7318 88.6326C47.9864 86.9463 46.6663 85.4628 44.9724 85.4628H44.9395H44.9066H44.8736H44.8407H44.8077H44.7746H44.7416H44.7085H44.6754H44.6423H44.6091H44.5759H44.5427H44.5094H44.4761H44.4428H44.4095H44.3761H44.3428H44.3093H44.2759H44.2424H44.2089H44.1754H44.1419H44.1083H44.0747H44.0411H44.0074H43.9738H43.9401H43.9063H43.8726H43.8388H43.805H43.7712H43.7373H43.7035H43.6696H43.6356H43.6017H43.5677H43.5337H43.4997H43.4657H43.4316H43.3975H43.3634H43.3293H43.2951H43.261H43.2268H43.1925H43.1583H43.124H43.0897H43.0554H43.0211H42.9867H42.9524H42.918H42.8836H42.8491H42.8147H42.7802H42.7457H42.7112H42.6766H42.6421H42.6075H42.5729H42.5383H42.5037H42.469H42.4343H42.3996H42.3649H42.3302H42.2954H42.2607H42.2259H42.1911H42.1563H42.1214H42.0866H42.0517H42.0168H41.9819H41.9469H41.912H41.877H41.8421H41.8071H41.7721H41.737H41.702H41.6669H41.6318H41.5968H41.5616H41.5265H41.4914H41.4562H41.4211H41.3859H41.3507H41.3155H41.2802H41.245H41.2097H41.1745H41.1392H41.1039H41.0686H41.0332H40.9979H40.9626H40.9272H40.8918H40.8564H40.821H40.7856H40.7502H40.7147H40.6793H40.6438H40.6083H40.5728H40.5373H40.5018H40.4663H40.4308H40.3952H40.3597H40.3241H40.2885H40.2529H40.2173H40.1817H40.1461H40.1105H40.0748H40.0392H40.0035H39.9679H39.9322H39.8965H39.8608H39.8251H39.7894H39.7537H39.718H39.6822H39.6465H39.6107H39.575H39.5392H39.5034H39.4676H39.4318H39.3961H39.3602H39.3244H39.2886H39.2528H39.217H39.1811H39.1453H39.1094H39.0736H39.0377H39.0019H38.966H38.9301H38.8942H38.8583H38.8224H38.7865H38.7506H38.7147H38.6788H38.6429H38.607H38.5711H38.5352H38.4992H38.4633H38.4274H38.3914H38.3555H38.3195H38.2836H38.2476H38.2117H38.1757H38.1398H38.1038H38.0678H38.0319H37.9959H37.9599H37.924H37.888H37.852H37.8161H37.7801H37.7441H37.7081H37.6722H37.6362H37.6002H37.5643H37.5283H37.4923H37.4563H37.4204H37.3844H37.3484H37.3125H37.2765H37.2405H37.2045H37.1686H37.1326H37.0967H37.0607H37.0247H36.9888H36.9528H36.9169H36.8809H36.845H36.8091H36.7731H36.7372H36.7013H36.6653H36.6294H36.5935H36.5576H36.5217H36.4857H36.4498H36.4139H36.3781H36.3422H36.3063H36.2704H36.2345H36.1987H36.1628H36.1269H36.0911H36.0552H36.0194H35.9836H35.9477H35.9119H35.8761H35.8403H35.8045H35.7687H35.7329H35.6971H35.6614H35.6256H35.5898H35.5541H35.5184H35.4826H35.4469H35.4112H35.3755H35.3398H35.3041H35.2684H35.2327H35.1971H35.1614H35.1258H35.0901H35.0545H35.0189H34.9833H34.9477H34.9121H34.8766H34.841H34.8054H34.7699H34.7344H34.6989H34.6633H34.6279H34.5924H34.5569H34.5214H34.486H34.4506H34.4151H34.3797H34.3443H34.3089H34.2736H34.2382H34.2029H34.1675H34.1322H34.0969H34.0616H34.0263H33.9911H33.9558H33.9206H33.8854H33.8502H33.815H33.7798H33.7446H33.7095H33.6744H33.6392H33.6041H33.5691H33.534H33.4989H33.4639H33.4289H33.3939H33.3589H33.3239H33.289H33.254H33.2191H33.1842H33.1493H33.1145H33.0796H33.0448H33.01H32.9752H32.9404H32.9056H32.8709H32.8362H32.8015H32.7668H32.7321H32.6975H32.6628H32.6282H32.5936H32.5591H32.5245H32.49H32.4555H32.421H32.3865H32.3521H32.3177H32.2833H32.2489H32.2145H32.1802H32.1459H32.1116H32.0773H32.043H32.0088H31.9746H31.9404H31.9062H31.8721H31.838H31.8039H31.7698H31.7358H31.7017H31.6677H31.6337H31.5998H31.5658H31.5319H31.4981H31.4642H31.4304H31.3965H31.3628H31.329H31.2953H31.2615H31.2279H31.1942H31.1606H31.1269H31.0934H31.0598H31.0263H30.9928H30.9593H30.9258H30.8924H30.859H30.8256H30.7923H30.759H30.7257H30.6924H30.6592H30.626H30.5928H30.5596H30.5265H30.4934H30.4603H30.4273H30.3943H30.3613H30.3283H30.2954H30.2625H30.2297H30.1968H30.164H30.1312H30.0985H30.0658H30.0331H30.0004H29.9678H29.9352H29.9027H29.8701H29.8376H29.8051H29.7727H29.7403H29.7079H29.6756H29.6433H29.611H29.5787H29.5465H29.5143H29.4822H29.4501H29.418H29.3859H29.3539H29.3219H29.29H29.2581H29.2262H29.1943H29.1625H29.1307H29.099H29.0673H29.0356H29.004H28.9724H28.9408H28.9092H28.8777H28.8463H28.8148H28.7834H28.7521H28.7208H28.6895H28.6582H28.627H28.5958H28.5647H28.5336H28.5025H28.4715H28.4405H28.4095H28.3786H28.3477H28.3169H28.2861H28.2553H28.2246H28.1939H28.1632H28.1326H28.102H28.0715H28.041H28.0106H27.9801H27.9498H27.9194H27.8891H27.8589H27.8286H27.7985H27.7683H27.7382H27.7082H27.6781H27.652L26.8461 82.3902C26.4479 80.8723 25.0761 79.8139 23.5069 79.8139ZM32.4311 106.489C32.4311 104.929 31.1665 103.665 29.6066 103.665C28.0467 103.665 26.7822 104.929 26.7822 106.489C26.7822 108.049 28.0467 109.314 29.6066 109.314C31.1665 109.314 32.4311 108.049 32.4311 106.489ZM42.1598 103.665C43.7197 103.665 44.9842 104.929 44.9842 106.489C44.9842 108.049 43.7197 109.314 42.1598 109.314C40.5999 109.314 39.3353 108.049 39.3353 106.489C39.3353 104.929 40.5999 103.665 42.1598 103.665Z" fill="url(#paint5_linear_1459_3)"/>
<defs>
<linearGradient id="paint0_linear_1459_3" x1="103.934" y1="52.8786" x2="69.6294" y2="33.5818" gradientUnits="userSpaceOnUse">
<stop stop-color="#FF51E3"/>
<stop offset="1" stop-color="#1B4DFF"/>
</linearGradient>
<linearGradient id="paint1_linear_1459_3" x1="132.011" y1="82.1978" x2="165.633" y2="101.148" gradientUnits="userSpaceOnUse">
<stop stop-color="#00D078"/>
<stop offset="1" stop-color="#007DF0"/>
</linearGradient>
<linearGradient id="paint2_linear_1459_3" x1="106.696" y1="112.857" x2="70.8535" y2="83.6372" gradientUnits="userSpaceOnUse">
<stop stop-color="#FFD600"/>
<stop offset="1" stop-color="#FF007A"/>
</linearGradient>
<linearGradient id="paint3_linear_1459_3" x1="161.461" y1="57.5521" x2="125.128" y2="31.6676" gradientUnits="userSpaceOnUse">
<stop stop-color="#FFD600"/>
<stop offset="1" stop-color="#FF007A"/>
</linearGradient>
<linearGradient id="paint4_linear_1459_3" x1="23.8671" y1="29.7456" x2="46.6795" y2="42.3851" gradientUnits="userSpaceOnUse">
<stop stop-color="#FFD600"/>
<stop offset="1" stop-color="#00D078"/>
</linearGradient>
<linearGradient id="paint5_linear_1459_3" x1="19.7423" y1="82.1978" x2="53.1499" y2="100.798" gradientUnits="userSpaceOnUse">
<stop stop-color="#00D078"/>
<stop offset="1" stop-color="#007DF0"/>
</linearGradient>
</defs>
</svg>
