<svg width="179" height="133" viewBox="0 0 179 133" fill="none" xmlns="http://www.w3.org/2000/svg">
<rect width="179" height="133" fill="white"/>
<g clip-path="url(#clip0_1950_15303)">
<path d="M48.0163 27.2122C46.8829 25.0185 39.3876 24.7406 35.0001 24.7406C30.6126 24.7406 23.1173 25.0185 21.9838 27.2122C20.8504 28.3091 20.7407 34.1591 20.7407 39C20.7407 43.8409 20.8504 49.6909 21.9838 50.7877C23.1173 52.9815 30.6126 53.2594 35.0001 53.2594C39.3876 53.2594 46.8829 52.9815 48.0163 50.7877C49.1498 49.6909 49.2595 43.8409 49.2595 39C49.2595 34.1591 49.1498 28.3091 48.0163 27.2122Z" fill="#FF52A1" stroke="#231F20" stroke-width="0.75" stroke-miterlimit="10"/>
<path d="M45.2376 30.3201C44.3382 28.9892 38.437 28.8137 35.0001 28.8137C31.5632 28.8137 25.6621 28.9892 24.7626 30.3201C23.8851 30.9563 23.7974 34.5321 23.7974 37.4717C23.7974 40.4113 23.8851 43.9652 24.7626 44.6307C25.6474 45.9615 31.5486 46.1297 35.0001 46.1297C38.4516 46.1297 44.3382 45.9615 45.2376 44.6307C46.1297 43.9652 46.2175 40.4113 46.2175 37.4717C46.2175 34.5321 46.1151 30.9563 45.2376 30.3201Z" fill="white" stroke="#231F20" stroke-width="0.75" stroke-miterlimit="10"/>
<path d="M40.5063 36.075C39.8553 34.9552 39.0641 33.9231 38.1517 33.0038C37.8574 32.7515 37.4826 32.6128 37.095 32.6128C36.7074 32.6128 36.3326 32.7515 36.0384 33.0038C35.1312 33.9258 34.3426 34.9576 33.6911 36.075C33.6399 36.1555 33.5448 36.3236 33.4351 36.5211C33.136 36.0806 32.7903 35.6737 32.4041 35.3072C32.1846 35.1207 31.906 35.0183 31.618 35.0183C31.33 35.0183 31.0513 35.1207 30.8319 35.3072C30.1512 35.9945 29.5614 36.7662 29.0769 37.6033C28.8941 37.9105 27.8703 39.6801 27.8703 40.5868C27.8587 40.8413 27.9333 41.0923 28.0819 41.2993C28.2305 41.5063 28.4444 41.6572 28.6893 41.7276C29.7423 42.1809 39.6581 42.2175 41.0255 41.6179C41.3507 41.5237 41.6352 41.3236 41.8339 41.0494C42.0326 40.7752 42.1341 40.4426 42.1224 40.1042C42.1224 40.0238 42.3125 39.0878 40.5063 36.075Z" fill="#FFE236" stroke="#231F20" stroke-width="0.75" stroke-miterlimit="10"/>
<path d="M43.3066 27.0148C46.2316 27.4974 46.3998 27.746 46.6777 28.6381" stroke="white" stroke-width="0.75" stroke-miterlimit="10" stroke-linecap="round"/>
<path d="M37.5303 34.7806C38.1067 35.3081 38.5802 35.9379 38.927 36.638" stroke="white" stroke-width="0.75" stroke-miterlimit="10" stroke-linecap="round"/>
</g>
<g clip-path="url(#clip1_1950_15303)">
<path d="M78.4172 40.5941C78.3733 40.638 77.313 41.3254 76.3112 45.9249C75.9202 47.6217 75.7482 49.3616 75.7993 51.1022C75.8641 51.6382 76.1068 52.137 76.4886 52.5188C76.8704 52.9006 77.3693 53.1434 77.9053 53.2082C79.6458 53.2593 81.3857 53.0872 83.0826 52.6963C83.7187 52.5574 87.2872 51.7237 88.4207 50.5903L94.2707 44.7403C97.2615 41.7422 104.172 34.5467 104.186 33.0037C104.581 31.8484 103.324 29.0404 101.642 27.3585C99.9598 25.6766 97.1518 24.4189 95.9891 24.8137C94.4535 24.8137 87.258 31.7387 84.2891 34.7441L78.4172 40.5941Z" fill="#48EEFF" stroke="#231F20" stroke-width="0.75" stroke-miterlimit="10"/>
<path d="M86.7315 48.0383C85.9481 46.9266 85.0592 45.8932 84.0771 44.9524C83.1396 43.9697 82.1085 43.0806 80.9985 42.298" stroke="#231F20" stroke-width="0.75" stroke-miterlimit="10" stroke-linecap="round"/>
<path d="M100.099 34.671C99.3208 33.5551 98.4314 32.5212 97.4443 31.5851C96.5137 30.6035 95.4901 29.7145 94.3877 28.9307" stroke="#231F20" stroke-width="0.75" stroke-miterlimit="10" stroke-linecap="round"/>
<path d="M96.4644 26.8685C96.9177 26.5175 98.6069 27.3731 99.9159 28.448" stroke="white" stroke-width="0.75" stroke-miterlimit="10" stroke-linecap="round"/>
</g>
<path d="M156.122 38.9562C156.122 31.7972 155.691 26.5249 145 26.5249C134.309 26.5249 133.892 31.7972 133.878 38.9562C131.794 39.9653 130.741 42.1078 130.741 44.9158C130.741 48.8719 132.81 51.4971 136.942 51.4971C141.073 51.4971 140.934 48.8573 140.934 44.9158C140.934 42.0274 141.007 39.841 139.472 38.8757C139.413 34.671 138.938 32.0458 145.037 32.0458C151.135 32.0458 150.66 34.671 150.601 38.8757C149.029 39.841 149.102 42.0274 149.102 44.9158C149.102 48.8719 148.956 51.4971 153.095 51.4971C157.234 51.4971 159.296 48.8573 159.296 44.9158C159.259 42.1078 158.206 39.9653 156.122 38.9562Z" fill="#FF52A1" stroke="#231F20" stroke-width="0.75" stroke-miterlimit="10"/>
<path d="M138.638 42.2468C138.541 43.1698 138.5 44.0977 138.514 45.0256C138.501 45.9437 138.543 46.8618 138.638 47.7751" stroke="#231F20" stroke-width="0.75" stroke-miterlimit="10" stroke-linecap="round"/>
<path d="M151.354 47.775C151.456 46.8524 151.5 45.9244 151.486 44.9963C151.501 44.0682 151.457 43.1401 151.354 42.2175" stroke="#231F20" stroke-width="0.75" stroke-miterlimit="10" stroke-linecap="round"/>
<path d="M149.563 28.7626C150.826 29.012 151.967 29.6854 152.795 30.6711" stroke="white" stroke-width="0.75" stroke-miterlimit="10" stroke-linecap="round"/>
<path d="M48.1627 89.6124C47.1482 89.2949 46.0955 89.1153 45.033 89.0786C44.66 88.2158 44.1701 87.1847 43.6802 86.278C42.9246 84.7792 42.0049 83.369 40.938 82.0733C40.5936 81.7711 40.1617 81.5868 39.7052 81.5474C39.2488 81.5079 38.7917 81.6153 38.4005 81.8539C37.9909 82.0481 37.6534 82.3672 37.4366 82.7653C37.2198 83.1635 37.1348 83.6201 37.194 84.0696C37.6849 85.6739 38.352 87.2189 39.183 88.6765V88.7276C37.7205 88.6765 36.258 88.6545 35.0075 88.6545C33.7571 88.6545 32.3165 88.6545 30.8394 88.7276C30.838 88.7106 30.838 88.6935 30.8394 88.6765C31.6704 87.2189 32.3375 85.6739 32.8284 84.0696C32.8937 83.6183 32.8133 83.158 32.5989 82.7555C32.3846 82.3531 32.0474 82.0296 31.6365 81.832C31.2453 81.5934 30.7882 81.486 30.3318 81.5254C29.8753 81.5649 29.4434 81.7492 29.099 82.0513C28.0321 83.347 27.1124 84.7573 26.3569 86.256C25.8669 87.1628 25.377 88.1938 25.004 89.0567C23.9284 89.0981 22.8632 89.2851 21.8377 89.6124C19.9365 90.6216 20.8579 94.2778 21.8377 97.3344C23.8633 103.448 23.951 104.508 25.8815 105.539C27.0223 106.153 30.3934 106.475 34.971 106.475C39.5486 106.475 42.9197 106.153 44.0604 105.539C45.9909 104.508 46.5247 103.565 48.1042 97.3344C49.1426 93.3418 50.064 90.6216 48.1627 89.6124Z" fill="#FF52A1" stroke="#231F20" stroke-width="0.75" stroke-miterlimit="10"/>
<path d="M27.8267 94.0438C28.0296 96.4426 28.369 98.8279 28.8431 101.188" stroke="#231F20" stroke-width="0.75" stroke-linecap="round" stroke-linejoin="round"/>
<path d="M42.1151 94.0438C41.9113 96.4429 41.5695 98.8283 41.0913 101.188" stroke="#231F20" stroke-width="0.75" stroke-linecap="round" stroke-linejoin="round"/>
<path d="M34.9712 94.0438V101.188" stroke="#231F20" stroke-width="0.75" stroke-linecap="round" stroke-linejoin="round"/>
<path d="M46.1738 91.075C47.1391 91.1993 47.4096 91.3601 46.7003 93.7879" stroke="white" stroke-width="0.75" stroke-miterlimit="10" stroke-linecap="round"/>
<path d="M102.943 98.307C104.756 97.744 104.683 94.1023 102.811 93.627C104.135 93.064 103.235 90.1024 101.678 89.5759C99.4189 89.2534 97.1436 89.0581 94.8627 88.9909C95.3814 87.5647 95.7778 86.0969 96.0473 84.6034C96.1995 83.9451 96.1249 83.2547 95.8355 82.6442C95.5462 82.0336 95.0591 81.5387 94.4532 81.2396C93.4367 80.64 91.7987 80.6254 91.1552 81.1958C90.3655 81.5906 88.3326 84.0696 86.1169 87.8794C84.8802 88.7413 83.7116 89.6972 82.6216 90.7386C81.6948 90.2737 80.6553 90.081 79.6234 90.1828C78.2414 90.1828 76.4059 90.468 76.0842 91.7258C75.7478 92.362 75.6966 95.6965 75.7697 98.4533C75.8429 101.21 76.0842 104.537 76.501 105.152C76.8374 106.431 78.6947 106.548 80.0768 106.512C81.1371 106.512 82.4534 106.322 83.1627 105.693C83.246 105.772 83.3365 105.843 83.4332 105.905C84.34 106.512 88.4204 107.294 91.8719 107.199C97.8389 107.031 100.091 106.556 100.53 106.417C102.884 105.685 102.65 102.921 102.051 102.504C103.462 102.263 104.15 99.2211 102.943 98.307Z" fill="#FFE236" stroke="#231F20" stroke-width="0.75" stroke-miterlimit="10"/>
<path d="M93.2832 82.9581C94.285 83.3603 94.0803 84.4206 93.8536 85.0641" stroke="white" stroke-width="0.75" stroke-miterlimit="10" stroke-linecap="round"/>
<path d="M83.0239 93.7878C83.3018 95.0602 83.6309 101.027 83.2799 102.841" stroke="#231F20" stroke-width="0.75" stroke-miterlimit="10" stroke-linecap="round"/>
<path d="M103.309 93.1371C102.943 93.6928 101.744 93.7294 101.744 93.7294C102.269 93.6782 102.798 93.7202 103.309 93.8537" stroke="#231F20" stroke-width="0.75" stroke-linecap="round" stroke-linejoin="round"/>
<path d="M103.543 97.9561C103.265 98.3071 102.08 98.1462 102.08 98.1462C102.08 98.1462 103.067 98.2339 103.36 98.7897" stroke="#231F20" stroke-width="0.75" stroke-linecap="round" stroke-linejoin="round"/>
<path d="M102.709 102.153C102.441 102.31 102.144 102.41 101.835 102.447C101.527 102.483 101.215 102.456 100.917 102.366C100.917 102.366 102.051 102.504 102.38 103.031" stroke="#231F20" stroke-width="0.75" stroke-linecap="round" stroke-linejoin="round"/>
<path d="M149.753 93.7367C151.676 92.4278 152.642 90.1975 152.642 87.3822C152.642 82.7972 150.119 79.7406 145 79.7406C139.881 79.7406 137.359 82.7972 137.359 87.4187C137.359 90.234 138.324 92.4644 140.247 93.7733C135.947 95.2797 133.797 99.1187 133.797 104.186C133.797 107.243 137.534 108.259 145 108.259C152.466 108.259 156.203 107.243 156.203 104.186C156.203 99.1187 154.053 95.2797 149.753 93.7367Z" fill="#FFE236" stroke="#231F20" stroke-width="0.75" stroke-miterlimit="10"/>
<path d="M147.041 82.161C147.921 82.4801 148.685 83.0558 149.234 83.8136" stroke="white" stroke-width="0.75" stroke-linecap="round" stroke-linejoin="round"/>
<path d="M141.739 90.1317C141.739 90.1317 142.558 90.9434 145 90.9434C147.443 90.9434 148.262 90.1317 148.262 90.1317" stroke="#231F20" stroke-width="0.75" stroke-miterlimit="10" stroke-linecap="round"/>
<path d="M140.927 86.4608C140.927 86.7847 141.056 87.0953 141.285 87.3243C141.514 87.5533 141.825 87.682 142.148 87.682C142.472 87.682 142.783 87.5533 143.012 87.3243C143.241 87.0953 143.37 86.7847 143.37 86.4608C143.37 86.1369 143.241 85.8263 143.012 85.5973C142.783 85.3683 142.472 85.2396 142.148 85.2396C141.825 85.2396 141.514 85.3683 141.285 85.5973C141.056 85.8263 140.927 86.1369 140.927 86.4608Z" fill="#231F20"/>
<path d="M146.631 86.4608C146.631 86.6212 146.662 86.78 146.724 86.9281C146.785 87.0763 146.875 87.2109 146.989 87.3243C147.102 87.4377 147.237 87.5277 147.385 87.589C147.533 87.6504 147.692 87.682 147.852 87.682C148.012 87.682 148.171 87.6504 148.319 87.589C148.468 87.5277 148.602 87.4377 148.716 87.3243C148.829 87.2109 148.919 87.0763 148.98 86.9281C149.042 86.78 149.073 86.6212 149.073 86.4608C149.073 86.3004 149.042 86.1416 148.98 85.9935C148.919 85.8453 148.829 85.7107 148.716 85.5973C148.602 85.4839 148.468 85.394 148.319 85.3326C148.171 85.2712 148.012 85.2396 147.852 85.2396C147.692 85.2396 147.533 85.2712 147.385 85.3326C147.237 85.394 147.102 85.4839 146.989 85.5973C146.875 85.7107 146.785 85.8453 146.724 85.9935C146.662 86.1416 146.631 86.3004 146.631 86.4608Z" fill="#231F20"/>
<defs>
<clipPath id="clip0_1950_15303">
<rect width="30" height="30" fill="white" transform="translate(20 24)"/>
</clipPath>
<clipPath id="clip1_1950_15303">
<rect width="30" height="30" fill="white" transform="translate(75 24)"/>
</clipPath>
</defs>
</svg>
