<svg width="179" height="133" viewBox="0 0 179 133" fill="none" xmlns="http://www.w3.org/2000/svg">
<rect width="179" height="133" fill="white"/>
<path d="M46.0124 25.3793C43.3464 24.0787 37.5082 23.8876 33.8073 23.8876C29.2678 23.8876 21.513 24.1751 20.3404 26.4448C19.1677 27.5796 19.0542 33.6322 19.0542 38.6406C19.0542 42.5129 19.122 47.0094 19.6948 49.3746C20.0503 50.8426 21.0853 52.0595 22.4726 52.6826C25.2096 53.912 30.8842 54.0953 34.5089 54.0953C39.0483 54.0953 46.8031 53.8078 47.9758 51.5381C49.1484 50.4033 49.2619 44.3507 49.2619 39.3423C49.2619 35.4435 49.1932 30.9122 48.6096 28.5602C48.2671 27.1801 47.298 26.0065 46.0124 25.3793Z" fill="#00034A" stroke="#00034A" stroke-width="1.5" stroke-miterlimit="10"/>
<path d="M47.2741 26.4448C46.1015 24.1751 38.3466 23.8876 33.8072 23.8876C29.2678 23.8876 21.513 24.1751 20.3404 26.4448C19.1677 27.5796 19.0542 33.6322 19.0542 38.6406C19.0542 43.6491 19.1677 49.7016 20.3404 50.8365C21.513 53.1062 29.2678 53.3937 33.8072 53.3937C38.3466 53.3937 46.1015 53.1062 47.2741 50.8365C48.4468 49.7016 48.5603 43.6491 48.5603 38.6406C48.5603 33.6322 48.4468 27.5796 47.2741 26.4448Z" fill="#9BFF00" stroke="#00034A" stroke-miterlimit="10"/>
<path d="M44.3992 29.6602C43.4686 28.2833 37.3631 28.1017 33.8073 28.1017C30.2514 28.1017 24.1459 28.2833 23.2153 29.6602C22.3075 30.3184 22.2167 34.018 22.2167 37.0594C22.2167 40.1008 22.3075 43.7777 23.2153 44.4662C24.1308 45.8432 30.2363 46.0172 33.8073 46.0172C37.3783 46.0172 43.4686 45.8432 44.3992 44.4662C45.3222 43.7777 45.413 40.1008 45.413 37.0594C45.413 34.018 45.3071 30.3184 44.3992 29.6602Z" fill="white" stroke="#00034A" stroke-miterlimit="10"/>
<path d="M39.5043 35.6143C38.8307 34.4558 38.0121 33.3879 37.0681 32.4367C36.7637 32.1757 36.3759 32.0322 35.9749 32.0322C35.5738 32.0322 35.1861 32.1757 34.8816 32.4367C33.943 33.3907 33.1272 34.4582 32.453 35.6143C32.4001 35.6975 32.3017 35.8715 32.1882 36.0758C31.8787 35.6201 31.5211 35.1991 31.1215 34.8199C30.8944 34.6269 30.6062 34.521 30.3082 34.521C30.0102 34.521 29.7219 34.6269 29.4949 34.8199C28.7907 35.531 28.1804 36.3294 27.6791 37.1955C27.49 37.5133 26.4308 39.3442 26.4308 40.2823C26.4188 40.5457 26.4959 40.8054 26.6497 41.0195C26.8034 41.2336 27.0248 41.3897 27.2781 41.4626C28.3676 41.9316 38.6266 41.9695 40.0414 41.3491C40.3779 41.2516 40.6723 41.0446 40.8778 40.761C41.0834 40.4773 41.1884 40.1331 41.1763 39.783C41.1763 39.6998 41.373 38.7314 39.5043 35.6143Z" fill="#9BFF00" stroke="#00034A" stroke-miterlimit="10"/>
<path d="M77.1414 40.2749C77.1475 40.2699 77.1516 40.2666 77.1536 40.2646L83.2194 34.2214C86.2863 31.1167 93.7195 23.9631 95.3058 23.9631C96.5069 23.5552 99.4076 24.8545 101.145 26.5919C102.651 28.0981 105.198 30.855 104.417 33.142C104.401 34.7359 97.3717 42.1596 94.2821 45.2568L88.2389 51.2999C87.0681 52.4708 83.3817 53.332 82.7245 53.4755C80.9717 53.8793 79.1743 54.057 77.3763 54.0043C76.8226 53.9373 76.3073 53.6866 75.9129 53.2922C75.6338 53.0131 75.4402 52.862 75.1614 52.5831C74.7669 52.1887 74.5162 51.6734 74.4493 51.1197C74.3965 49.3217 74.5742 47.5243 74.978 45.7715C75.967 41.2308 77.0112 40.3809 77.1414 40.2749Z" fill="#00034A" stroke="#00034A" stroke-miterlimit="10"/>
<path d="M77.1536 40.2646C77.1083 40.3099 76.0129 41.02 74.978 45.7715C74.5742 47.5243 74.3965 49.3217 74.4493 51.1197C74.5162 51.6734 74.7669 52.1887 75.1614 52.5831C75.5558 52.9775 76.0711 53.2283 76.6248 53.2952C78.4228 53.348 80.2202 53.1703 81.973 52.7664C82.6302 52.6229 86.3166 51.7618 87.4874 50.5909L93.5306 44.5477C96.6202 41.4506 103.759 34.0175 103.774 32.4236C104.182 31.23 102.882 28.3293 101.145 26.5919C99.4076 24.8545 96.5069 23.5552 95.3058 23.9631C93.7195 23.9631 86.2863 31.1167 83.2194 34.2214L77.1536 40.2646Z" fill="#9BFF00" stroke="#00034A" stroke-miterlimit="10"/>
<path d="M85.7425 47.9545C84.9333 46.8061 84.015 45.7386 83.0004 44.7668C82.032 43.7516 80.9668 42.8332 79.8202 42.0247" stroke="#00034A" stroke-miterlimit="10" stroke-linecap="round"/>
<path d="M99.5511 34.1459C98.7475 32.9932 97.8287 31.9251 96.8091 30.9582C95.8477 29.9441 94.7903 29.0258 93.6515 28.2161" stroke="#00034A" stroke-miterlimit="10" stroke-linecap="round"/>
<path d="M157.534 39.9967C157.293 39.6689 157.019 39.3726 156.71 39.1106C156.699 34.6971 156.209 30.4753 152.481 27.6829C150.802 26.4256 148.222 25.7137 144.256 25.7137C133.358 25.7137 132.933 31.0879 132.918 38.3851C130.794 39.4138 129.721 41.5977 129.721 44.46C129.721 46.2722 130.147 47.8105 130.998 48.9551C132.487 50.9567 134.607 52.2864 137.16 52.2864C141.237 52.2864 141.234 49.7643 141.23 45.9579C141.229 45.8326 141.229 45.706 141.229 45.578C141.229 45.4486 141.229 45.3205 141.23 45.1939C141.233 42.4402 141.235 40.3619 139.739 39.4212C139.735 39.1447 139.729 38.8748 139.724 38.6119C139.644 34.8011 139.596 32.4594 145.411 32.4594C147.339 32.4594 148.623 32.7169 149.474 33.2002C150.048 34.2505 150.017 35.7115 149.98 37.4939C149.975 37.7567 149.969 38.0266 149.965 38.3031C148.431 39.2447 148.434 41.3263 148.437 44.084C148.437 44.208 148.437 44.3333 148.437 44.46C148.437 44.5946 148.437 44.7277 148.437 44.8593C148.434 46.7537 148.432 48.3244 148.933 49.4248C149.733 51.1842 151.757 52.2864 153.625 52.2864C157.844 52.2864 159.946 49.5956 159.946 45.578C159.914 43.1128 159.113 41.1508 157.534 39.9967Z" fill="#00034A" stroke="#00034A" stroke-miterlimit="10"/>
<path d="M155.593 38.3851C155.593 31.0879 155.153 25.7137 144.256 25.7137C133.358 25.7137 132.933 31.0879 132.918 38.3851C130.794 39.4138 129.721 41.5977 129.721 44.4599C129.721 48.4924 131.83 51.1683 136.041 51.1683C140.253 51.1683 140.111 48.4775 140.111 44.4599C140.111 41.5157 140.186 39.287 138.62 38.3031C138.561 34.0172 138.076 31.3413 144.293 31.3413C150.509 31.3413 150.025 34.0172 149.965 38.3031C148.363 39.287 148.437 41.5157 148.437 44.4599C148.437 48.4924 148.288 51.1683 152.507 51.1683C156.726 51.1683 158.828 48.4775 158.828 44.4599C158.79 41.5977 157.717 39.4138 155.593 38.3851Z" fill="#9BFF00" stroke="#00034A" stroke-miterlimit="10"/>
<path d="M137.771 41.7394C137.672 42.6802 137.63 43.626 137.644 44.5718C137.631 45.5077 137.674 46.4435 137.771 47.3744" stroke="#00034A" stroke-miterlimit="10" stroke-linecap="round"/>
<path d="M150.733 47.3743C150.837 46.4339 150.882 45.4879 150.867 44.5419C150.882 43.5959 150.837 42.6498 150.733 41.7095" stroke="#00034A" stroke-miterlimit="10" stroke-linecap="round"/>
<path d="M44.6139 88.9446C45.5547 89.0125 46.4851 89.1891 47.3862 89.4712C48.2502 89.9297 49.1084 90.8461 49.2319 91.8295C49.3898 93.0867 48.9193 94.8638 48.3332 97.0775C48.2457 97.4082 48.1556 97.7486 48.0646 98.0985C46.4342 104.53 45.8832 105.503 43.8905 106.568C42.713 107.202 39.2333 107.534 34.5082 107.534C29.7831 107.534 26.3034 107.202 25.1259 106.568C24.2415 106.095 23.284 105.302 22.7525 104.444C22.2052 103.561 21.7661 102.208 20.9768 99.7766C20.7537 99.0892 20.5026 98.3155 20.2131 97.4419C19.2017 94.2868 18.2506 90.5128 20.2131 89.4712C21.2716 89.1332 22.3711 88.9403 23.4814 88.8975C23.8664 88.0068 24.3721 86.9425 24.8778 86.0066C25.6578 84.4595 26.6071 83.0039 27.7084 81.6664C28.0638 81.3545 28.5097 81.1643 28.9808 81.1236C29.452 81.0829 29.9238 81.1937 30.3276 81.44C30.9367 81.7329 31.7435 82.4563 32.0597 83.0499C32.281 83.4653 32.364 83.9405 32.2966 84.4063C31.8618 85.8272 31.2932 87.203 30.5986 88.5153C31.735 88.4824 32.8276 88.4824 33.8072 88.4824C35.098 88.4824 36.6076 88.505 38.1172 88.5578V88.505C37.2594 87.0005 36.5708 85.4057 36.0641 83.7497C36.003 83.2857 36.0907 82.8144 36.3145 82.4034C36.5383 81.9924 36.8867 81.6631 37.3095 81.4626C37.7133 81.2164 38.1851 81.1055 38.6563 81.1463C39.5004 81.2192 40.0657 81.8177 40.6674 82.3457C41.7687 83.6831 42.718 85.1388 43.498 86.6858C43.8885 87.4086 44.279 88.2078 44.6139 88.9446Z" fill="#00034A" stroke="#00034A" stroke-width="1.5" stroke-miterlimit="10"/>
<path d="M47.3862 89.4712C46.339 89.1434 45.2524 88.958 44.1557 88.9201C43.7707 88.0295 43.265 86.9652 42.7593 86.0292C41.9793 84.4822 41.03 83.0265 39.9287 81.6891C39.5733 81.3772 39.1274 81.187 38.6563 81.1463C38.1851 81.1055 37.7133 81.2164 37.3095 81.4626C36.8867 81.6631 36.5383 81.9924 36.3145 82.4034C36.0907 82.8144 36.003 83.2857 36.0641 83.7497C36.5708 85.4057 37.2594 87.0005 38.1172 88.505V88.5578C36.6076 88.505 35.098 88.4824 33.8072 88.4824C32.5165 88.4824 31.0295 88.4824 29.5048 88.5578C29.5034 88.5403 29.5034 88.5226 29.5048 88.505C30.3626 87.0005 31.0512 85.4057 31.5579 83.7497C31.6253 83.2839 31.5423 82.8087 31.321 82.3933C31.0997 81.9779 30.7517 81.644 30.3276 81.44C29.9238 81.1937 29.452 81.0829 28.9808 81.1236C28.5097 81.1643 28.0638 81.3545 27.7084 81.6664C26.6071 83.0039 25.6578 84.4595 24.8778 86.0066C24.3721 86.9425 23.8664 88.0068 23.4814 88.8975C22.3711 88.9403 21.2716 89.1332 20.2131 89.4712C18.2506 90.5128 19.2017 94.2868 20.2131 97.4419C22.3039 103.752 22.3945 104.847 24.3872 105.911C25.5647 106.545 29.0444 106.877 33.7695 106.877C38.4946 106.877 41.9743 106.545 43.1518 105.911C45.1445 104.847 45.6955 103.873 47.3259 97.4419C48.3977 93.3207 49.3488 90.5128 47.3862 89.4712Z" fill="#9BFF00" stroke="#00034A" stroke-miterlimit="10"/>
<path d="M26.395 94.0453C26.6045 96.5214 26.9548 98.9835 27.4442 101.42" stroke="#00034A" stroke-linecap="round" stroke-linejoin="round"/>
<path d="M41.144 94.0453C40.9337 96.5217 40.5808 98.9839 40.0873 101.42" stroke="#00034A" stroke-linecap="round" stroke-linejoin="round"/>
<path d="M33.7695 94.0453V101.42" stroke="#00034A" stroke-linecap="round" stroke-linejoin="round"/>
<path d="M93.6259 80.6099C92.5896 79.9985 90.9196 79.9836 90.2636 80.5651C89.4584 80.9677 87.3858 83.4951 85.1268 87.3793C83.8659 88.2581 82.6744 89.2327 81.5631 90.2944C80.6183 89.8204 79.5584 89.6239 78.5064 89.7278C77.0974 89.7278 75.2261 90.0185 74.898 91.3009C74.5551 91.9495 74.5029 95.3491 74.5774 98.1598C74.652 100.97 74.898 104.363 75.323 104.989C75.788 106.758 78.2866 107.191 79.7962 107.151C80.8772 107.151 82.2192 106.958 82.9424 106.316C83.0272 106.397 83.1196 106.469 83.2182 106.533C84.1427 107.151 88.3028 107.949 91.8217 107.852C97.9053 107.681 100.202 107.196 100.649 107.055C103.05 106.309 102.811 103.491 102.2 103.066C103.638 102.82 104.339 99.7184 103.109 98.7865C104.872 98.2393 104.886 94.8402 103.231 94.1036C103.197 94.0459 103.161 93.9901 103.123 93.9365C104.875 92.8052 102.416 89.5903 100.992 89.109C99.0463 88.8313 97.089 88.6461 95.1263 88.5539C95.5316 87.3321 95.85 86.0827 96.0787 84.8151C96.2339 84.144 96.1578 83.4401 95.8628 82.8176C95.4677 81.984 94.4565 81.0198 93.6259 80.6099Z" fill="#00034A" stroke="#00034A" stroke-miterlimit="10"/>
<path d="M102.282 98.0107C104.131 97.4366 104.056 93.7239 102.147 93.2393C103.497 92.6652 102.58 89.6458 100.992 89.109C98.6887 88.7802 96.3689 88.5811 94.0434 88.5126C94.5723 87.0585 94.9764 85.562 95.2512 84.0393C95.4064 83.3682 95.3303 82.6643 95.0353 82.0418C94.7403 81.4193 94.2436 80.9147 93.6259 80.6099C92.5896 79.9985 90.9196 79.9836 90.2636 80.5651C89.4584 80.9677 87.3858 83.4951 85.1268 87.3793C83.8659 88.2581 82.6744 89.2327 81.5631 90.2944C80.6183 89.8204 79.5584 89.6239 78.5064 89.7278C77.0974 89.7278 75.2261 90.0185 74.898 91.3009C74.5551 91.9495 74.5029 95.3491 74.5774 98.1598C74.652 100.97 74.898 104.363 75.323 104.989C75.6659 106.294 77.5596 106.413 78.9687 106.376C80.0497 106.376 81.3917 106.182 82.1148 105.541C82.1997 105.621 82.2921 105.694 82.3907 105.757C83.3151 106.376 87.4752 107.173 90.9942 107.076C97.0778 106.905 99.374 106.42 99.8214 106.279C102.222 105.533 101.983 102.715 101.372 102.29C102.811 102.044 103.512 98.9426 102.282 98.0107Z" fill="#9BFF00" stroke="#00034A" stroke-miterlimit="10"/>
<path d="M81.9731 93.4032C82.2564 94.7004 82.5919 100.784 82.2341 102.633" stroke="#00034A" stroke-miterlimit="10" stroke-linecap="round"/>
<path d="M102.654 92.7397C102.282 93.3064 101.059 93.3436 101.059 93.3436C101.594 93.2914 102.134 93.3343 102.654 93.4704" stroke="#00034A" stroke-linecap="round" stroke-linejoin="round"/>
<path d="M102.893 97.6528C102.61 98.0107 101.402 97.8467 101.402 97.8467C101.402 97.8467 102.408 97.9361 102.707 98.5027" stroke="#00034A" stroke-linecap="round" stroke-linejoin="round"/>
<path d="M102.043 101.932C101.77 102.092 101.467 102.194 101.152 102.231C100.838 102.268 100.519 102.24 100.216 102.148C100.216 102.148 101.372 102.29 101.708 102.827" stroke="#00034A" stroke-linecap="round" stroke-linejoin="round"/>
<path d="M151.126 93.8185C152.723 92.4497 153.524 90.3434 153.524 87.7515C153.524 82.801 149.833 78.8876 144.833 78.8876C139.607 78.8876 137.031 82.0083 137.031 86.7267C137.031 89.3531 138.041 91.3977 139.749 93.2986C135.513 94.8919 133.396 98.7638 133.396 103.846C133.396 109.233 142.336 109.066 145.722 109.066C153.345 109.066 157.16 108.029 157.16 104.908C157.16 100.536 155.092 95.9699 151.126 93.8185Z" fill="#00034A" stroke="#00034A" stroke-miterlimit="10"/>
<path d="M149.686 93.1771C151.65 91.8407 152.635 89.5637 152.635 86.6893C152.635 82.0083 150.059 78.8876 144.833 78.8876C139.607 78.8876 137.031 82.0083 137.031 86.7267C137.031 89.601 138.017 91.8781 139.98 93.2144C135.591 94.7524 133.396 98.6719 133.396 103.846C133.396 106.966 137.211 108.004 144.833 108.004C152.456 108.004 156.271 106.966 156.271 103.846C156.271 98.6719 154.076 94.7524 149.686 93.1771Z" fill="#9BFF00" stroke="#00034A" stroke-miterlimit="10"/>
<path d="M141.922 86.9954C142.61 86.9954 143.168 86.4372 143.168 85.7486C143.168 85.06 142.61 84.5018 141.922 84.5018C141.233 84.5018 140.675 85.06 140.675 85.7486C140.675 86.4372 141.233 86.9954 141.922 86.9954Z" fill="#00034A"/>
<path d="M147.745 86.9954C148.433 86.9954 148.992 86.4372 148.992 85.7486C148.992 85.06 148.433 84.5018 147.745 84.5018C147.056 84.5018 146.498 85.06 146.498 85.7486C146.498 86.4372 147.056 86.9954 147.745 86.9954Z" fill="#00034A"/>
<path d="M146.289 87.9461C146.294 88.5735 145.644 89.0876 144.836 89.0943C144.029 89.101 143.37 88.5978 143.365 87.9705" stroke="#00034A" stroke-linecap="round"/>
</svg>
