<svg viewBox="0 0 14 14" fill="none" xmlns="http://www.w3.org/2000/svg" class="mr-1.5 h-auto w-3.5"><path d="M12.7812 6.83625C12.7822 6.71046 12.7568 6.58587 12.7068 6.47042C12.6569 6.35496 12.5835 6.25116 12.4912 6.16563L6.89064 1L1.29002 6.16563C1.19779 6.25116 1.12437 6.35496 1.07444 6.47042C1.02451 6.58587 0.99917 6.71046 1.00002 6.83625V11.875C1.00002 12.1153 1.0955 12.3459 1.26545 12.5158C1.43541 12.6857 1.66592 12.7812 1.90627 12.7812H11.875C12.1153 12.7812 12.3459 12.6857 12.5158 12.5158C12.6858 12.3459 12.7812 12.1153 12.7812 11.875V6.83625Z" fill="#F3F3EE" stroke="#7B7B69" stroke-width="1.5" stroke-linecap="round" stroke-linejoin="round"></path><path d="M6.89062 12.7812V9.15625V12.7812Z" fill="#F3F3EE"></path><path d="M6.89062 12.7812V9.15625" stroke="#7B7B69" stroke-width="1.5" stroke-linecap="round" stroke-linejoin="round"></path></svg>