<svg viewBox="0 0 121 26" fill="none" xmlns="http://www.w3.org/2000/svg" class="h-6 w-auto cursor-pointer hidden header-md:inline" role="img" aria-label="Streamline Logo" data-sentry-element="StreamlineLogoOutlined" data-sentry-source-file="logoLink.tsx"><path d="M32.2526 12.9021C31.6753 12.4078 30.7398 12.068 29.3264 11.8312C28.0923 11.6253 27.6543 11.3267 27.6543 10.6985C27.6543 10.1219 28.1619 9.76151 28.9781 9.76151C29.844 9.76151 30.2919 10.1528 30.4312 11.0486L30.4412 11.131H32.9493L32.9394 11.0177C32.6706 8.90686 31.2872 7.79478 28.9283 7.79478C26.659 7.79478 25.1462 9.00983 25.1462 10.8324C25.1462 11.7797 25.4249 12.4799 26.0021 12.9948C26.5794 13.4684 27.5349 13.8288 28.8487 14.0657C30.3416 14.3437 30.5905 14.6526 30.5905 15.2498C30.5905 15.8574 30.0231 16.2486 29.1572 16.2486C28.142 16.2486 27.505 15.7544 27.3657 14.8688L27.3557 14.7865H24.748L24.768 14.8997C24.9272 15.9191 25.4149 16.7635 26.1713 17.3401C26.9278 17.9168 27.9629 18.2154 29.1473 18.2154C30.262 18.2154 31.2772 17.9065 32.0038 17.3401C32.7304 16.7738 33.1285 15.9603 33.1285 15.0645C33.1185 14.0863 32.8399 13.4067 32.2526 12.9021Z" fill="#020202"></path><path d="M47.1423 7.90804C46.2565 7.90804 45.53 8.26844 44.9427 9.00982C44.7636 9.20547 44.7138 9.24666 44.6242 9.24666C44.5147 9.24666 44.465 9.07161 44.4451 8.97893C44.3953 8.70091 44.3455 8.4023 44.3356 8.20666L44.3256 8.11398H42.4047V17.8859H44.9825V12.7373C44.9825 12.0269 45.0821 11.4502 45.2612 11.028C45.51 10.4617 45.9181 10.1734 46.4456 10.1734C47.0329 10.1734 47.3613 10.5956 47.3613 11.337V11.6871H49.6704L49.6804 11.6047C49.7003 11.4811 49.7003 11.3267 49.7003 11.1928C49.7102 10.0704 49.4315 9.18487 48.8841 8.61854C48.4561 8.14487 47.8689 7.90804 47.1423 7.90804Z" fill="#020202"></path><path d="M55.6522 7.80507C54.2787 7.80507 53.0246 8.31992 52.1089 9.26725C51.1833 10.2249 50.6757 11.5532 50.6757 13.0051C50.6757 14.4775 51.1833 15.8162 52.0989 16.7532C53.0047 17.6799 54.2886 18.1948 55.7019 18.1948C58.1205 18.1948 59.9021 16.8973 60.3699 14.8173L60.3998 14.6938H57.8219L57.802 14.7659C57.5532 15.5999 56.7868 16.0839 55.7019 16.0839C54.3682 16.0839 53.4526 15.2395 53.3132 13.8803H60.4396L60.4595 13.8082C60.5092 13.5817 60.5391 13.0772 60.5391 12.7476C60.5391 11.3267 60.0912 10.1013 59.2452 9.21577C58.3594 8.29933 57.1252 7.80507 55.6522 7.80507ZM53.3232 12.0269C53.4924 10.7294 54.408 9.89537 55.7019 9.89537C56.9759 9.89537 57.8816 10.75 57.9812 12.0269H53.3232Z" fill="#020202"></path><path d="M70.2134 8.20666C70.2134 8.47438 70.1637 8.85537 70.1239 9.12309C70.0642 9.39082 69.9845 9.39082 69.9447 9.39082C69.9248 9.39082 69.8253 9.38052 69.5964 9.13339C68.83 8.24785 67.8247 7.81537 66.5308 7.81537C65.2469 7.81537 64.0625 8.34052 63.1866 9.29814C62.3107 10.2558 61.833 11.5635 61.833 12.9845C61.833 14.4055 62.3107 15.7132 63.1866 16.6708C64.0625 17.6284 65.2469 18.1433 66.5308 18.1433C67.8247 18.1433 68.83 17.7108 69.5964 16.8253C69.8253 16.5884 69.9248 16.5678 69.9447 16.5678C69.9845 16.5678 70.0642 16.5678 70.1239 16.8356C70.1637 17.0415 70.2234 17.4431 70.2234 17.752V17.855H72.1841V8.11398H70.2234V8.20666H70.2134ZM69.666 12.9948C69.666 14.7144 68.621 15.8676 67.0683 15.8676C66.282 15.8676 65.645 15.5999 65.1772 15.0851C64.6995 14.5599 64.4606 13.87 64.4606 13.0051C64.4606 11.2855 65.5057 10.1322 67.0683 10.1322C68.6309 10.1219 69.666 11.2752 69.666 12.9948Z" fill="#020202"></path><path d="M85.6406 7.80507C84.4164 7.80507 83.5604 8.27874 82.7742 9.38052C82.6049 9.60705 82.5054 9.65854 82.4457 9.65854C82.376 9.65854 82.3064 9.63794 82.1571 9.35992C81.5898 8.29933 80.7338 7.80507 79.4498 7.80507C78.3052 7.80507 77.4194 8.26844 76.653 9.27755C76.4739 9.47319 76.454 9.47319 76.3744 9.47319C76.235 9.47319 76.1853 9.26725 76.1653 9.14369C76.1156 8.83478 76.0658 8.51557 76.0559 8.20666V8.11398H74.125V17.8859H76.7028V13.3552C76.7028 12.3873 76.872 11.6253 77.2204 11.0898C77.6085 10.4926 78.1161 10.2043 78.773 10.2043C79.4498 10.2043 80.256 10.5441 80.256 12.1916V17.8962H82.814V13.3655C82.814 12.3975 82.9832 11.6562 83.3315 11.1001C83.7197 10.5029 84.2273 10.2146 84.8842 10.2146C85.561 10.2146 86.3672 10.5544 86.3672 12.2019V17.9065H88.9649V11.8106C88.955 9.29814 87.7109 7.80507 85.6406 7.80507Z" fill="#020202"></path><path d="M93.4637 4.40705H90.8859V17.8756H93.4637V4.40705Z" fill="#020202"></path><path d="M97.9724 8.11398H95.3946V17.8859H97.9724V8.11398Z" fill="#020202"></path><path d="M105.437 7.80507C104.153 7.80507 103.198 8.25814 102.461 9.24666C102.342 9.40111 102.242 9.47319 102.163 9.47319C102.073 9.47319 102.003 9.37022 101.964 9.15398C101.914 8.89656 101.854 8.45378 101.834 8.19636L101.824 8.10369H99.8933V17.8756H102.471V13.4067C102.471 12.377 102.67 11.6047 103.078 11.028C103.486 10.4617 104.034 10.1837 104.76 10.1837C105.805 10.1837 106.393 10.9148 106.393 12.2328V17.8653H108.971V11.8106C108.971 10.5441 108.662 9.55557 108.045 8.85537C107.438 8.17577 106.532 7.80507 105.437 7.80507Z" fill="#020202"></path><path d="M118.834 9.21577C117.958 8.29933 116.714 7.81537 115.251 7.81537C113.877 7.81537 112.623 8.33022 111.708 9.27755C110.782 10.2352 110.274 11.5635 110.274 13.0154C110.274 14.4878 110.782 15.8265 111.698 16.7635C112.603 17.6902 113.887 18.2051 115.301 18.2051C117.719 18.2051 119.501 16.9076 119.969 14.8276L119.998 14.7041H117.421L117.401 14.7762C117.152 15.6102 116.386 16.0942 115.301 16.0942C113.967 16.0942 113.051 15.2498 112.912 13.8906H120.038L120.058 13.8185C120.108 13.592 120.138 13.0874 120.138 12.7579C120.128 11.3267 119.68 10.1013 118.834 9.21577ZM112.922 12.0269C113.081 10.7294 114.007 9.89537 115.301 9.89537C116.575 9.89537 117.48 10.75 117.58 12.0269H112.922Z" fill="#020202"></path><path d="M39.4288 15.8471C38.4334 15.8471 38.0453 15.394 38.0453 14.251V10.3381H40.4738V8.11399H38.0453V5.42646H36.2537L36.2438 5.51913C36.2139 5.82804 36.0945 6.85775 35.9352 7.40349C35.8258 7.83597 35.6167 8.11399 34.9001 8.11399H33.7555V10.3278H35.5073V14.4776C35.5073 16.9076 36.5424 17.9888 38.8714 17.9888C39.4487 17.9888 40.1354 17.8859 40.5435 17.752L40.6132 17.7314V15.6411L40.4937 15.6823C40.1553 15.7853 39.797 15.8471 39.4288 15.8471Z" fill="#020202"></path><path d="M96.6885 7.0019C97.5295 7.0019 98.2113 6.29655 98.2113 5.42646C98.2113 4.55636 97.5295 3.85101 96.6885 3.85101C95.8475 3.85101 95.1657 4.55636 95.1657 5.42646C95.1657 6.29655 95.8475 7.0019 96.6885 7.0019Z" fill="#020202"></path><path d="M14.5364 4.05703C14.5364 6.29148 12.7847 8.11406 10.6149 8.11406H6.69341L9.46035 10.9766H13.3818C14.3871 10.9766 15.3923 11.3679 16.1488 12.1608C17.6815 13.7465 17.6815 16.3105 16.1488 17.8962L9.4703 24.8158C8.76363 25.5469 7.77829 26 6.70336 26C4.54355 26 2.78187 24.1877 2.78187 21.943C2.78187 19.7085 4.5336 17.8859 6.70336 17.8859H10.6248L7.838 15.0337H3.91651C2.91126 15.0337 1.906 14.6424 1.14957 13.8495C-0.383191 12.2638 -0.383191 9.6998 1.14957 8.11406L7.838 1.19446C8.55462 0.453069 9.53002 0 10.6149 0C12.7747 0 14.5364 1.81228 14.5364 4.05703Z" fill="#65D80D"></path></svg>