<svg viewBox="0 0 16 16" fill="none" xmlns="http://www.w3.org/2000/svg" class="mr-1.5 h-auto w-3.5"><path d="M8.43417 1.33794L10.1505 4.80304C10.1896 4.89099 10.251 4.96717 10.3286 5.02399C10.4063 5.0808 10.4975 5.11629 10.5931 5.12688L14.382 5.6882C14.4917 5.7023 14.5951 5.74732 14.6803 5.81802C14.7654 5.8887 14.8285 5.98213 14.8625 6.0874C14.8964 6.19267 14.8998 6.30543 14.872 6.4125C14.8443 6.51957 14.7866 6.61655 14.7059 6.69211L11.9748 9.40157C11.9051 9.4667 11.8528 9.54821 11.8226 9.6387C11.7925 9.7292 11.7854 9.8258 11.8021 9.91972L12.4606 13.7303C12.4797 13.8397 12.4676 13.9524 12.4258 14.0554C12.384 14.1584 12.3141 14.2475 12.2242 14.3127C12.1342 14.3779 12.0277 14.4167 11.9169 14.4244C11.806 14.432 11.6951 14.4085 11.597 14.3564L8.18589 12.5536C8.09855 12.5108 8.00253 12.4884 7.90523 12.4884C7.80792 12.4884 7.71192 12.5108 7.62457 12.5536L4.21344 14.3564C4.11531 14.4085 4.0045 14.432 3.89363 14.4244C3.78276 14.4167 3.67627 14.3779 3.58629 14.3127C3.49631 14.2475 3.42645 14.1584 3.38465 14.0554C3.34285 13.9524 3.33081 13.8397 3.34987 13.7303L4.00835 9.87654C4.02503 9.78262 4.01797 9.68602 3.98781 9.59553C3.95764 9.50503 3.90533 9.42352 3.83563 9.35839L1.07219 6.69211C0.990437 6.61449 0.932942 6.51482 0.906673 6.40519C0.880403 6.29557 0.886486 6.18067 0.924185 6.07443C0.961883 5.96819 1.02958 5.87516 1.11908 5.80661C1.20857 5.73806 1.31602 5.69692 1.42842 5.6882L5.21735 5.12688C5.31299 5.11629 5.40418 5.0808 5.48184 5.02399C5.55949 4.96717 5.6209 4.89099 5.65993 4.80304L7.37629 1.33794C7.42303 1.23702 7.49766 1.15158 7.59139 1.0917C7.68511 1.03182 7.79401 1 7.90523 1C8.01644 1 8.12535 1.03182 8.21907 1.0917C8.31279 1.15158 8.38743 1.23702 8.43417 1.33794Z" fill="#F3F3EE" stroke="#7B7B69" stroke-width="1.5" stroke-linecap="round" stroke-linejoin="round"></path></svg>